<svg width="40" height="39" fill="none" xmlns="http://www.w3.org/2000/svg"><mask id="a" style="mask-type:alpha" maskUnits="userSpaceOnUse" x="0" y="0" width="39" height="39"><path fill-rule="evenodd" clip-rule="evenodd" d="M0 .219h38.957v38.604H0V.22z" fill="#fff"/></mask><g mask="url(#a)"><path fill-rule="evenodd" clip-rule="evenodd" d="M19.479 38.823c-.775-1.208-2.363-2.917-4.242-2.97H0V.216h15.594c1.467.079 2.825.767 3.885 1.795C20.539.984 21.896.296 23.363.217h15.594v35.636H23.721c-1.879.053-3.468 1.762-4.242 2.97zm0-33.209c-.964-.779-2.3-2.25-3.97-2.25H3.167v29.342H15.41c1.729 0 3.177.658 4.069 1.875.89-1.217 2.34-1.875 4.068-1.875H35.79V3.363H23.448c-1.67 0-3.005 1.472-3.97 2.252z" fill="#4F4F4F"/></g><mask id="b" style="mask-type:alpha" maskUnits="userSpaceOnUse" x="0" y="0" width="40" height="39"><path fill-rule="evenodd" clip-rule="evenodd" d="M0 38.046h39.032V.144H0v37.902z" fill="#fff"/></mask><g mask="url(#b)"><path fill-rule="evenodd" clip-rule="evenodd" d="M6.099 30.71h3.94v-3.998h-3.94v3.998zm28.039-18.885v.02l.015.004-.015.05v.823h-13.58v6.62h-.884v-6.62h-4.826v-.897l5.27-4.345 13.956 4.345h.064zm-17.78 0h3.316V8.987l-3.315 2.837zm4.2-3.27v3.27h10.5l-10.5-3.27zm9.64 12.363h3.94v-3.997h-3.94v3.998zm-19.275 0h3.94v-3.997h-3.939v3.998zm-4.824 0h3.94v-3.997h-3.94v3.998zm0 4.896h3.94v-3.998h-3.94v3.998zm4.824 0h3.94v-3.998h-3.939v3.998zm4.825 0h3.94v-3.998h-3.94v3.998zm4.825 0h3.941v-3.998h-3.941v3.998zm9.625 4.896h3.94v-3.998h-3.94v3.998zm-4.826 0h3.94v-3.998h-3.94v3.998zm-4.799 0h3.941v-3.998h-3.941v3.998zm-4.825 0h3.94v-3.998h-3.94v3.998zm-4.825 0h3.94v-3.998h-3.939v3.998z" fill="#4F4F4F"/></g></svg>