<svg width="48" height="49" fill="none" xmlns="http://www.w3.org/2000/svg"><g clip-path="url(#clip0_624_16121)"><path d="M23.968.834A23.49 23.49 0 00.528 24.276a23.486 23.486 0 0023.44 23.44A23.474 23.474 0 0047.409 24.28 23.481 23.481 0 0023.968.834z" fill="#fff"/><path d="M27.568 20.09c1.173-.194 2.378-.53 3.568-.33l.024.008a4.86 4.86 0 00-.401.384l.544-.128c-.029-.068-.083-.204-.111-.272l-.015-.043c1.59-.165 3.194.06 4.778.243-.102.454-.222.903-.353 1.348-.408-.113-.816-.22-1.224-.318-2.07-.497-4.228-.493-6.324-.168a3.54 3.54 0 01-.486-.723zm1.768.137l.316-.041c.07-.103.136-.205.215-.309a.467.467 0 00-.536.355l.005-.005zm1.012-.319c-.19.02-.326.35-.079.396.272.075.429-.499.074-.39l.005-.006zm-18.161 4.305c2.086-1.273 4.615-1.743 7.029-1.448 1.663.21 3.233.85 4.695 1.641.544-.213 1.055-.515 1.604-.731 0 .425 0 .85-.009 1.275-.334.181-.654.409-1.03.494-.36.064-.727.008-1.087-.019-.163.415-.303.84-.436 1.266-.65-.046-.97.65-1.583.712-.38.07-.763.126-1.142.205.462.42.887.881 1.269 1.377-.017.795-.207 1.575-.308 2.362l-.217-.307c-1.186.245-2.306.737-3.368 1.308.15.408.305.807.474 1.204a3.045 3.045 0 01-.57.326c-.363-.208-.653-.523-1.023-.722-.619.237-1.043.816-1.58 1.201-.925-3.376-1.818-6.76-2.718-10.144zm16.789-1.45c1.03-.032 2.075-.076 3.094.136a9.309 9.309 0 013.22 1.288c.213.119.044.387.025.565-.888 3.1-1.71 6.218-2.616 9.313-.308-.256-.616-.51-.924-.76-.373.225-.705.515-1.08.736a.24.24 0 01-.284-.244c.026-.445.104-.884.136-1.33a15.418 15.418 0 00-2.982-1.291c-.287.362-.555.74-.816 1.12l-.613-.136c-.046-.442-.1-.882-.167-1.322-1.18-.2-2.38-.136-3.57-.098.195-.24.37-.51.637-.68.33-.118.713-.112.986-.359.422-.345.966-.606 1.18-1.14l.331.052c.914-.52 1.84-1.02 2.741-1.563.558-.282.691-.952.85-1.496.055-.94-.117-1.864-.148-2.79zm3.797 4.746c.195.095.513-.21.357-.4-.22-.113-.426.203-.357.4zm-.895.212c.38.097.706-.186.562-.58a2.37 2.37 0 00-.562.573v.007zm.185.986c.023.363.494.196.725.162 0-.063-.015-.192-.019-.257-.246-.076-.561-.22-.706.088v.007zm-1.809.784c.24-.031.472-.11.68-.232l-.236-.255c-.187.115-.378.25-.444.48v.007zm1.14-.34c.01.152.02.306.036.458a.565.565 0 00.338-.457l-.374-.002z" fill="#fff"/><path d="M18.814 9.248c1.541-.524 3.165-.887 4.8-.843-.01.434-.014.867 0 1.301-.155-.054-.3-.163-.47-.159-.407.195-.754.551-1.223.61-.334.051-.665.092-.992.17l-.341-.316c-.234.215-.434.476-.712.634a6.196 6.196 0 01-.788-.283c-.335.322-.71.6-1.03.934v.136c.35.332.719.642 1.106.93.068.407.136.815.206 1.223l.342.076.067.453c.471-.12.94-.239 1.42-.326.025.235.052.47.08.707-.272.136-.605.29-.61.649.091.468.487.783.816 1.102.444.454 1.15.544 1.535 1.065.272.376.68.761.585 1.271-4.256-.068-8.722-1.134-11.987-4.004 1.758-2.466 4.35-4.307 7.196-5.33zm5.426-.881c4.631.024 9.152 2.321 11.981 5.972-2.003 1.944-4.668 3.062-7.358 3.672-1.002.206-2.012.436-3.04.445-.198-.227-.419-.45-.504-.75-.181-.609-.785-.951-1.072-1.495a6.16 6.16 0 01.028-.743c.364-.385.77-.774.845-1.326.865-.736 1.837-1.336 2.72-2.053-.877-.18-1.826-.198-2.56-.779.22-.386.413-.787.578-1.2a12.181 12.181 0 00-1.607-.01c-.011-.573-.011-1.154-.011-1.733z" fill="#0087C6"/><path d="M23.023 7.752a16.003 16.003 0 0112.258 4.564c3.264 3.163 5.103 7.753 4.863 12.293-.178 4.79-2.647 9.423-6.5 12.27a16.1 16.1 0 01-7.937 3.106c-3.513.366-7.155-.408-10.162-2.28-3.104-1.874-5.483-4.858-6.742-8.244a16.174 16.174 0 0114.22-21.71zm-4.209 1.496c-2.845 1.023-5.44 2.864-7.208 5.326 3.264 2.87 7.73 3.936 11.986 4.004.09-.51-.31-.895-.584-1.271-.385-.523-1.088-.611-1.535-1.065-.323-.319-.72-.634-.816-1.102 0-.36.336-.513.61-.649a58.828 58.828 0 01-.08-.707c-.48.087-.951.207-1.42.326l-.067-.452-.342-.077c-.069-.408-.136-.816-.206-1.224a12.073 12.073 0 01-1.106-.929v-.136c.32-.334.695-.612 1.03-.934.256.112.52.206.788.283.272-.158.478-.42.712-.634l.341.317c.326-.079.658-.12.992-.17.468-.06.816-.416 1.224-.61.17 0 .314.104.469.158a34.65 34.65 0 010-1.301c-1.623-.04-3.247.323-4.788.847zm5.426-.881c0 .579 0 1.16.008 1.74a12.181 12.181 0 011.608.011 9.829 9.829 0 01-.578 1.2c.733.58 1.682.6 2.56.78-.88.716-1.853 1.316-2.72 2.052-.076.552-.482.941-.845 1.326a6.16 6.16 0 00-.03.743c.288.544.892.882 1.073 1.496.085.299.306.522.504.75 1.029-.01 2.04-.24 3.04-.446 2.69-.614 5.355-1.732 7.358-3.672-2.822-3.659-7.343-5.956-11.978-5.98zm-1.934 2.112c-.374.092-.774.117-1.109.328-.235.171-.46-.077-.666-.168-.206.173-.408.345-.62.51a4.425 4.425 0 00-.713-.3c-.242.117-.408.338-.61.513.25.223.51.438.764.658.367.257.247.771.325 1.155.197.098.408.19.474.427.484-.15.99-.217 1.497-.197.008.265-.011.529-.015.794.243.136.544.208.701.455-.423.11-.844.218-1.26.351.2.755.953 1.192 1.611 1.522.57.272.864.863 1.213 1.36.551.746 1.095 1.509 1.823 2.098.21.427.223.933.434 1.37-.104.216-.25.428-.242.68-.03 1.025.032 2.05-.022 3.073a2.863 2.863 0 01-2.273.788c-.178.435-.264.906-.008 1.331a7.765 7.765 0 00-.904-.084c-.296.136-.512.394-.803.536a5.383 5.383 0 01-.791.184c.33.271.5.692.876.916-.084.649-.228 1.291-.252 1.947.408-.334.734-.766 1.155-1.089a3.3 3.3 0 01.662-.104c.347-.257.707-.495 1.034-.777.23-.171.118-.62.42-.702l.45.11c.86-.44 1.692-.933 2.533-1.409.503-.246.623-.851.745-1.343-.002-.86-.06-1.72-.173-2.572-.185-.76-.653-1.415-1.06-2.072-.657-.993-1.661-1.677-2.423-2.575-.18-.756-.84-1.216-1.243-1.836a3.899 3.899 0 01.105-1.065c.172-.272.425-.482.612-.744.16-.255.152-.616.408-.803.612-.489 1.273-.912 1.871-1.416a3.75 3.75 0 01-1.976-.844c-.136-.39.272-.68.424-.992-.52 0-1.04.014-1.56 0-.185-.164-.333-.409-.58-.475-.288.138-.532.34-.83.46h-.004zm4.382 8.552a3.905 3.905 0 01-.035.136c.255.338.58.614.862.928l.05-.01c.13.26.29.504.478.725l.164.287c.129.276.273.545.43.805.097.153.113.38.284.474.593.008 1.186-.07 1.78-.042 1.303.03 2.589.3 3.794.794.488.18.92.559 1.469.528 1.182.016 2.367-.018 3.551-.02a15.42 15.42 0 00-2.898-8.761c-2.703 2.49-6.331 3.718-9.929 4.156zM8.454 23.648c1.107.062 2.215-.04 3.322.01.703.077 1.255-.44 1.894-.635 2.857-1.125 6.13-.975 8.93.231.325.157.66.291 1.002.402l.012-.544c.184.073.408.22.597.068.015.12.044.361.057.481a8.995 8.995 0 001.249-.461 30.63 30.63 0 01-.018-.613c-.004-.206.025-.39.041-.584l-.262.008c.196-.068.24-.272.304-.447l-.192.047.315-.136a6.449 6.449 0 00-.2-.696c-.037-.223 0-.498-.21-.643-.352-.313-.657-.68-1.032-.965-.01.751-.06 1.506.035 2.251l-.322.19a29.66 29.66 0 00-.378-.237c.01-.712 0-1.426.015-2.138a32.197 32.197 0 01-3.453-.297c-3.238-.495-6.47-1.662-8.946-3.865a15.432 15.432 0 00-2.76 8.573zm3.732.565c.896 3.384 1.793 6.768 2.72 10.144.545-.38.962-.964 1.581-1.201.37.199.66.514 1.023.722.201-.088.392-.197.57-.326a26.797 26.797 0 01-.473-1.204c1.062-.571 2.176-1.063 3.367-1.308l.218.307c.1-.787.29-1.567.307-2.362a10.657 10.657 0 00-1.269-1.377c.38-.079.762-.136 1.143-.205.613-.061.933-.758 1.583-.712a20.3 20.3 0 01.435-1.266c.362.027.73.083 1.088.02.376-.09.695-.314 1.03-.494.008-.426.012-.85.008-1.276-.544.216-1.058.518-1.604.731-1.462-.791-3.031-1.43-4.695-1.641-2.417-.289-4.945.175-7.031 1.448zm16.79-1.45c.031.927.202 1.85.144 2.776-.16.544-.293 1.224-.85 1.496-.9.545-1.827 1.042-2.74 1.563l-.333-.053c-.213.535-.757.796-1.179 1.141-.272.247-.657.241-.986.36-.272.168-.442.439-.637.68 1.19-.044 2.39-.102 3.57.098.066.439.12.88.167 1.321l.613.136c.263-.38.53-.758.816-1.12 1.037.324 2.036.757 2.982 1.292-.029.445-.108.884-.136 1.329a.241.241 0 00.284.245c.375-.222.707-.512 1.08-.738.309.252.617.506.923.76.906-3.094 1.729-6.212 2.617-9.312.02-.178.188-.446-.024-.564a9.309 9.309 0 00-3.221-1.288c-1.015-.198-2.06-.154-3.09-.122zm-20.513 1.53a15.36 15.36 0 002.928 8.67 18.773 18.773 0 012.386-1.56c-.659-2.345-1.234-4.71-1.914-7.054l-.087-.046c-1.1-.034-2.208-.005-3.313-.01zm27.66.025c-.702 2.398-1.348 4.81-2.028 7.209.819.492 1.61 1.029 2.368 1.609a15.561 15.561 0 003.05-8.848c-1.128.022-2.264-.043-3.389.03zm-14.74 7.355c.153.332.395.56.785.487.073-.416.09-.84.048-1.262-.3.232-.58.492-.832.776zm1.2-.602c-.02.432-.036.866-.054 1.299-.338.062-.68.103-1.023.124-.21-.374-.443-.732-.68-1.088-.98.241-1.927.607-2.816 1.088.136.408.298.8.466 1.195-.338.19-.636.489-1.015.573-.36-.24-.692-.523-1.062-.747-.733.593-1.453 1.224-2.023 1.978.075.29.306.515.457.772.381.629 1.116.877 1.69 1.288 1.099-1.142 2.403-2.11 3.9-2.656a9.827 9.827 0 018.097.533c1.04.532 1.904 1.318 2.729 2.137.51-.125.922-.491 1.368-.755.485-.284.708-.824 1.013-1.269a14.98 14.98 0 00-1.869-1.846c-.366.229-.695.517-1.07.73-.25-.018-.431-.245-.643-.356.039-.465.09-.929.164-1.388a13.768 13.768 0 00-2.53-1.14c-.272.345-.504.728-.789 1.065-.35.038-.697-.113-1.044-.166-.07-.44-.125-.881-.18-1.323a13.25 13.25 0 00-3.08-.048h-.006zm-10.809 2.432c.713.903 1.526 1.72 2.424 2.439-.08-.176-.162-.35-.242-.525.249-.319.773-.595.599-1.074-.191-.765-.409-1.528-.617-2.287-.771.4-1.495.885-2.158 1.447h-.006zm22.14-1.28c-.221.79-.503 1.57-.64 2.383.23.33.52.613.763.934-.076.128-.153.256-.227.385.798-.69 1.579-1.412 2.215-2.259-.65-.544-1.322-1.092-2.105-1.443h-.006zm-11.683 2.74a9.178 9.178 0 00-4.984 2.683c-.22.158.127.44.273.272.439-.367.839-.784 1.323-1.098a8.829 8.829 0 0111.381 1.098c.136.298.636.015.351-.22a9.232 9.232 0 00-8.339-2.734h-.005zm-4.132 2.857a.626.626 0 00-.238.465c.204-.108.394-.24.567-.393a8.208 8.208 0 0111.04.107.815.815 0 00.586.282c-.249-.395-.62-.68-.986-.963a8.412 8.412 0 00-4.86-1.759 8.515 8.515 0 00-6.104 2.255l-.005.006zm.56.606a.409.409 0 00.637.064 7.164 7.164 0 013.294-1.535 2.81 2.81 0 001.013.474c0-.356 0-.71-.019-1.066a7.638 7.638 0 00-4.92 2.058l-.005.005zm5.577-2.04c0 .353 0 .709.015 1.063.356-.117.67-.325 1.013-.474a7.116 7.116 0 013.267 1.55c.193.22.487.09.672-.067-1.368-1.208-3.113-2.038-4.956-2.078l-.011.006zM22.1 37.39a6.919 6.919 0 00-2.629 1.36c1.33.436 2.721.662 4.121.668 0-.533 0-1.066.011-1.6-.496-.13-.945-.63-1.492-.435l-.01.007zm2.16.358a18.1 18.1 0 00-.01 1.68 14.92 14.92 0 003.956-.573c0-.037.018-.112.023-.15-.84-.688-1.86-1.21-2.94-1.368-.327.143-.652.325-1.018.404l-.01.007z" fill="#D4D4D2"/><path d="M26.688 19.031c3.595-.438 7.224-1.666 9.929-4.156a15.42 15.42 0 012.902 8.766c-1.184 0-2.369.036-3.55.02-.545.031-.982-.348-1.47-.528a10.67 10.67 0 00-3.795-.793c-.594-.027-1.187.05-1.78.043-.171-.094-.188-.321-.284-.474a15.425 15.425 0 017.14 1.15c.15-.39.259-.793.324-1.206-.68-.214-1.348-.43-2.04-.582l.303-.287c.408.098.816.206 1.224.319.136-.445.25-.894.353-1.348-1.584-.184-3.187-.408-4.778-.244l.014.044-.028.015-.024-.008c-1.19-.2-2.396.136-3.568.33l-.05.01c-.282-.314-.607-.59-.863-.928a.473.473 0 00.041-.143zM8.455 23.648a15.431 15.431 0 012.763-8.57c2.476 2.204 5.713 3.371 8.946 3.866 1.143.16 2.295.257 3.449.293-.016.712 0 1.427-.015 2.138-2.575-1.496-5.65-1.786-8.569-1.709-1.12.037-2.236.136-3.344.298.104.456.24.904.333 1.36l.05.323c-.176.057-.353.118-.527.178l.323 1.152c3.735-1.42 8.105-1.668 11.754.136l-.012.544a7.78 7.78 0 01-1-.401c-2.803-1.207-6.078-1.36-8.931-.231-.64.194-1.192.711-1.895.635-1.111-.052-2.218.05-3.325-.012zm.008.645c1.104 0 2.211-.024 3.314.01l.087.046c.68 2.338 1.253 4.709 1.912 7.054-.833.459-1.63.98-2.385 1.56a15.36 15.36 0 01-2.928-8.67zm27.662.025c1.124-.072 2.26-.008 3.389-.024a15.562 15.562 0 01-3.05 8.847 25.785 25.785 0 00-2.367-1.609c.68-2.403 1.326-4.816 2.028-7.214zM11.78 33.503a11.579 11.579 0 012.158-1.447c.214.759.426 1.522.617 2.287.174.48-.35.755-.599 1.073l.242.526a15.077 15.077 0 01-2.418-2.44zm10.331 3.88c.544-.194.996.305 1.497.427-.009.535-.01 1.068-.011 1.601a13.427 13.427 0 01-4.117-.668 6.92 6.92 0 012.631-1.36zm2.16.358c.366-.079.691-.261 1.03-.408 1.079.158 2.1.68 2.94 1.368 0 .038-.019.113-.024.15a14.92 14.92 0 01-3.957.574c-.02-.563-.02-1.125.011-1.684zm-.198-15.221c.203-.562.835-.68 1.317-.907l.192-.048c-.064.17-.109.38-.304.448-.317.144-.62.317-.927.48l-.278.027z" fill="#0087C6"/><path d="M22.31 10.479c.292-.121.544-.322.828-.458.248.07.396.311.58.474.52.011 1.04-.008 1.56 0-.154.32-.555.603-.423.993a3.75 3.75 0 001.976.843c-.599.505-1.26.928-1.872 1.416-.257.188-.249.544-.408.804-.186.261-.44.47-.612.744-.084.347-.12.704-.107 1.06.408.621 1.063 1.08 1.243 1.837.762.898 1.768 1.582 2.422 2.575.408.657.876 1.31 1.061 2.071.112.853.169 1.712.17 2.572-.122.493-.242 1.098-.745 1.344-.84.476-1.673.968-2.533 1.408a32.81 32.81 0 01-.45-.11c-.302.082-.189.531-.42.703-.327.281-.68.52-1.034.776a3.292 3.292 0 00-.662.105c-.42.324-.742.756-1.155 1.088.024-.655.169-1.297.252-1.946-.376-.225-.544-.646-.876-.917a5.37 5.37 0 00.795-.192c.291-.136.508-.4.803-.535.303.01.605.038.904.084-.255-.426-.17-.896.009-1.332a2.863 2.863 0 002.272-.787c.055-1.023-.008-2.049.022-3.073-.008-.249.136-.46.242-.68-.21-.438-.223-.944-.434-1.37-.727-.59-1.271-1.353-1.822-2.098-.35-.494-.644-1.08-1.214-1.36-.654-.33-1.411-.767-1.61-1.522.415-.136.837-.24 1.26-.351-.162-.248-.459-.318-.702-.456 0-.265.023-.529.015-.794a4.48 4.48 0 00-1.497.197c-.06-.237-.271-.329-.474-.427-.078-.383.042-.898-.325-1.155-.255-.22-.513-.435-.765-.658.198-.174.369-.396.611-.513.246.079.484.18.713.3.21-.165.415-.336.62-.51.207.092.431.34.667.168.34-.201.74-.226 1.115-.318zm.278 20.591a13.247 13.247 0 013.088.043c.054.442.109.884.18 1.324.346.053.693.204 1.044.165.284-.337.513-.72.789-1.065.881.294 1.73.676 2.535 1.14-.073.46-.125.924-.164 1.389.212.11.394.337.643.355.375-.212.704-.5 1.07-.73a14.974 14.974 0 011.864 1.842c-.305.445-.528.985-1.014 1.27-.446.263-.856.63-1.368.754-.816-.816-1.69-1.605-2.728-2.137a9.829 9.829 0 00-8.096-.529c-1.496.544-2.802 1.514-3.9 2.657-.574-.408-1.309-.66-1.69-1.288-.15-.257-.382-.482-.457-.773.57-.756 1.29-1.384 2.023-1.977.37.224.702.506 1.062.746.38-.084.68-.383 1.015-.572a19.06 19.06 0 01-.466-1.196 11.91 11.91 0 012.816-1.088c.235.356.47.714.68 1.088.343-.02.685-.062 1.023-.124.015-.427.031-.86.052-1.293z" fill="#DC2A27"/><path d="M24.263 19.168c.376.288.68.651 1.033.964.21.145.172.42.21.643-.415.191-.818.406-1.207.644-.096-.746-.047-1.5-.036-2.252zm9.657 13.055c.783.35 1.455.899 2.11 1.443-.636.847-1.416 1.568-2.215 2.26.075-.13.151-.258.227-.386-.242-.32-.532-.605-.763-.934.138-.812.42-1.593.64-2.383z" fill="#0087C6"/><path d="M11.68 19.96a29.638 29.638 0 013.345-.298c2.923-.077 5.998.207 8.569 1.709.126.077.252.156.378.236l.322-.189c.39-.237.792-.452 1.207-.643.08.228.146.46.2.696l-.314.136c-.483.226-1.114.346-1.319.908l.28-.028c-.235.169-.512.23-.75.036.287-.427-.254-.552-.544-.705-3.462-1.496-7.454-1.607-11.043-.502-.091-.453-.226-.9-.33-1.356z" fill="#fff"/><path d="M31.16 19.769l.029-.015.111.272-.544.128c.128-.136.262-.265.404-.385zm-1.83.464a.468.468 0 01.531-.35c-.073.103-.144.205-.215.309l-.315.04zm1.013-.319c.355-.109.198.465-.08.396-.247-.046-.11-.376.08-.396zm2.43 7.595c-.07-.19.136-.506.356-.4.157.182-.161.488-.356.4zm-.71 1.191c.144-.308.46-.164.706-.095 0 .065.014.194.019.257-.231.034-.702.201-.725-.162zm-1.809.784c.066-.23.257-.365.447-.487l.236.256a1.8 1.8 0 01-.683.23zm1.14-.343h.374a.565.565 0 01-.338.457 11.64 11.64 0 01-.036-.457zm-9.157 5.823a9.233 9.233 0 018.345 2.728c.285.234-.212.517-.35.219a8.83 8.83 0 00-11.382-1.098c-.484.315-.884.73-1.323 1.098-.147.174-.494-.107-.273-.272a9.178 9.178 0 014.983-2.675z" fill="#DC2A27"/><path d="M18.105 37.814a8.516 8.516 0 016.108-2.26 8.412 8.412 0 014.86 1.758c.367.28.738.569.987.963a.816.816 0 01-.586-.281 8.209 8.209 0 00-11.04-.108 2.912 2.912 0 01-.568.393.625.625 0 01.239-.465z" fill="#DC2A27"/><path d="M12.014 21.322c3.59-1.106 7.581-.995 11.043.502.29.152.832.271.544.704-3.488-1.933-7.78-2.06-11.538-.884-.01-.08-.037-.242-.049-.322zm16.035-.506c2.095-.325 4.254-.33 6.324.167l-.303.287a15.057 15.057 0 00-5.857-.167 7.783 7.783 0 01-.165-.287z" fill="#0087C6"/><path d="M12.064 21.644c3.758-1.175 8.05-1.048 11.538.884.238.195.515.136.75-.035.305-.163.609-.336.925-.48l.263-.008c-.016.194-.03.387-.04.583-.44.176-.87.374-1.289.593-.19.152-.408 0-.597-.068-3.65-1.806-8.025-1.559-11.754-.136a247.94 247.94 0 00-.324-1.152c.174-.063.351-.124.528-.18z" fill="#fff"/><path d="M28.21 21.103a15.056 15.056 0 015.856.167c.69.152 1.36.367 2.04.582a5.867 5.867 0 01-.324 1.205 15.424 15.424 0 00-7.14-1.15 8.485 8.485 0 01-.432-.804z" fill="#FFFFFD"/><path d="M24.211 23.18c.42-.218.85-.416 1.288-.592 0 .204.01.408.018.613a9.008 9.008 0 01-1.248.461l-.058-.481z" fill="#0087C6"/><path d="M31.878 27.714c.153-.224.343-.42.562-.58.144.394-.175.677-.562.58z" fill="#C75A5E"/><path d="M21.384 31.674a6.11 6.11 0 01.832-.776c.041.421.025.846-.047 1.262-.385.073-.628-.155-.785-.486z" fill="#FFFEFE"/><path d="M18.663 38.421a7.638 7.638 0 014.925-2.063c.015.355.02.71.02 1.066a2.818 2.818 0 01-1.014-.475 7.164 7.164 0 00-3.294 1.536.408.408 0 01-.637-.064zm5.584-2.041c1.843.04 3.588.87 4.956 2.075-.185.158-.479.287-.672.068a7.115 7.115 0 00-3.256-1.554c-.343.148-.657.356-1.013.473-.01-.354-.015-.71-.015-1.062z" fill="#DC2A27"/><path d="M24.051 11.853l.231.468.516.075-.373.363.087.514-.46-.242-.462.242.088-.514-.372-.364.515-.074.23-.468z" fill="#F5E50D"/><path d="M10.918 11.975c-.055-.418-.287-.798-.693-1.133a1.795 1.795 0 00-1.12-.443c-.047 0-.094 0-.135.007a1.59 1.59 0 00-1.106.625c-.154.187-.27.4-.344.631a1.266 1.266 0 00-.038.544c.019.186.074.367.162.532.132.252.318.473.544.646.306.27.697.424 1.106.435h.136c.263-.024.515-.118.73-.272l.665.544.645-.787-.665-.544a1.47 1.47 0 00.113-.785zm-1.133.607a.484.484 0 01-.387.197h-.024a.886.886 0 01-.53-.24.862.862 0 01-.35-.495.493.493 0 01.12-.408.485.485 0 01.382-.204h.02c.2.018.387.104.53.244.096.073.18.161.248.261.05.07.086.15.103.234a.494.494 0 01-.112.41zm5.9-7.525l.987 2.56-1.472-.78.497-1.859-1.253.7-.292 1.195-.435-.792-.924.505 1.627 2.922.91-.508-.487-.878.07-.26 1.2.708.763-.423.011.032.973-.38-1.193-3.117-.983.375zm-2.837 4.061l-.985.4.107.225c.069.116.1.25.09.384a.336.336 0 01-.124.215.396.396 0 01-.35.095c-.135-.023-.318-.16-.507-.388-.176-.208-.272-.394-.272-.534a.435.435 0 01.162-.338.441.441 0 01.248-.102.419.419 0 01.24.093l.19.136.632-.854-.203-.136a1.377 1.377 0 00-.68-.257h-.079c-.347.004-.68.135-.938.368a1.52 1.52 0 00-.575 1.098c-.02.423.143.843.485 1.248a1.582 1.582 0 001.306.68c.355 0 .697-.131.963-.367a1.43 1.43 0 00.513-.787 1.485 1.485 0 00-.128-.965l-.095-.214zM6.863 20.61l.992.24.246-.985-.988-.246-.25.99zm-.691-6.946l.974.568-.333.575-.974-.562-.526.9L8.2 16.819l.528-.905-1.09-.627.334-.579 1.09.627.524-.907-2.895-1.673-.52.91zm.593 8.766v-.017a1.653 1.653 0 00-.223-.494v-.008h-.007a1.547 1.547 0 00-.53-.399 2.175 2.175 0 00-.703-.174 3.019 3.019 0 00-.272-.012 2.135 2.135 0 00-.493.053 1.487 1.487 0 00-.587.279 1.313 1.313 0 00-.392.548l-.012.027-.008.043a.38.38 0 00-.03.107v.05c-.014.068-.022.148-.034.246l-.01.088-.111 1.291 1.245.102-.03.298.833.075.028-.3 1.25.112.116-1.325.01-.167V22.7l-.01-.136-.03-.133zm-.94.59l-.016.198-.298-.027.053-.613-.828-.072-.056.61-.296-.026v-.02l.04-.327v-.015a.16.16 0 010-.037l.02-.064a.373.373 0 01.11-.152.41.41 0 01.176-.078 2.044 2.044 0 01.438 0c.19.005.375.051.544.137.05.032.087.08.105.136.022.115.024.234.008.35z" fill="#D4D4D2"/><path d="M6.624 19.642l.69-.082.194-.77.024.007.338-.991-3.153-1.088-.343.998 2.462.847-2.809.377-.23.903 2.934 2.072.272-1.088-.58-.39.2-.795zm-1.04.23l-.135-.09.16-.018-.024.108zM18.64 4.027l.342 1.273-1.122-1.065-.902.24.868 3.227.975-.26-.335-1.24 1.1 1.032.906-.244-.858-3.227-.974.264zM41.277 18.43h.068c.23-.02.454-.076.666-.165.24-.09.464-.22.66-.384.167-.138.3-.312.392-.508.088-.192.123-.405.1-.616a2.043 2.043 0 00-.168-.593l-.486-1.198-3.098 1.254.502 1.236.02.045a1.801 1.801 0 00.117.239.945.945 0 00.074.12c.013.025.028.044.039.06l.015.02.01.015.012.015c.121.148.275.267.448.347.2.081.414.12.629.113zm.741-2.14l.01.026c.059.132.104.268.136.408a.286.286 0 01-.015.17.457.457 0 01-.136.166 1.457 1.457 0 01-.388.203 1.592 1.592 0 01-.445.127h-.062a.318.318 0 01-.117-.018.313.313 0 01-.116-.102l-.008-.011a.099.099 0 01-.015-.02l-.008-.011-.008-.02v-.012l-.087-.189-.075-.185 1.334-.531zm-2.844-5.604a1.61 1.61 0 00-.038-.386l.157.161.107-.553.228.246 1.605.136-.944-.983-.8.136.045-.23-.522-.544-1.268.183.166.176a1.422 1.422 0 00-.345-.041c-.186-.002-.37.03-.544.095a2.065 2.065 0 00-.706.47c-.34.3-.548.722-.578 1.175a1.606 1.606 0 00.487 1.177 1.578 1.578 0 001.157.525 1.984 1.984 0 001.797-1.745l-.004.002zm-1.317.417c-.09.087-.193.161-.303.22a.587.587 0 01-.245.073h-.022a.517.517 0 01-.374-.16.492.492 0 01-.147-.407v-.013c0-.158.11-.33.301-.517a.855.855 0 01.53-.287h.022a.558.558 0 01.544.569.884.884 0 01-.306.522z" fill="#D4D4D2"/><path d="M43.22 23.127l1.238-.92-.079-.927-2.629.23 2.152-1.555.136.559.844-.973-.185-.725-1.192-.471.129.522-3.301-.42.272 1.088.68.072.198.8-.572.397.193.764h-.063l.089 1.001 1.277-.109-1.208.9.082.94 3.324-.284-.083-1.008-1.302.119zm-.757-3.4l-.136.088-.026-.105.162.016zm-2.403-5.139l-.34-1.012-.232.098a.78.78 0 01-.296.07.325.325 0 01-.287-.154.396.396 0 01-.08-.343c.038-.136.186-.309.428-.484.262-.19.427-.23.518-.23h.04a.415.415 0 01.322.19.373.373 0 01.084.24.353.353 0 01-.107.228l-.165.173.826.706.15-.197c.158-.191.261-.421.3-.665a1.456 1.456 0 00-.29-1.045 1.516 1.516 0 00-1.232-.653c-.402.014-.79.157-1.104.408a1.699 1.699 0 00-.746 1.072 1.582 1.582 0 001.031 1.74c.12.036.243.054.367.054.208-.004.413-.046.606-.124l.208-.072zM37.1 8.003l-.86-.602-1.047 1.496a2.49 2.49 0 01-.272.341.185.185 0 01-.12.056.384.384 0 01-.213-.09.408.408 0 01-.16-.194.195.195 0 01.006-.154v-.02c.02-.05.15-.238.227-.35L35.69 7.02l-.851-.592-1.008 1.442c-.156.212-.29.44-.4.68-.027.07-.046.144-.057.219l-.1-.108a2.225 2.225 0 01-.142-.174l.024-.015c.076-.05.148-.106.217-.166.087-.082.165-.173.232-.272.078-.104.146-.216.203-.334.238-.465.302-.908.185-1.32a1.587 1.587 0 00-.849-.952c-.245-.13-.517-.2-.794-.205a1.45 1.45 0 00-.477.082 1.748 1.748 0 00-.96.915c-.243.475-.301.92-.178 1.325a1.59 1.59 0 00.863.952c.18.094.373.157.574.187l.168.297.01.015c.063.097.14.185.227.261l.136.12.646-.461v.099c.021.174.08.341.172.49.14.198.317.367.519.5.173.128.37.22.578.272.089.023.18.035.272.036a.99.99 0 00.256-.033c.167-.046.321-.132.447-.252a3.82 3.82 0 00.489-.608L37.1 8.003zm-4.237-.786a1.352 1.352 0 01-.249.336 2.237 2.237 0 00-.272-.343l-.144-.152-.445.335a.688.688 0 01-.027-.08.915.915 0 01.128-.603c.126-.24.262-.39.416-.446a.46.46 0 01.18-.038.559.559 0 01.248.064.502.502 0 01.28.33.907.907 0 01-.115.597zM21.845 3.428l.14 1.124-.665.08-.136-1.122-1.04.129.407 3.316 1.04-.127-.154-1.247.662-.08.155 1.25 1.04-.137-.41-3.307-1.04.121zm5.286.067L24.389 3.3l-.067.956.852.057-.166 2.38 1.043.071.17-2.38.85.059.061-.948zm2.462.398l.351.087 1.427-.764-1.329-.308-.62.568-.114-.278-.732-.17-.736.654-.371-.085-.75 3.253 2.586.599.214-.932-1.564-.358.072-.305 1.4.324.22-.929-1.407-.322.037-.163 1.51.348.212-.933-.319-.074-.087-.212zM23.501 45.87a21.45 21.45 0 01-6.957-1.153l-.238-.082 1.612-3.842.205.067a17.387 17.387 0 0011.916-.423l.232-.094 1.439 3.898-.308.13a21.412 21.412 0 01-7.897 1.495l-.004.004z" fill="#D4D4D2"/><path d="M23.968.834A23.49 23.49 0 00.528 24.276a23.486 23.486 0 0023.44 23.44A23.474 23.474 0 0047.41 24.28 23.481 23.481 0 0023.968.834zm0-.525a24.009 24.009 0 0123.965 23.964 24.013 24.013 0 01-23.965 23.974A24.016 24.016 0 010 24.279 24.015 24.015 0 0123.968.307v.002z" fill="#D4D4D2"/><path fill-rule="evenodd" clip-rule="evenodd" d="M41.307 21.783l2.856-.25.048.564-1.799 1.331 1.905-.17.043.544-2.856.245-.05-.578 1.768-1.314-1.866.16-.05-.532zm2.532-3.054l.66.261.124.49-.464.536-.105-.43.23-.291-.339-.136-.106-.43zm-1.646 1.475l.939-.641-1.126-.116.187.757zm-.843 1.31l-.154-.615.572-.396-.272-1.117-.689-.072-.15-.592 3.06.39.144.592-2.51 1.81zm.804-5.53l-1.768.712.162.408.087.189a.36.36 0 00.072.125.544.544 0 00.194.162c.099.04.206.054.312.038a1.83 1.83 0 00.511-.143c.16-.057.311-.138.448-.24a.688.688 0 00.197-.259.524.524 0 00.027-.302 2.503 2.503 0 00-.15-.451l-.092-.238zm.233-.715l.397.982c.076.167.128.343.152.525a.943.943 0 01-.081.5 1.226 1.226 0 01-.328.424 2.015 2.015 0 01-.595.345c-.191.08-.394.13-.6.15a1.36 1.36 0 01-.583-.097 1.065 1.065 0 01-.367-.288.726.726 0 01-.055-.085.57.57 0 01-.066-.106.92.92 0 01-.062-.12 2.23 2.23 0 01-.065-.145l-.408-1.012 2.66-1.073zm-2.8-1.385l.187.56a1.138 1.138 0 01-1.453-.42 1.248 1.248 0 01-.234-.99 1.468 1.468 0 01.649-.922c.384-.281.755-.408 1.118-.356a1.286 1.286 0 01.895.544c.192.25.28.564.246.877-.035.2-.122.389-.253.544l-.453-.375c.1-.1.16-.233.169-.374a.617.617 0 00-.136-.396.644.644 0 00-.491-.28c-.203-.023-.44.073-.714.272-.295.213-.465.416-.518.613a.637.637 0 00.12.544c.08.12.204.204.345.234a.887.887 0 00.515-.075h.007zm.158-3.956l-.234-.254.702-.116.427.443-.895-.073zm-1.51-.907l.7-.102.348.364-.136.693-.308-.317.05-.369-.36.052-.295-.321zm-1.324 1.114c-.234.225-.362.451-.372.68a.721.721 0 00.211.586.751.751 0 00.574.234.857.857 0 00.342-.097c.13-.07.25-.157.357-.258.2-.171.332-.406.376-.665a.79.79 0 00-.803-.829c-.231.003-.455.122-.692.349h.007zm-.431-.408c.177-.18.39-.322.624-.418.15-.056.31-.083.47-.08.151-.002.302.027.443.085.19.09.364.214.51.366a1.342 1.342 0 01.419 1.004 1.468 1.468 0 01-.519 1.033c-.333.326-.68.485-1.043.485a1.337 1.337 0 01-.989-.454 1.36 1.36 0 01-.42-1.007c.026-.392.204-.758.498-1.02l.007.006zm-1.577-2.972l.478.33-.893 1.273a2.703 2.703 0 00-.257.408.429.429 0 00-.013.33.619.619 0 00.247.31.61.61 0 00.357.136.438.438 0 00.272-.123 2.7 2.7 0 00.297-.377l.913-1.304.475.333-.867 1.235a3.704 3.704 0 01-.453.569.795.795 0 01-.766.199 1.429 1.429 0 01-.498-.244 1.715 1.715 0 01-.459-.435.968.968 0 01-.136-.388.874.874 0 01.053-.362 3.54 3.54 0 01.373-.63l.877-1.26zm-2.366 1.129a.816.816 0 00.29-.206 1.6 1.6 0 00.25-.35c.135-.23.185-.502.14-.765a.742.742 0 00-.408-.483.73.73 0 00-.625-.034c-.208.076-.383.272-.534.556-.14.23-.192.502-.147.768a.74.74 0 00.616.55 1.916 1.916 0 00-.238-.326l.295-.223a2.1 2.1 0 01.36.513zm.272.504c.082.155.185.299.304.427l-.372.272a1.006 1.006 0 01-.185-.213l-.229-.408a1.511 1.511 0 01-.61-.174 1.36 1.36 0 01-.746-.816c-.106-.346-.053-.727.162-1.15.16-.366.458-.654.83-.8a1.526 1.526 0 011.818.92c.097.344.044.725-.17 1.143a2.142 2.142 0 01-.182.301 1.52 1.52 0 01-.204.237c-.06.051-.122.1-.188.143a1.791 1.791 0 01-.24.118h.012zM29.925 3.73l-.332-.083.528-.483.601.136-.797.43zm-1.802.026l.53-.472.496.114.272.653-.436-.1-.152-.335-.272.235-.438-.095zm-1.111 2.919l.628-2.797 2.074.476-.108.475-1.51-.347-.136.62 1.405.323-.113.472-1.4-.324-.18.761 1.565.365-.107.473-2.118-.497zm-1.742-.202l.166-2.379-.852-.057.034-.487 2.265.157-.032.481-.848-.058-.17 2.379-.563-.036zm-4.515.226l-.35-2.856.575-.071.136 1.12 1.133-.135-.136-1.122.572-.067.351 2.844-.572.076-.157-1.247-1.126.136.154 1.247-.58.075zm-2.763.72l-.747-2.772.544-.147 1.632 1.548-.495-1.852.52-.136.738 2.774-.553.137-1.607-1.504.488 1.807-.52.144zm-.969.46l-1.035-2.682.544-.206 1.026 2.68-.535.209zM14.51 9.194L13.114 6.68l.51-.272.614 1.114.408-1.683.68-.378-.408 1.496 1.85.98-.658.364-1.349-.797-.175.649.419.756-.495.285zm-2.33.455l.544-.223c.128.251.168.539.113.816a1.183 1.183 0 01-.434.66 1.21 1.21 0 01-.97.305 1.457 1.457 0 01-.968-.58c-.308-.364-.45-.727-.431-1.088a1.267 1.267 0 01.49-.93 1.18 1.18 0 01.853-.312c.205.02.4.096.565.217l-.348.471a.649.649 0 00-.387-.136.68.68 0 00-.638.666c0 .203.106.437.325.694.232.28.447.435.648.467a.629.629 0 00.544-.146.579.579 0 00.205-.367.885.885 0 00-.111-.52v.006zm-1.393 4.11l-.428-.35.347-.425.43.35-.349.425zm-2.09-1.035c.194.182.448.285.714.291a.713.713 0 00.557-.286.738.738 0 00.162-.598.816.816 0 00-.136-.322 1.386 1.386 0 00-.305-.324 1.06 1.06 0 00-.701-.29.712.712 0 00-.553.29.726.726 0 00-.171.6c.033.221.178.432.433.639zm-.364.477a1.743 1.743 0 01-.485-.57 1.224 1.224 0 01-.136-.451 1.054 1.054 0 01.028-.45c.067-.199.169-.383.302-.544a1.35 1.35 0 01.946-.544c.364-.037.73.096 1.088.386.357.29.557.62.605.98a1.36 1.36 0 01-.33 1.033 1.343 1.343 0 01-.953.544 1.468 1.468 0 01-1.065-.384zm-.216 3.292L5.634 15.06l.29-.496.973.561.569-.979-.976-.569.287-.503 2.49 1.438-.29.5-1.088-.627-.567.985 1.088.627-.293.494zm-.73 2.002l-2.72-.934.187-.544 2.711.93-.178.548zm.296 2.067l-.534-.136.136-.534.533.136-.135.534zm-1.768-1.073l-1.125.132.942.635.183-.767zm1.36-.76l-.15.62-.69.08-.272 1.116.574.389-.151.591-2.52-1.78.15-.593 3.06-.423zm-3.15 4.566l.762.066.056-.609.361.031-.053.611.769.07.034-.434c.019-.14.015-.282-.011-.42a.5.5 0 00-.192-.273 1.457 1.457 0 00-.66-.18 2.276 2.276 0 00-.501 0 .68.68 0 00-.287.127.604.604 0 00-.18.255l-.026.084a.417.417 0 00-.01.095l-.041.313-.02.264zm-.53.542l.09-1.055c.017-.146.028-.25.044-.324v-.049a.294.294 0 01.024-.07l.008-.043c.007-.015.012-.038.026-.064.068-.155.171-.291.302-.4.145-.112.314-.191.495-.23.223-.049.452-.061.68-.037.216.017.428.069.627.155.172.079.326.194.45.337.084.13.148.274.188.424l.013.097.01.125v.136l-.01.16-.095 1.089-1.247-.112-.029.3-.364-.033.028-.3-1.24-.106z" fill="#0087C6"/><path d="M16.623 44.5a21.251 21.251 0 006.883 1.142 21.217 21.217 0 007.806-1.484l-1.183-3.493a17.553 17.553 0 01-6.622 1.292c-1.851.002-3.69-.29-5.45-.863L16.623 44.5z" fill="#0087C6"/><path fill-rule="evenodd" clip-rule="evenodd" d="M17.62 44.267l.728.136.36-1.838 1.956 2.292.769.152.495-2.514-.709-.136-.252 1.292-1.36-1.61-1.489-.29-.498 2.516zm4.988.731h3.183v-.352h-1.784v-.785h1.619v-.352h-1.619v-.74h1.718v-.345h-3.117v2.575zm3.831-2.7l.295 1.608a.84.84 0 00.154.368.777.777 0 00.426.272c.233.054.472.077.711.066.276-.003.551-.03.823-.079 1.262-.236 1.83-.68 1.712-1.326l-.297-1.607-.698.136.272 1.496c.049.272 0 .466-.136.596-.183.13-.396.213-.619.242-.36.068-.619.042-.783-.077a.667.667 0 01-.22-.436l-.278-1.503-1.362.245z" fill="#fff"/><path fill-rule="evenodd" clip-rule="evenodd" d="M16.105 41.987l-.02-.008a2.737 2.737 0 00-.385-1.382c-.292-.51-.654-.768-1.104-.79l-.146-.008-.01.016a1.173 1.173 0 00-.846-.544l-.117-.015a1.153 1.153 0 00-.822-.632l-.089-.017a1.154 1.154 0 00-.778-.724l-.1-.026c-.135-.408-.372-.66-.706-.78l-.127-.045c-.105-.408-.313-.68-.634-.816l-.136-.06-.013.013c-.072-.408-.255-.693-.56-.861l-.127-.07-.042.029c-.04-.416-.197-.714-.483-.906l-.124-.083-.072.044c0-.42-.136-.73-.418-.943l-.114-.088-.085.04a1.15 1.15 0 00-.345-.977l-.108-.1-.104.041a1.15 1.15 0 00-.272-1.002l-.1-.108-.105.033a1.149 1.149 0 00-.204-1.021l-.091-.113-.078.017a1.201 1.201 0 00-.136-1.039l-.083-.122H6.4a1.21 1.21 0 00-.081-1.058l-.076-.124-.144.012c-.335.027-.802.226-1.143.998l-.007-.012c.17-.45.217-.937.136-1.412-.09-.58-.333-.952-.745-1.135l-.136-.059-.113.093c-.263.216-.536.655-.355 1.515.044.202.125.394.24.567a1.227 1.227 0 00-.74-.265c-.063 0-.127.005-.191.015l-.145.024-.043.136c-.085.291-.081.737.368 1.272h-.01l-.033.143c-.066.294-.032.737.46 1.24h-.01l-.024.144c-.065.408.136.835.56 1.2l-.03.01-.01.148c-.033.408.198.816.651 1.142l-.038.018v.147c0 .415.26.797.743 1.088l-.064.037.012.147c.023.293.19.701.832 1.016l-.074.051.023.146c.047.29.245.68.904.94l-.095.081.035.136c.098.393.446.694.98.856l-.105.103.046.136c.093.272.348.62 1.031.775l-.007.008-.092.11.054.135c.155.378.544.622 1.082.7l-.017.02-.085.118.068.13c.136.254.435.557 1.118.617l-.009.01-.079.126.08.125c.149.242.471.528 1.146.544l-.068.128.087.12c.158.214.479.472 1.109.472h.066l-.045.096.095.113a1.255 1.255 0 001.012.417c.168 0 .335-.019.5-.053.588-.116.96-.518 1.188-.816l.193-.244-.299-.1zM44.88 29.66l-.033-.144h-.011c.453-.537.453-.982.364-1.273l-.042-.136-.136-.024a1.132 1.132 0 00-.201-.018c-.265.005-.52.096-.728.26a1.71 1.71 0 00.227-.558c.18-.858-.095-1.299-.356-1.516l-.113-.096-.136.062c-.408.185-.649.556-.743 1.135-.068.402-.045.814.066 1.206h-.04c-.334-.595-.742-.758-1.041-.783l-.147-.012-.075.127a1.224 1.224 0 00-.08 1.052h-.013l-.084.124a1.202 1.202 0 00-.145 1.04l-.074-.017-.091.113a1.16 1.16 0 00-.208 1.021l-.104-.032-.1.108a1.155 1.155 0 00-.272 1.002l-.105-.041-.107.099a1.14 1.14 0 00-.34.98l-.092-.043-.114.089a1.116 1.116 0 00-.408.937l-.065-.039-.124.082a1.134 1.134 0 00-.488.907l-.041-.03-.13.071a1.132 1.132 0 00-.56.861l-.013-.01-.136.058c-.317.136-.525.408-.631.816l-.124.043c-.339.119-.573.374-.71.778l-.106.027a1.18 1.18 0 00-.773.725l-.092.017a1.167 1.167 0 00-.816.632l-.117.015a1.184 1.184 0 00-.845.544l-.01-.018-.145.009c-.451.021-.816.28-1.1.788a2.72 2.72 0 00-.39 1.384l-.018.008-.284.117.176.24a2.04 2.04 0 001.193.817c.16.031.323.047.486.049.56 0 .866-.229 1.023-.42l.092-.114-.044-.096h.069c.63 0 .952-.258 1.105-.475l.086-.118-.068-.127c.68-.014 1.004-.297 1.15-.544l.077-.123-.076-.123-.014-.019c.69-.058.991-.363 1.122-.62l.065-.127-.083-.115c0-.007-.01-.011-.013-.018.68-.102.965-.432 1.078-.702l.057-.136-.093-.11h-.007c.68-.155.937-.504 1.03-.78l.048-.135-.104-.1c.68-.202.9-.572.972-.855l.035-.136-.095-.08c.665-.26.864-.652.912-.941l.023-.146-.076-.053c.642-.314.806-.724.827-1.016l.01-.144-.062-.037c.481-.285.745-.666.745-1.088v-.148l-.04-.02c.455-.328.68-.731.65-1.143l-.011-.143-.033-.014c.544-.46.613-.903.569-1.2l-.022-.149h-.008c.482-.506.516-.941.45-1.239z" fill="#D4D4D2"/><path fill-rule="evenodd" clip-rule="evenodd" d="M32.038 42.205a2.5 2.5 0 011.373-.16c.479.073.801.25.96.6-.238.292-.67.408-1.284.29-.465-.098-.787-.39-1.05-.73z" fill="#F5E50D"/><path fill-rule="evenodd" clip-rule="evenodd" d="M33.3 41.697a2.418 2.418 0 011.318-.243c.468.037.79.188.967.52-.21.295-.623.435-1.224.357-.452-.062-.78-.325-1.061-.634z" fill="#F5E50D"/><path fill-rule="evenodd" clip-rule="evenodd" d="M34.514 41.084c.383-.22.818-.33 1.258-.32.453 0 .779.137.972.443-.183.296-.569.458-1.16.423-.447-.028-.78-.263-1.07-.544m1.151-.7a2.336 2.336 0 011.202-.408c.444-.024.773.073.978.36-.156.306-.524.492-1.1.503-.433 0-.776-.203-1.08-.453m1.088-.774a2.26 2.26 0 011.144-.488c.432-.061.759.01.983.272-.136.313-.473.526-1.035.578-.426.035-.775-.136-1.088-.362m1.028-.857c.301-.29.679-.487 1.088-.57.427-.095.746-.049.995.19-.108.316-.428.545-.973.648-.408.07-.772-.072-1.106-.272m.961-.907c.277-.312.635-.54 1.035-.657.408-.125.729-.108.988.114-.079.318-.374.578-.91.716-.408.103-.768-.007-1.112-.173zm.898-.984c.246-.332.584-.586.97-.732.398-.16.726-.17 1.003.025-.053.33-.328.612-.851.794-.392.136-.765.055-1.123-.087zm.824-1.025c.221-.352.538-.635.912-.816.386-.194.717-.232 1.01-.056-.025.333-.273.64-.784.865-.388.171-.77.122-1.138.01" fill="#F5E50D"/><path fill-rule="evenodd" clip-rule="evenodd" d="M41.218 34.754c.195-.374.49-.686.854-.9.377-.229.705-.287 1.015-.136 0 .337-.227.67-.725.933-.371.204-.763.188-1.144.106" fill="#F5E50D"/><path fill-rule="evenodd" clip-rule="evenodd" d="M41.88 33.63a2.35 2.35 0 01.8-.985c.358-.259.689-.35 1.018-.215.028.341-.178.697-.663 1.008-.364.236-.763.246-1.156.191z" fill="#F5E50D"/><path fill-rule="evenodd" clip-rule="evenodd" d="M42.455 32.453c.142-.419.4-.79.742-1.07.35-.289.68-.407 1.027-.302.053.352-.136.73-.607 1.088-.35.272-.757.315-1.162.29" fill="#F5E50D"/><path fill-rule="evenodd" clip-rule="evenodd" d="M42.936 31.242c.115-.437.351-.833.68-1.143.341-.331.666-.472 1.035-.387.082.355-.087.758-.544 1.156-.344.3-.762.373-1.176.374" fill="#F5E50D"/><path fill-rule="evenodd" clip-rule="evenodd" d="M43.312 30.002a2.5 2.5 0 01.63-1.224c.324-.362.655-.53 1.034-.463.11.355-.031.78-.477 1.224-.333.335-.758.436-1.188.468M32.202 42.046a2.48 2.48 0 01.358-1.332c.237-.419.525-.654.91-.673.182.326.136.771-.204 1.299-.255.393-.649.586-1.064.706z" fill="#F5E50D"/><path fill-rule="evenodd" clip-rule="evenodd" d="M33.392 41.532c-.04-.453.047-.908.253-1.313.21-.42.47-.666.84-.711.2.306.179.74-.114 1.269-.223.4-.59.61-.979.755z" fill="#F5E50D"/><path fill-rule="evenodd" clip-rule="evenodd" d="M34.514 40.894a2.374 2.374 0 01.155-1.287c.176-.427.408-.68.768-.748.21.283.224.699-.025 1.238-.19.4-.528.627-.898.797z" fill="#F5E50D"/><path fill-rule="evenodd" clip-rule="evenodd" d="M35.572 40.158a2.357 2.357 0 01.058-1.268c.142-.423.35-.69.69-.78.228.26.273.666.067 1.203-.154.408-.469.654-.816.845" fill="#F5E50D"/><path fill-rule="evenodd" clip-rule="evenodd" d="M36.576 39.362a2.237 2.237 0 01-.04-1.246c.099-.42.284-.697.617-.816.24.237.316.634.152 1.175-.12.408-.408.672-.729.886" fill="#F5E50D"/><path fill-rule="evenodd" clip-rule="evenodd" d="M37.521 38.504a2.206 2.206 0 01-.136-1.224c.068-.425.225-.713.544-.853.26.215.36.601.252 1.147-.09.408-.354.69-.656.925" fill="#F5E50D"/><path fill-rule="evenodd" clip-rule="evenodd" d="M38.415 37.602a2.183 2.183 0 01-.23-1.194c.033-.431.164-.726.466-.892.272.192.408.57.333 1.115-.045.408-.286.713-.569.971z" fill="#F5E50D"/><path fill-rule="evenodd" clip-rule="evenodd" d="M39.261 36.658a2.257 2.257 0 01-.328-1.173c0-.43.106-.736.392-.927.283.17.45.532.426 1.082-.017.416-.227.737-.49 1.018z" fill="#F5E50D"/><path fill-rule="evenodd" clip-rule="evenodd" d="M40.054 35.67a2.207 2.207 0 01-.427-1.153c-.04-.43.043-.742.317-.952.3.136.492.49.517 1.05.015.418-.17.755-.408 1.056m.738-1.023a2.225 2.225 0 01-.526-1.127c-.078-.433-.015-.757.24-.992.315.122.536.457.608 1.017.05.42-.111.78-.322 1.102zm.664-1.058a2.367 2.367 0 01-.623-1.106c-.112-.428-.07-.767.173-1.028.327.102.584.426.699.985.081.424-.053.802-.25 1.15z" fill="#F5E50D"/><path fill-rule="evenodd" clip-rule="evenodd" d="M42.048 32.488a2.332 2.332 0 01-.72-1.08c-.144-.428-.136-.78.097-1.06.344.074.627.387.785.951.12.428.01.817-.162 1.187" fill="#F5E50D"/><path fill-rule="evenodd" clip-rule="evenodd" d="M42.54 31.352a2.502 2.502 0 01-.816-1.056c-.18-.429-.19-.788.023-1.1.358.056.674.358.874.925.156.428.07.845-.08 1.231z" fill="#F5E50D"/><path fill-rule="evenodd" clip-rule="evenodd" d="M42.906 30.177a2.46 2.46 0 01-.915-1.032c-.22-.437-.255-.804-.059-1.136.377.032.72.32.971.891.184.435.136.865 0 1.277m.447-1.42a2.487 2.487 0 01-.15-1.372c.077-.478.26-.8.608-.952.29.243.408.68.272 1.29-.098.462-.39.78-.735 1.041M16.018 42.205a2.503 2.503 0 00-1.372-.16c-.482.073-.803.25-.963.6.24.291.67.408 1.285.285.46-.093.782-.385 1.05-.725z" fill="#F5E50D"/><path fill-rule="evenodd" clip-rule="evenodd" d="M14.75 41.697a2.403 2.403 0 00-1.316-.243c-.47.037-.792.188-.969.52.215.295.625.435 1.224.359.456-.064.781-.327 1.061-.636z" fill="#F5E50D"/><path fill-rule="evenodd" clip-rule="evenodd" d="M13.54 41.084a2.42 2.42 0 00-1.254-.32c-.458 0-.78.136-.977.437.188.302.574.464 1.156.428.447-.027.785-.262 1.075-.544m-1.155-.699a2.297 2.297 0 00-1.2-.408c-.439-.03-.767.072-.977.36.16.306.522.492 1.099.503.43 0 .777-.203 1.078-.453m-1.092-.774a2.237 2.237 0 00-1.14-.488c-.434-.061-.759 0-.983.272.136.313.473.526 1.03.574.424.04.779-.136 1.089-.358m-1.022-.857c-.3-.29-.678-.488-1.088-.57-.421-.095-.742-.049-.988.193.106.313.427.544.973.645.408.072.773-.072 1.103-.272m-.967-.907a2.199 2.199 0 00-1.028-.657c-.408-.125-.733-.108-.996.114.08.318.379.578.91.715.38.082.776.02 1.113-.172zm-.893-.984a2.21 2.21 0 00-.973-.731c-.4-.16-.72-.169-1 .024.055.33.326.612.85.794.391.137.766.055 1.123-.087zm-.827-1.025a2.215 2.215 0 00-.91-.816c-.392-.192-.714-.23-1.013-.055.027.333.281.64.789.865.383.172.767.123 1.134.011" fill="#F5E50D"/><path fill-rule="evenodd" clip-rule="evenodd" d="M6.83 34.754a2.196 2.196 0 00-.859-.9c-.369-.229-.698-.287-1.01-.136 0 .337.23.67.723.933.374.204.764.188 1.147.106" fill="#F5E50D"/><path fill-rule="evenodd" clip-rule="evenodd" d="M6.17 33.63a2.284 2.284 0 00-.799-.985c-.362-.259-.68-.346-1.017-.215-.028.341.18.697.663 1.008.366.236.76.246 1.152.191z" fill="#F5E50D"/><path fill-rule="evenodd" clip-rule="evenodd" d="M5.598 32.453a2.382 2.382 0 00-.745-1.07c-.347-.291-.68-.407-1.022-.298-.055.348.136.726.599 1.078.356.272.764.313 1.168.29z" fill="#F5E50D"/><path fill-rule="evenodd" clip-rule="evenodd" d="M5.117 31.242a2.387 2.387 0 00-.68-1.143c-.338-.331-.668-.472-1.029-.387-.078.355.085.758.538 1.156.35.3.759.37 1.176.374" fill="#F5E50D"/><path fill-rule="evenodd" clip-rule="evenodd" d="M4.742 30.002c-.09-.46-.31-.884-.633-1.224-.324-.356-.65-.525-1.034-.462-.104.355.032.779.476 1.224.336.334.76.435 1.19.468M15.85 42.046c.01-.469-.113-.93-.354-1.332-.24-.419-.527-.654-.913-.673-.182.326-.136.771.207 1.299.255.393.646.586 1.06.706zm-1.193-.514a2.361 2.361 0 00-.253-1.313c-.203-.42-.466-.666-.838-.711-.196.306-.178.74.117 1.269.219.4.589.61.974.755z" fill="#F5E50D"/><path fill-rule="evenodd" clip-rule="evenodd" d="M13.54 40.894c.07-.436.015-.882-.16-1.287-.17-.427-.407-.68-.768-.748-.207.281-.219.699.03 1.238.188.4.53.627.898.797z" fill="#F5E50D"/><path fill-rule="evenodd" clip-rule="evenodd" d="M12.483 40.158a2.313 2.313 0 00-.064-1.272c-.136-.419-.345-.68-.69-.776-.224.26-.271.666-.065 1.203.155.408.474.654.816.845" fill="#F5E50D"/><path fill-rule="evenodd" clip-rule="evenodd" d="M11.478 39.362c.13-.403.143-.835.04-1.246-.103-.424-.289-.697-.615-.816-.241.237-.313.634-.154 1.175.115.408.408.672.729.886" fill="#F5E50D"/><path fill-rule="evenodd" clip-rule="evenodd" d="M10.534 38.504a2.28 2.28 0 00.136-1.224c-.067-.425-.229-.713-.544-.853-.256.215-.356.601-.249 1.147.097.379.33.708.657.925" fill="#F5E50D"/><path fill-rule="evenodd" clip-rule="evenodd" d="M9.638 37.602a2.24 2.24 0 00.23-1.194c-.032-.431-.166-.726-.465-.892-.272.192-.408.57-.34 1.115.054.408.288.713.575.971z" fill="#F5E50D"/><path fill-rule="evenodd" clip-rule="evenodd" d="M8.79 36.658c.217-.352.332-.759.332-1.173 0-.43-.108-.736-.391-.927-.289.17-.45.532-.43 1.082.018.416.228.737.488 1.018z" fill="#F5E50D"/><path fill-rule="evenodd" clip-rule="evenodd" d="M8.003 35.67c.245-.338.39-.737.421-1.153.038-.43-.049-.745-.318-.952-.3.136-.492.49-.513 1.05-.021.407.17.755.408 1.056" fill="#F5E50D"/><path fill-rule="evenodd" clip-rule="evenodd" d="M7.266 34.648c.277-.32.459-.71.526-1.127.073-.433.01-.757-.246-.992-.312.122-.538.457-.608 1.017-.03.395.086.788.328 1.102zm-.671-1.058c.307-.303.523-.686.623-1.106.11-.428.075-.767-.17-1.028-.33.102-.58.426-.695.985-.084.424.048.802.242 1.15z" fill="#F5E50D"/><path fill-rule="evenodd" clip-rule="evenodd" d="M6 32.488c.338-.284.588-.659.72-1.08.149-.428.136-.78-.092-1.06-.342.074-.627.384-.786.951-.121.428-.01.817.159 1.187" fill="#F5E50D"/><path fill-rule="evenodd" clip-rule="evenodd" d="M5.511 31.353c.365-.27.647-.636.816-1.057.179-.429.195-.788-.017-1.1-.362.056-.68.358-.878.926-.153.427-.069.844.08 1.23z" fill="#F5E50D"/><path fill-rule="evenodd" clip-rule="evenodd" d="M5.15 30.177c.396-.25.713-.608.913-1.032.215-.437.254-.804.053-1.136-.374.032-.717.32-.962.891-.19.435-.136.868 0 1.277m-.454-1.42c.18-.433.232-.91.15-1.372-.073-.48-.257-.8-.608-.952-.29.24-.408.673-.272 1.287.095.462.39.78.732 1.041" fill="#F5E50D"/><path fill-rule="evenodd" clip-rule="evenodd" d="M2.91 27.311c.181.362 1.36 1.396 1.36 1.396-.267-.599-1.36-1.396-1.36-1.396zm1.957 1.592c.454-.477.787-1.787.787-1.787-.268.302-.787 1.787-.787 1.787zm40.29-1.625c-.18.36-1.367 1.394-1.367 1.394.275-.599 1.367-1.394 1.367-1.394zm-1.955 1.591c-.455-.476-.788-1.787-.788-1.787.268.302.788 1.787.788 1.787z" fill="#D4D4D2"/></g><defs><clipPath id="clip0_624_16121"><path fill="#fff" transform="translate(0 .31)" d="M0 0h47.936v47.937H0z"/></clipPath></defs></svg>