<svg width="155" height="41" fill="none" xmlns="http://www.w3.org/2000/svg"><path d="M53.99 15.569h-1.291l-4.903-7.505v7.505h-1.291V5.831h1.29l4.917 7.538V5.83h1.277v9.738zm10.621 0h-1.292v-4.502H58.41v4.502h-1.284V5.831h1.284v4.186h4.91V5.831h1.29v9.738h.001zm8.635-2.542h-4.08l-.916 2.542h-1.324l3.719-9.738h1.123l3.725 9.738h-1.318l-.93-2.542zm-3.693-1.056h3.311l-1.658-4.555-1.653 4.555zm2.389-6.783h-1.064l-1.726-1.966h1.492l1.297 1.966h.001zm13.15 4.375l2.333-3.732h1.512l-3.077 4.828 3.15 4.91h-1.524l-2.395-3.8-2.408 3.8h-1.518l3.157-4.91-3.083-4.828h1.504l2.348 3.732zm13.122-3.732v6.62c-.004.92-.295 1.67-.87 2.255-.57.584-1.347.912-2.328.984l-.34.013c-1.066 0-1.916-.288-2.55-.864-.632-.574-.953-1.366-.962-2.373V5.83h1.271v6.594c0 .705.194 1.254.581 1.646.39.388.941.582 1.66.582.726 0 1.281-.194 1.665-.582.388-.388.582-.934.582-1.639v-6.6h1.29zm8.113 7.196h-4.08l-.917 2.542h-1.324l3.719-9.738h1.124l3.725 9.738h-1.318l-.929-2.542zm-3.692-1.056h3.311l-1.66-4.555-1.651 4.555zm1.177-8.535h1.016l1.94 1.76h-1.317l-1.13-1.064-1.138 1.063h-1.324l1.953-1.76zm3.411-1.157h1.338l-1.345 1.732h-.942l.949-1.732zm9.377 4.608h-3.13v8.682h-1.277V6.888h-3.124V5.83h7.531v1.057zm6.288 8.682V5.831h3.183c1.057 0 1.851.218 2.381.655.535.437.803 1.083.803 1.94 0 .454-.129.858-.388 1.21a2.525 2.525 0 01-1.057.81 2.23 2.23 0 011.244.842c.308.411.462.901.462 1.472 0 .873-.283 1.56-.85 2.06-.566.499-1.366.749-2.401.749h-3.377zm1.284-4.555v3.505h2.12c.598 0 1.068-.155 1.411-.462.348-.312.522-.74.522-1.284 0-1.173-.637-1.759-1.913-1.759h-2.14zm0-1.03h1.94c.561 0 1.009-.14 1.344-.422.339-.28.508-.661.508-1.143 0-.536-.156-.923-.468-1.164-.312-.245-.787-.368-1.425-.368h-1.899v3.097zm13.484 3.043h-4.081l-.916 2.542h-1.324l3.719-9.738h1.123l3.726 9.738h-1.318l-.929-2.542zm-3.692-1.056h3.311l-1.659-4.555-1.652 4.555zm1.264-6.884l-.007-1.022c.335-.023.579-.067.736-.134a.359.359 0 00.176-.142.355.355 0 00.058-.22c0-.173-.103-.303-.307-.387-.202-.09-.469-.134-.804-.134l.048-.709c.664 0 1.168.116 1.512.348.343.228.514.53.514.91a.926.926 0 01-.261.675c-.174.178-.432.291-.776.341l-.007.475h-.882zm14.327 10.482h-1.291l-4.903-7.505v7.505h-1.291V5.831h1.291l4.916 7.538V5.83h1.278v9.738zM49.682 28.397l2.334-3.732h1.512l-3.076 4.829 3.15 4.91h-1.526l-2.394-3.8-2.407 3.8h-1.518l3.157-4.91-3.084-4.829h1.505l2.348 3.733h-.001zm11.645 3.465h-4.08l-.916 2.542h-1.325l3.72-9.739h1.122l3.726 9.739h-1.318l-.93-2.542zm-3.693-1.056h3.312l-1.66-4.555-1.652 4.554zm3.706-6.916v.066h-1.023l-1.004-1.136-.996 1.136h-1.023v-.08l1.645-1.82h.75l1.652 1.833h-.001zm6.742 5.665l2.542-4.89h1.458l-3.358 6.107v3.632H67.44v-3.632l-3.357-6.107h1.47l2.529 4.889zm10.367 4.849v-9.739h2.749c.847 0 1.596.188 2.248.562a3.78 3.78 0 011.505 1.598c.356.692.537 1.486.54 2.382v.622c0 .918-.177 1.723-.534 2.414a3.713 3.713 0 01-1.518 1.592c-.656.37-1.42.56-2.294.569h-2.696zm1.285-8.681v7.63h1.35c.99 0 1.76-.307 2.308-.923.553-.614.83-1.491.83-2.628v-.568c0-1.107-.262-1.964-.783-2.576-.517-.615-1.253-.927-2.207-.936h-1.498zm15.417-1.058v1.425c.513-.049.876-.225 1.09-.528.218-.309.328-.79.328-1.446h1.063c0 .937-.199 1.64-.595 2.108-.393.463-1.022.722-1.886.776v4.293c-.005.888-.28 1.621-.823 2.2-.544.581-1.287.92-2.228 1.018l-.488.026c-1.066 0-1.915-.287-2.548-.863-.633-.574-.954-1.366-.963-2.374v-6.635h1.27v6.595c0 .705.194 1.253.582 1.646.388.387.941.582 1.66.582.726 0 1.281-.195 1.665-.582.387-.388.582-.934.582-1.64v-6.6h1.29zm-4.128 11.431c0-.2.061-.37.181-.508.125-.139.308-.207.549-.207.24 0 .424.068.548.207a.73.73 0 01.187.508c0 .2-.062.369-.187.502-.124.134-.308.2-.548.2-.24 0-.424-.066-.549-.2a.725.725 0 01-.18-.502zm15.137-1.692h-1.291l-4.903-7.505v7.505h-1.29v-9.739h1.29l4.916 7.538v-7.538h1.278v9.739zm10.326-1.278c-.329.473-.791.827-1.384 1.064-.588.23-1.275.347-2.06.347-.794 0-1.498-.185-2.114-.554a3.776 3.776 0 01-1.431-1.593c-.334-.687-.506-1.482-.515-2.388v-.849c0-1.466.341-2.603 1.023-3.41.687-.808 1.65-1.211 2.89-1.211 1.017 0 1.834.26 2.454.782.62.517.999 1.253 1.137 2.207h-1.284c-.24-1.288-1.008-1.933-2.3-1.933-.861 0-1.514.303-1.96.91-.442.602-.664 1.476-.669 2.622v.796c0 1.092.249 1.961.749 2.609.5.642 1.175.963 2.027.963.481 0 .903-.054 1.264-.161.342-.096.652-.283.896-.542v-2.187h-2.253v-1.044h3.53v3.572z" fill="#FE4F37"/><mask id="a" style="mask-type:alpha" maskUnits="userSpaceOnUse" x="0" y="1" width="39" height="39"><path fill-rule="evenodd" clip-rule="evenodd" d="M0 1.219h38.957v38.604H0V1.22z" fill="#fff"/></mask><g mask="url(#a)"><path fill-rule="evenodd" clip-rule="evenodd" d="M19.479 39.823c-.775-1.208-2.363-2.917-4.242-2.97H0V1.216h15.594c1.467.079 2.825.767 3.885 1.795 1.06-1.028 2.417-1.716 3.884-1.795h15.594v35.636H23.721c-1.879.053-3.468 1.762-4.242 2.97zm0-33.209c-.964-.779-2.3-2.25-3.97-2.25H3.167v29.342H15.41c1.729 0 3.177.658 4.069 1.875.89-1.217 2.34-1.875 4.068-1.875H35.79V4.363H23.448c-1.67 0-3.005 1.472-3.97 2.252z" fill="#FE4F37"/></g><mask id="b" style="mask-type:alpha" maskUnits="userSpaceOnUse" x="0" y="1" width="40" height="39"><path fill-rule="evenodd" clip-rule="evenodd" d="M0 39.046h39.032V1.144H0v37.902z" fill="#fff"/></mask><g mask="url(#b)"><path fill-rule="evenodd" clip-rule="evenodd" d="M6.099 31.71h3.94v-3.998h-3.94v3.998zm28.039-18.885v.02l.015.004-.015.05v.823h-13.58v6.62h-.884v-6.62h-4.826v-.897l5.27-4.345 13.956 4.345h.064zm-17.78 0h3.316V9.987l-3.315 2.837zm4.2-3.27v3.27h10.5l-10.5-3.27zm9.64 12.363h3.94v-3.997h-3.94v3.998zm-19.275 0h3.94v-3.997h-3.939v3.998zm-4.824 0h3.94v-3.997h-3.94v3.998zm0 4.896h3.94v-3.998h-3.94v3.998zm4.824 0h3.94v-3.998h-3.939v3.998zm4.825 0h3.94v-3.998h-3.94v3.998zm4.825 0h3.941v-3.998h-3.941v3.998zm9.625 4.896h3.94v-3.998h-3.94v3.998zm-4.826 0h3.94v-3.998h-3.94v3.998zm-4.799 0h3.941v-3.998h-3.941v3.998zm-4.825 0h3.94v-3.998h-3.94v3.998zm-4.825 0h3.94v-3.998h-3.939v3.998z" fill="#FE4F37"/></g></svg>