<svg width="283" height="58" fill="none" xmlns="http://www.w3.org/2000/svg"><g clip-path="url(#clip0_422_90807)"><path d="M28.999.635A28.422 28.422 0 00.639 28.998a28.417 28.417 0 0028.36 28.36 28.402 28.402 0 0028.362-28.357A28.41 28.41 0 0029 .635z" fill="#fff"/><path d="M33.355 23.934c1.419-.235 2.877-.642 4.317-.4l.03.01c-.171.145-.333.3-.486.464l.658-.155c-.034-.082-.1-.247-.135-.329l-.018-.053c1.926-.199 3.866.073 5.781.295-.123.55-.268 1.093-.426 1.63a44.567 44.567 0 00-1.481-.384c-2.505-.6-5.116-.596-7.652-.203a4.28 4.28 0 01-.588-.875zm2.14.165l.381-.05c.086-.125.165-.248.26-.373a.567.567 0 00-.648.429l.007-.006zm1.224-.386c-.23.025-.395.423-.096.48.33.09.519-.605.09-.473l.006-.007zm-21.974 5.209c2.524-1.54 5.584-2.11 8.505-1.753 2.012.255 3.911 1.029 5.68 1.987.659-.259 1.277-.624 1.94-.886 0 .515 0 1.029-.01 1.544-.404.219-.79.494-1.245.597-.436.077-.88.01-1.317-.023a21.526 21.526 0 00-.526 1.532c-.787-.056-1.173.787-1.916.86-.46.087-.923.154-1.382.25a12.9 12.9 0 011.535 1.665c-.02.962-.25 1.905-.372 2.858-.087-.125-.176-.247-.263-.372-1.435.297-2.79.892-4.075 1.583.182.494.37.976.573 1.457a3.679 3.679 0 01-.69.395c-.439-.252-.79-.634-1.237-.874-.749.286-1.262.987-1.912 1.453-1.119-4.084-2.199-8.179-3.288-12.273zm20.313-1.754c1.248-.04 2.512-.092 3.744.164 1.385.27 2.707.8 3.897 1.559.257.143.053.467.03.683-1.075 3.75-2.07 7.523-3.167 11.267-.371-.31-.744-.616-1.117-.92-.45.273-.852.624-1.307.892a.29.29 0 01-.343-.296c.03-.538.126-1.07.164-1.608a18.656 18.656 0 00-3.607-1.563 23.8 23.8 0 00-.987 1.356l-.743-.165a34.776 34.776 0 00-.202-1.6c-1.427-.241-2.88-.164-4.318-.118.235-.291.447-.619.77-.823.398-.143.862-.136 1.193-.434.51-.418 1.168-.734 1.427-1.38l.401.063c1.106-.63 2.227-1.234 3.316-1.89.675-.343.836-1.152 1.029-1.81.066-1.14-.142-2.257-.18-3.377zm4.595 5.741c.235.115.62-.255.431-.484-.265-.136-.515.246-.431.484zm-1.083.257c.46.117.854-.225.68-.701a2.87 2.87 0 00-.68.693v.008zm.224 1.193c.028.44.597.237.877.196 0-.076-.018-.232-.023-.311-.298-.092-.68-.267-.854.107v.008zm-2.189.948c.29-.037.57-.132.823-.28l-.286-.31c-.226.14-.458.303-.537.582v.008zm1.38-.412c.01.185.024.37.042.555a.684.684 0 00.41-.553l-.453-.002z" fill="#fff"/><path d="M22.764 10.815c1.864-.633 3.83-1.073 5.807-1.02-.013.525-.016 1.05 0 1.575-.188-.066-.362-.198-.568-.193-.493.236-.913.667-1.48.739-.404.06-.805.11-1.2.206l-.413-.384c-.284.26-.525.576-.861.767a7.49 7.49 0 01-.954-.342c-.405.39-.86.726-1.246 1.13v.165c.423.401.87.776 1.338 1.124.082.494.164.987.25 1.481l.413.092.08.548c.572-.145 1.14-.29 1.72-.395.03.285.063.57.096.856-.33.164-.733.35-.738.785.11.566.59.948.988 1.333.536.55 1.39.658 1.856 1.288.33.456.823.922.708 1.539-5.15-.082-10.552-1.372-14.503-4.845 2.127-2.983 5.264-5.211 8.707-6.449zm6.564-1.066c5.604.03 11.074 2.809 14.497 7.226-2.424 2.351-5.648 3.704-8.903 4.443-1.213.248-2.434.526-3.678.538-.24-.275-.507-.545-.61-.907-.22-.737-.95-1.152-1.297-1.81-.007-.3.005-.6.034-.899.44-.465.932-.936 1.022-1.604 1.047-.89 2.223-1.616 3.291-2.483-1.061-.217-2.21-.24-3.097-.943.266-.468.5-.953.7-1.452a14.767 14.767 0 00-1.945-.013c-.014-.693-.014-1.395-.014-2.096z" fill="#0087C6"/><path d="M27.855 9.005a19.363 19.363 0 0114.832 5.522c3.95 3.827 6.175 9.38 5.884 14.874-.216 5.794-3.203 11.4-7.865 14.845a19.479 19.479 0 01-9.602 3.758c-4.25.443-8.658-.493-12.296-2.76-3.756-2.265-6.634-5.876-8.158-9.974A19.57 19.57 0 0127.855 9.005zm-5.091 1.81c-3.443 1.237-6.583 3.466-8.722 6.444 3.95 3.472 9.354 4.763 14.503 4.845.108-.617-.375-1.083-.708-1.539-.465-.632-1.316-.739-1.856-1.288-.392-.385-.87-.767-.987-1.333 0-.435.406-.62.737-.785-.033-.287-.066-.571-.096-.856-.58.105-1.152.25-1.72.395-.019-.138-.06-.411-.08-.548l-.413-.092c-.084-.494-.165-.988-.25-1.481a14.599 14.599 0 01-1.338-1.124v-.165c.387-.405.841-.74 1.246-1.13.31.135.629.25.954.342.33-.19.578-.507.86-.767l.414.384c.395-.096.796-.145 1.2-.206.566-.072.987-.504 1.48-.739.206 0 .38.127.568.192a41.967 41.967 0 010-1.574c-1.963-.048-3.928.391-5.792 1.025zm6.564-1.066c0 .7 0 1.403.01 2.106a14.75 14.75 0 011.945.013c-.2.5-.434.984-.7 1.451.888.703 2.037.726 3.098.943-1.065.868-2.241 1.593-3.291 2.484-.09.668-.583 1.139-1.022 1.604-.03.299-.041.599-.035.899.347.658 1.078 1.068 1.297 1.81.104.362.37.632.61.907 1.244-.012 2.469-.29 3.678-.539 3.255-.743 6.48-2.096 8.903-4.443-3.414-4.426-8.884-7.206-14.493-7.235zm-2.34 2.555c-.452.112-.936.142-1.341.397-.285.207-.556-.092-.806-.203-.249.21-.494.417-.75.616a5.342 5.342 0 00-.863-.362c-.293.141-.494.41-.739.62.304.27.617.53.925.797.444.31.3.933.393 1.397.239.118.494.23.575.516a5.42 5.42 0 011.81-.238c.01.32-.014.64-.018.961.294.165.658.252.849.551-.512.134-1.022.264-1.524.425.24.913 1.152 1.441 1.948 1.841.69.33 1.045 1.044 1.468 1.646.667.902 1.325 1.825 2.205 2.537.255.517.27 1.13.525 1.66-.125.26-.302.516-.293.822-.036 1.24.04 2.48-.026 3.718a3.465 3.465 0 01-2.75.952c-.215.527-.32 1.096-.01 1.611a9.398 9.398 0 00-1.094-.102c-.357.165-.619.478-.971.649a6.507 6.507 0 01-.958.222c.4.329.606.837 1.06 1.109-.1.785-.275 1.562-.304 2.355.493-.403.888-.927 1.397-1.317.262-.069.53-.111.801-.126.42-.311.856-.6 1.25-.94.28-.207.144-.75.51-.85.134.034.407.101.544.133 1.04-.532 2.047-1.128 3.064-1.704.61-.297.754-1.03.902-1.625a24.314 24.314 0 00-.209-3.112c-.224-.92-.79-1.712-1.284-2.507-.794-1.201-2.009-2.029-2.93-3.115-.218-.915-1.016-1.471-1.505-2.221a4.715 4.715 0 01.127-1.289c.21-.33.515-.584.74-.9.195-.31.185-.746.494-.973.74-.59 1.54-1.102 2.265-1.713a4.54 4.54 0 01-2.391-1.02c-.165-.472.329-.823.513-1.201-.63 0-1.259.018-1.887 0-.224-.198-.404-.494-.703-.575-.347.168-.643.412-1.004.558h-.005zm5.302 10.348l-.042.164c.309.409.702.743 1.043 1.123l.06-.012c.157.315.35.61.578.877.051.088.148.26.2.348.155.333.329.659.52.974.116.184.136.459.343.572.718.01 1.435-.084 2.155-.05a12.91 12.91 0 014.59.96c.59.218 1.112.677 1.776.639 1.43.02 2.864-.021 4.297-.025a18.657 18.657 0 00-3.507-10.6c-3.27 3.014-7.66 4.5-12.013 5.03zm-22.06 5.585c1.339.076 2.678-.048 4.018.013.85.092 1.519-.533 2.292-.768 3.456-1.361 7.415-1.18 10.805.28.392.19.797.351 1.211.485l.015-.658c.222.089.494.266.723.082l.069.583a10.888 10.888 0 001.51-.558 36.77 36.77 0 01-.02-.743c-.006-.248.029-.47.048-.705l-.317.01c.237-.083.291-.33.368-.542l-.232.058.38-.165a7.82 7.82 0 00-.241-.843c-.045-.27 0-.602-.254-.778-.426-.378-.795-.823-1.249-1.167-.013.909-.072 1.822.043 2.724l-.39.229a35.379 35.379 0 00-.457-.287c.013-.86 0-1.724.018-2.587a38.94 38.94 0 01-4.179-.358c-3.916-.6-7.828-2.011-10.823-4.677a18.67 18.67 0 00-3.339 10.372zm4.515.685a1378.71 1378.71 0 003.29 12.273c.66-.46 1.164-1.167 1.913-1.453.448.24.798.622 1.238.873.243-.106.474-.238.69-.395-.205-.48-.393-.965-.574-1.456 1.286-.691 2.634-1.287 4.075-1.583.087.125.176.247.263.372.122-.953.352-1.896.372-2.858a12.907 12.907 0 00-1.535-1.666c.459-.095.921-.164 1.382-.248.742-.074 1.13-.917 1.916-.861.164-.517.329-1.03.526-1.532.438.033.882.1 1.317.023.454-.109.84-.379 1.246-.597.01-.515.014-1.029.01-1.544-.659.262-1.28.627-1.94.885-1.77-.957-3.669-1.73-5.681-1.986-2.925-.349-5.984.212-8.508 1.753zm20.313-1.755c.038 1.121.245 2.238.175 3.36-.193.657-.354 1.48-1.029 1.81-1.09.658-2.21 1.26-3.316 1.89l-.401-.064c-.259.647-.917.963-1.427 1.38-.33.299-.795.292-1.193.435-.33.204-.535.532-.77.823 1.438-.053 2.891-.123 4.318.118.08.532.146 1.065.202 1.6l.742.165c.318-.461.642-.919.988-1.356a18.6 18.6 0 013.607 1.563c-.035.538-.13 1.07-.165 1.608a.29.29 0 00.344.296c.455-.268.856-.619 1.307-.892.374.305.747.612 1.117.92 1.096-3.744 2.092-7.517 3.167-11.268.023-.215.227-.54-.03-.683a11.263 11.263 0 00-3.897-1.558c-1.227-.239-2.491-.186-3.739-.146zM10.24 29.02a18.584 18.584 0 003.543 10.489 22.83 22.83 0 012.886-1.888c-.796-2.837-1.492-5.698-2.315-8.534l-.105-.056c-1.332-.04-2.671-.006-4.009-.011zm33.467.03c-.85 2.9-1.63 5.82-2.454 8.721.99.596 1.947 1.245 2.865 1.947a18.827 18.827 0 003.69-10.705c-1.364.026-2.738-.053-4.1.036h-.001zm-17.834 8.899c.185.401.478.676.95.59a5.647 5.647 0 00.058-1.528 7.464 7.464 0 00-1.008.938zm1.452-.73c-.025.524-.045 1.05-.066 1.572-.41.075-.822.125-1.238.15a20.508 20.508 0 00-.822-1.316 14.415 14.415 0 00-3.407 1.316c.165.494.36.97.563 1.447-.408.228-.768.59-1.228.693-.436-.292-.837-.632-1.285-.904-.887.718-1.757 1.481-2.447 2.393.09.352.37.623.553.935.46.76 1.35 1.061 2.044 1.558 1.33-1.382 2.908-2.552 4.72-3.214a11.89 11.89 0 019.796.645c1.257.644 2.304 1.595 3.301 2.585.619-.151 1.116-.594 1.656-.913.587-.344.857-.997 1.226-1.535a18.116 18.116 0 00-2.261-2.233c-.443.276-.841.625-1.296.882-.3-.022-.521-.297-.778-.43.048-.563.11-1.124.2-1.68a16.657 16.657 0 00-3.062-1.379c-.329.418-.61.88-.954 1.288-.425.046-.844-.136-1.264-.2-.086-.532-.151-1.067-.217-1.602a16.031 16.031 0 00-3.728-.057h-.006zm-13.078 2.943a18.245 18.245 0 002.933 2.95l-.293-.634c.3-.385.934-.72.724-1.299-.23-.926-.494-1.85-.746-2.768a14.001 14.001 0 00-2.611 1.751h-.007zm26.787-1.548c-.268.956-.608 1.9-.775 2.883.28.398.63.742.924 1.13-.093.155-.185.31-.275.466.966-.836 1.91-1.708 2.68-2.733-.786-.659-1.599-1.322-2.547-1.746h-.007zM26.899 41.93a11.104 11.104 0 00-6.03 3.245c-.266.19.153.531.33.329.53-.444 1.014-.948 1.6-1.328a10.682 10.682 0 0113.771 1.328c.164.36.768.018.424-.265a11.171 11.171 0 00-10.089-3.31h-.006zm-5 3.456a.759.759 0 00-.288.562c.247-.13.477-.29.687-.475a9.932 9.932 0 0113.357.13.987.987 0 00.71.34c-.302-.477-.751-.822-1.194-1.165a10.178 10.178 0 00-5.881-2.127 10.303 10.303 0 00-7.384 2.728l-.007.007zm.678.733a.495.495 0 00.77.078 8.668 8.668 0 013.986-1.858c.366.271.783.467 1.226.574 0-.43 0-.86-.023-1.29a9.242 9.242 0 00-5.954 2.49l-.005.006zm6.747-2.468c0 .426 0 .857.018 1.285.431-.141.812-.393 1.226-.572a8.61 8.61 0 013.953 1.876c.234.265.59.108.813-.083-1.655-1.461-3.767-2.465-5.997-2.514l-.013.008zm-2.583 1.215a8.37 8.37 0 00-3.181 1.645c1.61.528 3.292.8 4.986.808 0-.645 0-1.29.013-1.937-.6-.156-1.144-.76-1.805-.525l-.013.008zm2.613.432a22.074 22.074 0 00-.013 2.034c1.62-.015 3.23-.249 4.787-.694 0-.045.021-.135.028-.181-1.016-.833-2.251-1.465-3.556-1.656-.397.173-.79.394-1.233.49l-.013.007z" fill="#D4D4D2"/><path d="M32.29 22.652c4.35-.53 8.74-2.016 12.013-5.029a18.656 18.656 0 013.512 10.606c-1.433 0-2.866.044-4.297.025-.658.038-1.186-.422-1.777-.639a12.908 12.908 0 00-4.591-.96c-.72-.032-1.437.062-2.154.052-.208-.114-.227-.389-.344-.573 2.949-.227 5.91.25 8.638 1.39.182-.47.314-.959.393-1.457-.823-.26-1.63-.52-2.468-.705l.366-.347a47.5 47.5 0 011.482.385c.164-.538.302-1.08.426-1.63-1.916-.223-3.856-.494-5.781-.295l.018.052-.035.019-.03-.01c-1.44-.242-2.897.164-4.316.4l-.06.011c-.341-.38-.735-.714-1.044-1.122.02-.043.05-.13.05-.173zm-22.06 5.585a18.672 18.672 0 013.343-10.367c2.995 2.666 6.912 4.078 10.823 4.677 1.384.192 2.777.31 4.174.354-.02.862 0 1.726-.018 2.587-3.116-1.81-6.836-2.161-10.368-2.067a35.823 35.823 0 00-4.046.36c.126.551.29 1.093.403 1.646l.06.39c-.213.069-.427.143-.638.215.132.466.262.928.392 1.394 4.519-1.718 9.806-2.017 14.221.165l-.015.658a9.386 9.386 0 01-1.21-.486c-3.39-1.46-7.353-1.645-10.806-.28-.773.236-1.441.861-2.292.77-1.345-.063-2.684.06-4.024-.016zm.01.782c1.335 0 2.675-.03 4.01.011l.105.056c.823 2.83 1.515 5.697 2.314 8.535a22.831 22.831 0 00-2.887 1.887 18.584 18.584 0 01-3.543-10.49zm33.468.03c1.36-.088 2.735-.01 4.1-.03a18.827 18.827 0 01-3.689 10.705 31.201 31.201 0 00-2.865-1.947c.823-2.908 1.605-5.827 2.454-8.728zM14.253 40.161a14.01 14.01 0 012.611-1.75c.258.918.515 1.84.746 2.767.21.58-.423.914-.724 1.299l.293.635a18.236 18.236 0 01-2.926-2.95zm12.5 4.695c.658-.235 1.204.369 1.81.517-.01.647-.011 1.292-.013 1.937a16.243 16.243 0 01-4.982-.808 8.372 8.372 0 013.185-1.646zm2.613.434c.443-.096.836-.317 1.246-.495 1.305.191 2.54.823 3.556 1.656 0 .046-.021.137-.028.181a18.049 18.049 0 01-4.787.695 21.978 21.978 0 01.013-2.038zm-.24-18.417c.247-.68 1.01-.823 1.594-1.098l.233-.057c-.078.206-.132.459-.37.541-.383.175-.75.384-1.12.581l-.337.033z" fill="#0087C6"/><path d="M26.993 12.304c.354-.146.658-.39 1.002-.554.3.085.48.377.703.574.629.013 1.257-.01 1.887 0-.187.387-.673.73-.513 1.201.68.566 1.512.921 2.391 1.02-.724.611-1.524 1.123-2.264 1.714-.311.227-.301.658-.494.972-.225.316-.531.57-.74.9-.102.42-.146.852-.13 1.284.493.75 1.286 1.307 1.504 2.222.921 1.086 2.139 1.913 2.93 3.115.494.795 1.06 1.586 1.284 2.506.135 1.032.204 2.071.206 3.112-.148.596-.293 1.328-.902 1.626-1.017.576-2.024 1.171-3.064 1.703-.137-.031-.41-.099-.545-.132-.365.1-.229.642-.508.85-.395.34-.823.628-1.251.94-.27.014-.54.057-.802.126-.508.392-.896.915-1.397 1.316.03-.793.204-1.57.305-2.354-.454-.272-.658-.782-1.06-1.11a6.4 6.4 0 00.963-.232c.352-.164.613-.485.97-.648.367.013.733.047 1.095.102-.31-.515-.206-1.084.01-1.611a3.466 3.466 0 002.75-.953c.066-1.237-.01-2.478.026-3.717-.01-.302.165-.558.293-.823-.255-.53-.27-1.142-.525-1.659-.88-.713-1.539-1.636-2.205-2.538-.423-.597-.778-1.306-1.468-1.645-.792-.4-1.708-.928-1.948-1.842.502-.164 1.012-.29 1.523-.424-.195-.3-.554-.385-.849-.551 0-.321.028-.64.018-.962a5.42 5.42 0 00-1.81.24c-.072-.287-.329-.4-.574-.518-.094-.464.05-1.086-.393-1.397-.308-.266-.62-.526-.925-.796.238-.21.446-.48.739-.62.297.095.586.216.862.361.255-.199.502-.406.75-.615.25.11.522.41.807.202.413-.243.897-.273 1.35-.385zm.337 24.916a16.03 16.03 0 013.736.05c.066.535.132 1.07.217 1.601.42.064.84.247 1.264.201.344-.408.62-.87.954-1.288 1.067.355 2.095.817 3.068 1.379a22.951 22.951 0 00-.2 1.68c.257.133.478.408.78.43.453-.257.852-.606 1.294-.883.815.676 1.57 1.421 2.255 2.228-.369.538-.639 1.192-1.226 1.536-.54.319-1.037.762-1.656.913-.987-.987-2.044-1.942-3.3-2.585a11.89 11.89 0 00-9.796-.64c-1.81.658-3.39 1.831-4.72 3.214-.694-.494-1.582-.799-2.043-1.559-.183-.31-.463-.582-.553-.935.69-.914 1.56-1.675 2.447-2.392.448.271.85.612 1.285.903.46-.102.823-.464 1.228-.693a23.086 23.086 0 01-.563-1.446 14.413 14.413 0 013.407-1.317c.284.431.567.864.822 1.317.415-.025.829-.075 1.238-.15.018-.517.038-1.042.062-1.565z" fill="#DC2A27"/><path d="M29.357 22.817c.454.348.822.788 1.248 1.166.254.176.21.509.254.779-.501.23-.989.49-1.46.778-.115-.902-.056-1.815-.043-2.723zM41.04 38.613c.948.425 1.761 1.088 2.554 1.746-.77 1.025-1.714 1.897-2.68 2.733.09-.156.182-.31.274-.465-.293-.389-.643-.733-.923-1.131.166-.982.507-1.927.775-2.883z" fill="#0087C6"/><path d="M14.133 23.776a35.846 35.846 0 014.046-.36c3.537-.094 7.257.25 10.368 2.067.153.093.304.189.457.286l.39-.229c.471-.287.959-.547 1.46-.778.096.276.177.557.242.842l-.38.165c-.585.273-1.348.418-1.595 1.098l.337-.033c-.283.204-.618.278-.906.042.347-.516-.308-.668-.659-.852-4.188-1.81-9.018-1.945-13.36-.607-.11-.548-.274-1.09-.4-1.641z" fill="#fff"/><path d="M37.701 23.544l.035-.018c.035.08.1.245.135.329l-.658.155a5.96 5.96 0 01.488-.466zm-2.213.561a.566.566 0 01.642-.423c-.09.125-.175.249-.26.374l-.382.05zm1.224-.385c.43-.132.24.563-.095.479-.3-.056-.135-.454.095-.479zm2.941 9.19c-.084-.231.164-.613.431-.485.19.22-.196.591-.431.484zm-.859 1.44c.174-.373.556-.198.854-.114 0 .079.016.235.023.31-.28.042-.85.244-.877-.195zm-2.189.949c.08-.279.311-.441.54-.59l.286.31a2.178 2.178 0 01-.826.28zm1.379-.415h.453a.684.684 0 01-.41.553c-.018-.18-.031-.365-.043-.553zm-11.08 7.045a11.17 11.17 0 0110.098 3.301c.344.283-.257.625-.425.265a10.681 10.681 0 00-13.77-1.328c-.586.38-1.07.884-1.601 1.328-.178.21-.598-.13-.33-.33a11.104 11.104 0 016.028-3.236z" fill="#DC2A27"/><path d="M21.905 45.378a10.303 10.303 0 017.39-2.735c2.135.074 4.193.819 5.882 2.128.442.337.892.688 1.193 1.165a.987.987 0 01-.71-.34 9.931 9.931 0 00-13.357-.13c-.209.184-.44.344-.686.475a.76.76 0 01.288-.563z" fill="#DC2A27"/><path d="M14.536 25.423c4.343-1.338 9.173-1.203 13.36.608.353.184 1.008.329.659.852-4.22-2.338-9.413-2.491-13.96-1.07a17.504 17.504 0 00-.06-.39zm19.4-.612c2.536-.393 5.148-.398 7.652.202l-.367.348a18.217 18.217 0 00-7.086-.203 9.327 9.327 0 01-.199-.347z" fill="#0087C6"/><path d="M14.597 25.813c4.546-1.422 9.74-1.269 13.96 1.07.287.235.623.164.906-.043.37-.198.737-.407 1.12-.58l.318-.01c-.02.235-.036.468-.05.705a17.1 17.1 0 00-1.557.718c-.23.184-.494 0-.723-.083-4.415-2.185-9.71-1.886-14.221-.164-.13-.466-.26-.928-.392-1.394.21-.076.425-.15.639-.219z" fill="#fff"/><path d="M34.132 25.158a18.215 18.215 0 017.086.203c.834.184 1.645.444 2.468.704-.079.498-.21.987-.393 1.458a18.663 18.663 0 00-8.638-1.39c-.192-.316-.367-.64-.523-.975z" fill="#FFFFFD"/><path d="M29.294 27.673a17.076 17.076 0 011.558-.718c0 .247.012.494.022.742-.49.223-.994.41-1.511.558a82.597 82.597 0 00-.07-.582z" fill="#0087C6"/><path d="M38.57 33.158c.185-.271.415-.508.68-.701.174.475-.213.818-.68.7z" fill="#C75A5E"/><path d="M25.873 37.948a7.452 7.452 0 011.007-.938c.05.51.03 1.023-.058 1.527-.466.087-.758-.188-.95-.589z" fill="#FFFEFE"/><path d="M22.581 46.112a9.242 9.242 0 015.96-2.496c.017.43.022.859.022 1.29a3.41 3.41 0 01-1.226-.575 8.667 8.667 0 00-3.986 1.858.494.494 0 01-.77-.077zm6.756-2.47c2.23.05 4.34 1.053 5.996 2.511-.224.191-.579.348-.813.083a8.61 8.61 0 00-3.94-1.881c-.414.179-.794.43-1.225.572a47.572 47.572 0 01-.018-1.285z" fill="#DC2A27"/><path d="M29.1 13.966l.28.567.623.09-.45.44.105.621-.558-.292-.558.293.107-.623-.451-.439.624-.09.278-.567z" fill="#F5E50D"/><path d="M13.21 14.114c-.067-.505-.348-.966-.838-1.37a2.172 2.172 0 00-1.355-.537c-.057 0-.115 0-.164.008a1.924 1.924 0 00-1.338.757 2.304 2.304 0 00-.416.764 1.532 1.532 0 00-.047.658c.024.225.09.444.196.644.16.305.385.572.659.781.37.327.844.513 1.337.527h.165a1.81 1.81 0 00.884-.33l.804.659.78-.953-.804-.658a1.78 1.78 0 00.136-.95zm-1.372.734a.586.586 0 01-.467.239h-.03a1.071 1.071 0 01-.64-.29 1.043 1.043 0 01-.424-.599.596.596 0 01.146-.493.585.585 0 01.461-.247h.025c.241.02.468.125.641.294.116.09.218.196.3.316a.742.742 0 01.125.283.596.596 0 01-.136.497zm7.139-9.103l1.195 3.097-1.78-.945.6-2.248-1.516.846-.353 1.447-.527-.958-1.117.61 1.968 3.535 1.102-.614-.589-1.063.084-.314 1.453.857.923-.511.013.038 1.177-.46-1.443-3.771-1.19.454zm-3.433 4.912l-1.19.486.13.271c.082.14.12.302.108.464a.406.406 0 01-.15.26.48.48 0 01-.423.115c-.165-.028-.385-.192-.614-.469-.214-.251-.329-.477-.329-.646a.528.528 0 01.196-.409.534.534 0 01.3-.123.507.507 0 01.29.112l.23.165.765-1.034-.245-.164a1.667 1.667 0 00-.823-.311h-.096c-.42.005-.824.164-1.135.445a1.84 1.84 0 00-.696 1.329c-.025.511.172 1.02.587 1.51a1.914 1.914 0 001.58.823 1.76 1.76 0 001.165-.444c.308-.239.527-.575.62-.953a1.798 1.798 0 00-.154-1.167l-.116-.26zm-7.24 13.904l1.2.291.297-1.191-1.194-.298-.303 1.198zm-.836-8.403l1.178.686-.403.697-1.178-.68-.637 1.09 3.495 2.023.639-1.096-1.319-.758.404-.7 1.32.76.633-1.099-3.504-2.024-.628 1.101zm.717 10.606v-.021a1.999 1.999 0 00-.27-.597v-.01h-.008a1.87 1.87 0 00-.642-.482 2.635 2.635 0 00-.85-.211 3.66 3.66 0 00-.33-.015c-.2-.002-.4.02-.595.064a1.8 1.8 0 00-.711.338 1.588 1.588 0 00-.474.663l-.015.033-.01.052a.46.46 0 00-.036.129v.061c-.016.082-.026.179-.041.297l-.012.107-.135 1.562 1.508.124-.036.36 1.007.09.034-.362 1.51.135.142-1.602.012-.203v-.186l-.012-.164-.036-.162zm-1.137.715l-.02.238-.36-.033.064-.74-1.002-.087-.067.737-.36-.032v-.023l.05-.396v-.018a.194.194 0 010-.045l.025-.077a.452.452 0 01.131-.184.494.494 0 01.214-.094 2.466 2.466 0 01.53 0c.23.005.454.061.659.164a.31.31 0 01.126.165c.026.14.03.283.01.425z" fill="#D4D4D2"/><path d="M8.014 23.39l.834-.098.236-.933.03.01.407-1.2-3.814-1.316-.415 1.208 2.979 1.025-3.398.456-.279 1.092 3.55 2.507.33-1.317-.703-.472.243-.961zm-1.257.279l-.165-.109.194-.021-.03.13zM22.553 4.497l.413 1.54-1.358-1.288-1.09.292 1.05 3.903 1.18-.314-.405-1.5 1.33 1.248 1.097-.295-1.039-3.905-1.178.32zm27.388 17.428h.083a2.77 2.77 0 00.806-.2c.29-.108.56-.266.798-.465a1.76 1.76 0 00.474-.614 1.43 1.43 0 00.122-.745 2.47 2.47 0 00-.204-.718l-.588-1.45-3.748 1.517.607 1.496.025.055c.02.046.037.089.056.125.025.056.054.111.085.164.026.05.056.1.09.145.016.03.034.053.047.073l.018.024.011.018.015.018c.148.18.333.323.543.42.241.098.5.145.76.137zm.897-2.589l.012.031c.071.159.126.324.164.494a.346.346 0 01-.018.204.552.552 0 01-.164.202 1.76 1.76 0 01-.47.246 1.92 1.92 0 01-.537.153h-.076a.387.387 0 01-.142-.022.379.379 0 01-.14-.123l-.01-.013a.123.123 0 01-.017-.025l-.01-.013-.01-.025v-.013l-.105-.229-.09-.223 1.613-.644zm-3.441-6.781a1.908 1.908 0 00-.046-.468l.19.196.13-.67.276.298 1.942.165-1.143-1.19-.967.165.054-.279-.632-.658-1.533.222.2.213a1.72 1.72 0 00-.418-.05 1.81 1.81 0 00-.658.115c-.32.128-.612.322-.854.568a2.086 2.086 0 00-.7 1.422 1.945 1.945 0 00.59 1.425 1.908 1.908 0 001.4.635 2.4 2.4 0 002.174-2.111l-.005.002zm-1.593.505c-.11.105-.233.194-.367.266a.713.713 0 01-.296.088h-.026a.623.623 0 01-.453-.193.597.597 0 01-.178-.494v-.014c0-.191.132-.4.364-.626.165-.19.393-.313.642-.347h.026a.674.674 0 01.658.688 1.07 1.07 0 01-.37.632z" fill="#D4D4D2"/><path d="M52.293 27.607l1.497-1.113-.095-1.122-3.181.278 2.603-1.88.165.676 1.022-1.177-.224-.877-1.443-.571.156.632-3.994-.509.33 1.317.822.087.24.968-.692.48.233.925h-.075l.107 1.211 1.545-.131-1.462 1.087.1 1.14 4.021-.345-.1-1.22-1.575.144zm-.917-4.114l-.164.107-.032-.127.196.02zm-2.906-6.217l-.411-1.225-.281.119a.943.943 0 01-.36.084.391.391 0 01-.347-.186.478.478 0 01-.096-.415c.046-.164.225-.373.518-.586.317-.23.517-.278.627-.278h.048a.502.502 0 01.39.23.452.452 0 01.102.29.428.428 0 01-.13.277l-.2.209 1 .854.182-.239a1.68 1.68 0 00.362-.805 1.76 1.76 0 00-.35-1.263 1.834 1.834 0 00-1.491-.79 2.27 2.27 0 00-1.337.493 2.056 2.056 0 00-.901 1.297 1.914 1.914 0 001.247 2.105c.144.044.294.066.444.066.252-.004.5-.055.733-.15l.251-.087zM44.888 9.31l-1.04-.73-1.267 1.81a3.01 3.01 0 01-.33.413.224.224 0 01-.144.068.465.465 0 01-.259-.109.494.494 0 01-.194-.235.236.236 0 01.008-.186v-.025c.025-.06.183-.288.275-.423l1.244-1.775-1.03-.716-1.22 1.744c-.189.257-.35.533-.483.823a1.278 1.278 0 00-.07.265l-.12-.13a2.707 2.707 0 01-.172-.21l.03-.019c.091-.06.178-.128.261-.2.106-.1.2-.21.281-.33.095-.126.177-.262.246-.404.288-.563.365-1.098.223-1.597a1.921 1.921 0 00-1.026-1.152 2.14 2.14 0 00-.962-.248c-.196 0-.392.034-.577.099-.518.202-.935.6-1.162 1.107-.293.575-.364 1.114-.214 1.603a1.921 1.921 0 001.044 1.152c.217.114.452.19.694.227l.204.359.011.018c.077.118.17.224.275.316l.165.145.782-.558v.12c.025.21.096.413.207.594.17.238.384.443.629.604.209.155.446.266.699.33.107.027.218.042.33.042.104 0 .208-.013.308-.04.203-.055.39-.16.542-.304.221-.224.42-.471.59-.736l1.222-1.713zm-5.126-.952a1.636 1.636 0 01-.302.407 2.707 2.707 0 00-.329-.415l-.174-.184-.538.404a.85.85 0 01-.033-.097c-.034-.253.02-.51.154-.729.154-.291.318-.472.504-.54a.556.556 0 01.219-.046.676.676 0 01.3.078.607.607 0 01.338.4c.038.25-.011.505-.14.722zM26.43 3.773l.17 1.36-.805.097-.164-1.358-1.26.156.494 4.012 1.26-.153-.188-1.509.801-.097.188 1.513 1.257-.167-.495-4-1.258.146zm6.397.081l-3.32-.235-.08 1.157 1.03.069-.2 2.878 1.262.087.205-2.88 1.029.071.074-1.147zm2.979.482l.424.106 1.726-.925-1.607-.372-.75.686-.14-.336-.884-.205-.89.791-.45-.103-.907 3.936 3.129.724.258-1.127-1.893-.433.088-.369 1.693.392.268-1.124-1.703-.39.044-.197 1.827.42.257-1.128-.385-.089-.105-.257zm-7.371 50.789a25.952 25.952 0 01-8.418-1.395l-.288-.099 1.95-4.649.249.08a21.038 21.038 0 0014.417-.511l.28-.114 1.741 4.717-.372.156a25.907 25.907 0 01-9.554 1.81l-.005.005z" fill="#D4D4D2"/><path d="M29 .635A28.422 28.422 0 00.638 28.997a28.417 28.417 0 0028.36 28.361 28.402 28.402 0 0028.363-28.357A28.41 28.41 0 0028.998.635zM29 0a29.048 29.048 0 0128.995 28.994A29.054 29.054 0 0129 58 29.057 29.057 0 010 29 29.057 29.057 0 0129-.002V0z" fill="#D4D4D2"/><path fill-rule="evenodd" clip-rule="evenodd" d="M49.978 25.981l3.455-.301.058.681-2.175 1.611 2.303-.205.053.658-3.456.296-.06-.7 2.139-1.589-2.258.194-.06-.645zm3.064-3.694l.798.316.15.592-.562.648-.126-.52.278-.352-.41-.164-.128-.52zM51.05 24.07l1.135-.776-1.362-.14.227.916zm-1.02 1.584l-.187-.744.691-.478-.329-1.351-.832-.088-.183-.715 3.703.472.174.716-3.038 2.188zm.972-6.69l-2.14.861.196.494.106.229a.443.443 0 00.087.151.66.66 0 00.235.196c.12.05.25.065.377.046a2.22 2.22 0 00.619-.172 2.09 2.09 0 00.541-.29.832.832 0 00.239-.314.634.634 0 00.033-.366 3.027 3.027 0 00-.183-.546l-.11-.288zm.281-.865l.48 1.188c.093.202.155.416.185.636a1.14 1.14 0 01-.099.605 1.48 1.48 0 01-.396.512 2.45 2.45 0 01-.72.418 2.47 2.47 0 01-.727.181c-.24.013-.48-.027-.704-.117a1.289 1.289 0 01-.444-.349.904.904 0 01-.066-.102.693.693 0 01-.08-.128 1.11 1.11 0 01-.075-.147 2.726 2.726 0 01-.079-.174l-.494-1.224 3.22-1.299zm-3.388-1.675l.227.678a1.377 1.377 0 01-1.758-.509 1.509 1.509 0 01-.283-1.198 1.778 1.778 0 01.785-1.115c.465-.34.914-.494 1.353-.431a1.555 1.555 0 011.083.658c.232.302.339.682.298 1.061a1.4 1.4 0 01-.306.659l-.548-.455a.71.71 0 00.204-.452.747.747 0 00-.165-.48.779.779 0 00-.594-.338c-.245-.028-.533.089-.864.33-.357.257-.563.503-.627.741a.773.773 0 00.145.659.671.671 0 00.418.282c.212.033.43.002.624-.09h.008zm.192-4.787l-.283-.308.85-.14.516.537-1.083-.09zM46.26 10.54l.848-.123.42.44-.164.838-.371-.383.06-.446-.436.063-.357-.389zm-1.601 1.348c-.283.273-.438.546-.45.823a.874.874 0 00.256.71.91.91 0 00.694.282c.145-.01.285-.05.413-.117a2.09 2.09 0 00.433-.312 1.36 1.36 0 00.454-.805.958.958 0 00-.97-1.002c-.28.003-.552.146-.838.421h.008zm-.522-.494a2.26 2.26 0 01.756-.505c.181-.068.374-.1.567-.097.184-.003.367.033.537.104.231.108.441.258.619.442a1.624 1.624 0 01.505 1.215 1.777 1.777 0 01-.627 1.249c-.403.395-.823.587-1.262.587a1.619 1.619 0 01-1.197-.55 1.646 1.646 0 01-.508-1.217 1.81 1.81 0 01.602-1.234l.008.006zM42.23 7.8l.578.4-1.08 1.54c-.118.155-.222.32-.31.493a.517.517 0 00-.017.4.75.75 0 00.3.374c.121.1.273.157.43.165a.53.53 0 00.33-.149c.133-.14.253-.293.36-.455l1.104-1.579.574.404-1.048 1.494c-.16.247-.343.477-.548.688a.962.962 0 01-.927.24 1.726 1.726 0 01-.603-.295 2.073 2.073 0 01-.555-.526 1.17 1.17 0 01-.164-.47c-.01-.148.012-.297.064-.437.123-.269.274-.524.45-.762L42.23 7.8zm-2.863 1.366a.988.988 0 00.352-.249c.119-.127.22-.27.301-.425a1.37 1.37 0 00.17-.924.898.898 0 00-.494-.585.884.884 0 00-.756-.04c-.251.091-.464.328-.646.672a1.351 1.351 0 00-.178.928.893.893 0 00.745.667 2.314 2.314 0 00-.288-.395l.358-.27c.175.184.322.393.436.62zm.329.61c.1.188.224.361.368.517l-.45.329a1.213 1.213 0 01-.224-.258l-.277-.494a1.829 1.829 0 01-.739-.21 1.647 1.647 0 01-.902-.988c-.128-.418-.064-.879.196-1.39a1.825 1.825 0 011.004-.97 1.846 1.846 0 012.2 1.114c.117.416.053.877-.205 1.382a2.59 2.59 0 01-.22.366c-.073.103-.156.2-.248.286-.072.062-.148.12-.227.173-.093.055-.19.103-.291.143h.015zM36.207 4.14l-.401-.1.638-.585.727.165-.964.52zm-2.18.031l.641-.571.6.138.328.79-.526-.12-.184-.406-.33.284-.53-.115zm-1.345 3.532l.76-3.384 2.51.576-.132.574-1.826-.42-.165.751 1.7.39-.137.571L33.7 6.37l-.219.921 1.894.441-.13.573-2.562-.602zm-2.108-.244l.2-2.878-1.03-.07.042-.588 2.74.189-.038.582-1.027-.07-.206 2.878-.68-.043zm-5.462.273l-.424-3.456.696-.085.164 1.356 1.371-.165-.164-1.357.692-.081.425 3.441-.693.092-.19-1.509-1.362.165.186 1.509-.7.09zm-3.344.87l-.903-3.353.658-.178 1.975 1.873-.6-2.24.631-.164.892 3.355-.67.166-1.943-1.82.59 2.187-.63.175zm-1.171.559l-1.253-3.246.659-.25 1.24 3.242-.646.254zm-3.042 1.59l-1.688-3.043.617-.33.742 1.348.494-2.035.823-.458-.494 1.81 2.238 1.187-.795.44-1.632-.965-.212.785.506.915-.599.345zm-2.818.549l.658-.27c.155.305.203.652.136.987a1.432 1.432 0 01-.524.8 1.465 1.465 0 01-1.174.369 1.763 1.763 0 01-1.171-.703c-.373-.44-.545-.879-.522-1.316a1.535 1.535 0 01.592-1.124 1.428 1.428 0 011.034-.379c.247.025.483.116.683.263l-.422.57a.785.785 0 00-.467-.165.822.822 0 00-.772.806c0 .246.128.529.393.84.28.338.541.526.784.564a.76.76 0 00.658-.176.7.7 0 00.248-.444 1.07 1.07 0 00-.134-.629v.007zm-1.685 4.973l-.519-.423.42-.515.52.425-.421.513zm-2.53-1.252c.235.22.543.345.864.352a.862.862 0 00.675-.346.891.891 0 00.196-.724.986.986 0 00-.165-.39 1.677 1.677 0 00-.369-.392 1.282 1.282 0 00-.849-.35.86.86 0 00-.668.35.88.88 0 00-.207.726c.04.268.215.524.523.774zm-.44.577a2.11 2.11 0 01-.587-.69 1.482 1.482 0 01-.164-.546 1.275 1.275 0 01.034-.544c.08-.24.204-.463.366-.659a1.635 1.635 0 011.143-.658c.441-.044.884.117 1.317.468.433.35.675.75.732 1.186a1.645 1.645 0 01-.4 1.25 1.628 1.628 0 01-1.152.657 1.775 1.775 0 01-1.288-.464zm-.26 3.983L6.816 17.85l.35-.601 1.179.68.688-1.185-1.18-.688.347-.61 3.012 1.74-.35.606-1.317-.759-.687 1.192 1.317.758-.354.598zm-.885 2.422l-3.29-1.13.226-.659 3.28 1.126-.216.663zm.36 2.501l-.648-.164.165-.647.645.165-.163.646zm-2.14-1.298l-1.361.16 1.139.768.222-.928zm1.645-.92l-.18.75-.837.098-.329 1.349.695.47-.183.716-3.05-2.154.183-.717 3.701-.512zm-3.81 5.524l.92.081.068-.737.438.038-.064.739.93.085.04-.526a1.59 1.59 0 00-.012-.509.604.604 0 00-.232-.33 1.761 1.761 0 00-.799-.218 2.752 2.752 0 00-.607 0 .822.822 0 00-.347.155.73.73 0 00-.217.308l-.032.102a.503.503 0 00-.013.115l-.05.378-.024.32zm-.643.657l.11-1.277c.02-.176.034-.303.053-.392v-.059a.356.356 0 01.028-.085l.01-.051c.008-.018.015-.047.031-.078.083-.187.208-.353.366-.484.176-.136.38-.232.599-.28.27-.058.548-.073.823-.044.261.02.517.084.758.188.209.095.395.235.545.408.102.158.179.331.227.513l.016.117.012.152v.164l-.012.194L7.8 28.77l-1.509-.135-.034.362-.441-.04.034-.362-1.5-.128z" fill="#0087C6"/><path d="M20.113 53.468a25.712 25.712 0 008.327 1.38 25.67 25.67 0 009.445-1.795l-1.431-4.226a21.238 21.238 0 01-8.013 1.564c-2.24.002-4.465-.35-6.594-1.045l-1.734 4.122z" fill="#0087C6"/><path fill-rule="evenodd" clip-rule="evenodd" d="M21.32 53.185l.88.164.436-2.223 2.366 2.773.93.184.599-3.042-.858-.165-.304 1.563-1.646-1.948-1.802-.35-.602 3.044zm6.034.885h3.85v-.426h-2.157v-.95h1.958v-.426h-1.958v-.895h2.078v-.418h-3.771v3.115zm4.635-3.266l.357 1.945c.026.16.09.313.186.444a.94.94 0 00.516.33c.281.065.57.092.86.08.334-.004.667-.036.996-.096 1.527-.286 2.215-.822 2.072-1.604l-.36-1.945-.845.164.33 1.81c.058.33 0 .565-.166.721a1.654 1.654 0 01-.748.293c-.435.083-.749.051-.948-.092a.808.808 0 01-.265-.528l-.337-1.819-1.648.297z" fill="#fff"/><path fill-rule="evenodd" clip-rule="evenodd" d="M19.486 50.427l-.025-.01a3.312 3.312 0 00-.465-1.672c-.354-.617-.792-.93-1.337-.956l-.176-.01-.011.02a1.42 1.42 0 00-1.024-.658l-.142-.018a1.395 1.395 0 00-.995-.766l-.107-.02a1.398 1.398 0 00-.941-.877l-.12-.03c-.165-.495-.451-.799-.856-.944l-.153-.054c-.127-.494-.379-.823-.767-.988l-.165-.072-.016.015c-.087-.494-.308-.838-.677-1.042l-.154-.084-.051.035c-.048-.504-.239-.864-.584-1.096l-.15-.1-.087.052c0-.508-.165-.884-.506-1.14l-.138-.107-.103.05a1.39 1.39 0 00-.417-1.184l-.131-.12-.126.05a1.39 1.39 0 00-.329-1.214l-.12-.13-.128.04a1.39 1.39 0 00-.247-1.236l-.11-.137-.094.022a1.453 1.453 0 00-.165-1.258l-.1-.148h-.026a1.465 1.465 0 00-.1-1.28l-.091-.15-.175.015c-.404.033-.969.273-1.382 1.208l-.008-.015a3.291 3.291 0 00.164-1.708c-.108-.703-.403-1.152-.901-1.374l-.165-.07-.137.111c-.317.262-.648.793-.43 1.833.054.245.152.478.29.687a1.481 1.481 0 00-.893-.321 1.61 1.61 0 00-.232.018l-.176.03-.051.164c-.104.352-.099.892.444 1.539h-.01l-.04.172c-.08.356-.04.892.556 1.501h-.013l-.028.175c-.079.493.165 1.01.678 1.451l-.036.013-.013.178c-.04.494.24.987.788 1.382l-.046.022v.178c0 .501.314.964.899 1.316l-.078.044.015.178c.028.356.23.85 1.007 1.23l-.09.062.028.176c.057.35.296.823 1.094 1.137l-.115.099.043.164c.118.476.54.84 1.184 1.035l-.126.126.056.164c.112.33.42.75 1.247.938l-.008.01-.112.132.066.164c.187.458.658.752 1.308.846l-.02.025-.103.143.082.156c.164.308.526.675 1.352.747l-.01.014-.095.15.096.152c.18.293.57.639 1.387.659l-.082.154.105.145c.19.26.58.571 1.341.571h.08l-.053.117.115.137a1.52 1.52 0 001.224.505c.203-.002.405-.023.604-.064.713-.142 1.162-.627 1.438-.988l.234-.296-.362-.12zM54.302 35.51l-.041-.172h-.013c.548-.65.548-1.188.44-1.54l-.05-.165-.165-.03a1.362 1.362 0 00-.243-.02 1.45 1.45 0 00-.88.314c.13-.207.223-.436.274-.675.217-1.039-.115-1.572-.431-1.835l-.137-.115-.164.074c-.494.224-.785.673-.899 1.374-.082.486-.055.984.08 1.458h-.048c-.405-.72-.899-.917-1.261-.946l-.178-.015-.09.153a1.481 1.481 0 00-.097 1.274h-.015l-.102.15a1.455 1.455 0 00-.176 1.257l-.09-.02-.11.136a1.404 1.404 0 00-.251 1.236l-.125-.04-.122.133a1.396 1.396 0 00-.33 1.21l-.126-.049-.13.12a1.38 1.38 0 00-.41 1.187l-.111-.053-.139.107a1.35 1.35 0 00-.493 1.134l-.08-.046-.15.099a1.372 1.372 0 00-.59 1.097l-.05-.036-.156.086a1.369 1.369 0 00-.678 1.041l-.016-.013-.165.071c-.383.164-.635.494-.763.987l-.15.053c-.41.143-.693.453-.859.941l-.128.033a1.427 1.427 0 00-.935.877l-.112.02a1.411 1.411 0 00-.987.765l-.142.018a1.434 1.434 0 00-1.022.659l-.011-.022-.176.01c-.547.026-.988.34-1.332.955a3.291 3.291 0 00-.47 1.673l-.023.01-.344.142.214.29c.344.495.857.846 1.443.988.193.038.39.058.587.06.678 0 1.049-.277 1.238-.509l.112-.137-.053-.117h.082c.764 0 1.152-.312 1.338-.574l.104-.143-.082-.153c.822-.018 1.214-.36 1.392-.658l.092-.15-.092-.148-.017-.023c.835-.07 1.2-.44 1.358-.75l.079-.154-.1-.14c0-.008-.012-.013-.017-.02.823-.124 1.168-.524 1.305-.85l.07-.165-.114-.133h-.008c.822-.187 1.133-.61 1.245-.943l.06-.164-.127-.12c.822-.246 1.09-.693 1.176-1.036l.043-.164-.115-.097c.805-.314 1.045-.788 1.102-1.139l.028-.176-.092-.064c.777-.38.976-.876 1-1.23l.014-.174-.076-.044c.583-.346.902-.807.902-1.317v-.18l-.048-.022c.55-.399.823-.886.787-1.384l-.015-.173-.04-.017c.659-.556.743-1.092.689-1.453l-.027-.179h-.01c.585-.612.626-1.139.545-1.5z" fill="#D4D4D2"/><path fill-rule="evenodd" clip-rule="evenodd" d="M38.763 50.69a3.023 3.023 0 011.662-.192c.58.087.97.3 1.162.725-.288.352-.812.494-1.554.35-.563-.118-.953-.471-1.27-.883z" fill="#F5E50D"/><path fill-rule="evenodd" clip-rule="evenodd" d="M40.29 50.076a2.926 2.926 0 011.595-.294c.566.044.956.227 1.17.63-.255.355-.754.525-1.481.431-.547-.076-.945-.393-1.284-.767z" fill="#F5E50D"/><path fill-rule="evenodd" clip-rule="evenodd" d="M41.76 49.334a2.928 2.928 0 011.522-.387c.548 0 .941.165 1.175.535-.22.359-.688.555-1.402.512-.542-.033-.945-.318-1.295-.658m1.391-.846c.43-.296.934-.467 1.455-.494.537-.03.935.088 1.183.436-.189.37-.633.594-1.33.608-.524 0-.939-.245-1.308-.548m1.317-.937a2.735 2.735 0 011.384-.59c.523-.075.918.011 1.19.329-.165.378-.573.637-1.253.699-.515.043-.938-.165-1.316-.438m1.244-1.036c.364-.351.821-.59 1.317-.69.516-.115.901-.06 1.203.23-.13.382-.517.659-1.177.784-.494.085-.935-.088-1.338-.33m1.163-1.097a2.688 2.688 0 011.251-.795c.494-.151.882-.13 1.196.138-.095.385-.452.7-1.1.866-.494.125-.93-.008-1.347-.21zm1.085-1.19a2.615 2.615 0 011.175-.885c.48-.194.877-.206 1.213.03-.064.4-.397.74-1.03.96-.474.165-.925.066-1.358-.105zm.997-1.241a2.691 2.691 0 011.104-.987c.468-.234.868-.28 1.221-.067-.03.403-.329.775-.947 1.046-.47.208-.932.148-1.378.013" fill="#F5E50D"/><path fill-rule="evenodd" clip-rule="evenodd" d="M49.87 41.675c.236-.453.594-.83 1.034-1.089.456-.276.852-.347 1.228-.165 0 .409-.275.812-.877 1.13-.45.246-.924.226-1.384.128" fill="#F5E50D"/><path fill-rule="evenodd" clip-rule="evenodd" d="M50.67 40.315c.208-.479.543-.891.97-1.192.432-.313.832-.423 1.23-.26.035.413-.215.844-.8 1.22-.442.286-.924.297-1.4.232z" fill="#F5E50D"/><path fill-rule="evenodd" clip-rule="evenodd" d="M51.367 38.89a2.86 2.86 0 01.898-1.293c.423-.35.823-.493 1.242-.367.065.427-.164.884-.733 1.317-.425.33-.917.382-1.407.35" fill="#F5E50D"/><path fill-rule="evenodd" clip-rule="evenodd" d="M51.949 37.426c.14-.529.425-1.008.823-1.384.413-.4.806-.57 1.252-.467.099.43-.105.917-.658 1.399-.417.362-.922.45-1.424.452" fill="#F5E50D"/><path fill-rule="evenodd" clip-rule="evenodd" d="M52.403 35.926a3.029 3.029 0 01.762-1.481c.394-.438.793-.64 1.252-.56.132.43-.037.943-.577 1.481-.403.405-.917.527-1.437.566M38.962 50.498a3 3 0 01.433-1.611c.286-.507.635-.792 1.1-.815.221.395.165.933-.246 1.572-.308.475-.785.709-1.287.854z" fill="#F5E50D"/><path fill-rule="evenodd" clip-rule="evenodd" d="M40.402 49.876a2.927 2.927 0 01.306-1.588c.255-.509.568-.807 1.017-.861.242.37.215.895-.139 1.535-.27.484-.714.74-1.184.914z" fill="#F5E50D"/><path fill-rule="evenodd" clip-rule="evenodd" d="M41.76 49.104a2.873 2.873 0 01.187-1.557c.212-.517.494-.823.928-.905.255.342.272.846-.03 1.497-.23.484-.638.759-1.085.965z" fill="#F5E50D"/><path fill-rule="evenodd" clip-rule="evenodd" d="M43.04 48.213a2.852 2.852 0 01.069-1.533c.173-.512.424-.835.836-.945.275.314.329.806.08 1.456-.185.494-.567.792-.987 1.022" fill="#F5E50D"/><path fill-rule="evenodd" clip-rule="evenodd" d="M44.254 47.25a2.707 2.707 0 01-.05-1.507c.121-.508.345-.844.748-.987.29.286.382.767.184 1.422-.145.494-.493.813-.882 1.071" fill="#F5E50D"/><path fill-rule="evenodd" clip-rule="evenodd" d="M45.398 46.212a2.67 2.67 0 01-.165-1.48c.082-.514.272-.863.658-1.032.315.26.435.727.305 1.387-.109.493-.428.834-.793 1.119" fill="#F5E50D"/><path fill-rule="evenodd" clip-rule="evenodd" d="M46.48 45.121a2.641 2.641 0 01-.279-1.445c.04-.521.198-.878.563-1.08.33.233.494.69.403 1.35-.054.494-.346.863-.688 1.175z" fill="#F5E50D"/><path fill-rule="evenodd" clip-rule="evenodd" d="M47.503 43.98a2.73 2.73 0 01-.397-1.42c0-.52.128-.891.474-1.122.342.206.545.644.515 1.309-.02.503-.275.892-.592 1.232z" fill="#F5E50D"/><path fill-rule="evenodd" clip-rule="evenodd" d="M48.462 42.783a2.67 2.67 0 01-.517-1.394c-.05-.52.053-.899.384-1.152.362.165.595.593.625 1.269.018.507-.206.915-.494 1.279m.894-1.238a2.692 2.692 0 01-.637-1.364c-.094-.523-.018-.915.29-1.2.381.148.65.553.737 1.231.06.509-.135.943-.39 1.333zm.803-1.28a2.862 2.862 0 01-.754-1.338c-.135-.519-.085-.928.21-1.244.396.123.707.515.845 1.191.099.514-.064.971-.301 1.39z" fill="#F5E50D"/><path fill-rule="evenodd" clip-rule="evenodd" d="M50.874 38.934a2.823 2.823 0 01-.87-1.307c-.175-.518-.165-.945.117-1.284.416.091.758.47.95 1.152.144.517.012.988-.197 1.435m.596-1.37a3.027 3.027 0 01-.987-1.279c-.219-.518-.23-.953.028-1.331.433.069.814.434 1.056 1.12.19.517.086 1.022-.097 1.49z" fill="#F5E50D"/><path fill-rule="evenodd" clip-rule="evenodd" d="M51.913 36.138a2.976 2.976 0 01-1.108-1.25c-.266-.527-.308-.972-.07-1.373.455.038.87.386 1.174 1.078.223.526.165 1.046 0 1.545m.541-1.718a3.007 3.007 0 01-.182-1.66c.094-.578.315-.968.736-1.152.352.294.494.822.329 1.56-.119.56-.472.944-.889 1.26M19.38 50.69a3.028 3.028 0 00-1.66-.192c-.582.087-.97.3-1.165.725.291.352.811.494 1.555.344.556-.112.947-.465 1.27-.877z" fill="#F5E50D"/><path fill-rule="evenodd" clip-rule="evenodd" d="M17.847 50.076a2.908 2.908 0 00-1.593-.294c-.568.044-.958.227-1.172.63.26.355.755.525 1.481.433.552-.078.945-.395 1.284-.769z" fill="#F5E50D"/><path fill-rule="evenodd" clip-rule="evenodd" d="M16.382 49.334a2.928 2.928 0 00-1.517-.387c-.555 0-.945.165-1.182.529.228.365.695.56 1.4.518.539-.033.949-.318 1.3-.658m-1.398-.846a2.779 2.779 0 00-1.453-.494c-.53-.036-.927.087-1.182.436.195.369.632.594 1.33.607.522 0 .941-.245 1.305-.547m-1.322-.937a2.706 2.706 0 00-1.379-.59c-.525-.075-.918 0-1.19.329.165.378.573.637 1.248.694.512.048.941-.164 1.316-.433m-1.235-1.037a2.633 2.633 0 00-1.317-.69c-.51-.114-.898-.058-1.196.234.128.379.517.659 1.178.78.494.088.935-.087 1.335-.329m-1.172-1.097a2.661 2.661 0 00-1.242-.795c-.494-.151-.887-.13-1.206.138.097.385.459.7 1.1.866.46.098.94.024 1.348-.21zm-1.079-1.19c-.302-.4-.71-.706-1.177-.885-.484-.194-.872-.204-1.21.03.066.4.394.74 1.027.96.474.165.929.066 1.36-.105zm-1.001-1.241a2.681 2.681 0 00-1.1-.987c-.475-.232-.865-.278-1.227-.066.033.403.34.775.955 1.047.464.207.928.148 1.372.013" fill="#F5E50D"/><path fill-rule="evenodd" clip-rule="evenodd" d="M8.264 41.675a2.655 2.655 0 00-1.04-1.089c-.446-.276-.844-.347-1.22-.165 0 .409.277.812.873 1.13.453.246.925.226 1.387.128" fill="#F5E50D"/><path fill-rule="evenodd" clip-rule="evenodd" d="M7.464 40.314a2.763 2.763 0 00-.966-1.191c-.437-.313-.822-.418-1.23-.26-.033.413.217.844.803 1.22.442.286.918.297 1.393.231z" fill="#F5E50D"/><path fill-rule="evenodd" clip-rule="evenodd" d="M6.773 38.891a2.882 2.882 0 00-.901-1.293c-.42-.354-.823-.494-1.236-.362-.068.42.164.878.724 1.305.43.329.925.378 1.413.35z" fill="#F5E50D"/><path fill-rule="evenodd" clip-rule="evenodd" d="M6.19 37.426a2.888 2.888 0 00-.822-1.384c-.408-.4-.808-.57-1.244-.467-.096.43.102.917.65 1.399.423.362.918.447 1.423.452" fill="#F5E50D"/><path fill-rule="evenodd" clip-rule="evenodd" d="M5.737 35.926a2.979 2.979 0 00-.765-1.482c-.392-.43-.787-.635-1.251-.559-.127.43.038.943.576 1.481.406.405.92.527 1.44.566m13.441 14.566a3.01 3.01 0 00-.43-1.611c-.29-.507-.636-.792-1.104-.815-.22.395-.164.933.25 1.572.31.475.782.709 1.284.854z" fill="#F5E50D"/><path fill-rule="evenodd" clip-rule="evenodd" d="M17.733 49.876a2.857 2.857 0 00-.306-1.588c-.245-.509-.563-.807-1.013-.861-.237.37-.216.895.141 1.535.265.484.713.74 1.178.914z" fill="#F5E50D"/><path fill-rule="evenodd" clip-rule="evenodd" d="M16.382 49.104a2.816 2.816 0 00-.192-1.557c-.206-.517-.494-.823-.93-.905-.25.34-.265.846.036 1.497.227.484.64.759 1.086.965z" fill="#F5E50D"/><path fill-rule="evenodd" clip-rule="evenodd" d="M15.103 48.213a2.797 2.797 0 00-.077-1.538c-.165-.507-.418-.823-.834-.94-.272.314-.33.806-.08 1.456.188.494.573.792.988 1.022" fill="#F5E50D"/><path fill-rule="evenodd" clip-rule="evenodd" d="M13.887 47.25c.157-.487.174-1.01.05-1.507-.125-.513-.35-.844-.746-.987-.29.286-.378.767-.186 1.422.14.494.494.813.882 1.071" fill="#F5E50D"/><path fill-rule="evenodd" clip-rule="evenodd" d="M12.745 46.212c.19-.469.247-.981.165-1.48-.08-.514-.277-.863-.658-1.032-.31.26-.432.727-.302 1.387.118.458.4.857.795 1.119" fill="#F5E50D"/><path fill-rule="evenodd" clip-rule="evenodd" d="M11.66 45.121c.225-.446.322-.947.279-1.445-.038-.521-.2-.878-.563-1.08-.329.233-.493.69-.41 1.35.065.494.348.863.695 1.175z" fill="#F5E50D"/><path fill-rule="evenodd" clip-rule="evenodd" d="M10.634 43.98c.264-.427.403-.92.403-1.42 0-.52-.131-.891-.474-1.122-.349.206-.544.644-.52 1.309.022.503.277.892.591 1.232z" fill="#F5E50D"/><path fill-rule="evenodd" clip-rule="evenodd" d="M9.683 42.783a2.71 2.71 0 00.51-1.394c.046-.52-.06-.902-.385-1.152-.362.165-.596.593-.62 1.269-.027.493.205.915.493 1.279" fill="#F5E50D"/><path fill-rule="evenodd" clip-rule="evenodd" d="M8.79 41.547c.336-.386.557-.859.638-1.364.089-.523.011-.915-.298-1.2-.377.148-.65.553-.736 1.231-.037.478.105.953.397 1.333zm-.81-1.28a2.8 2.8 0 00.753-1.338c.134-.519.09-.928-.205-1.244-.4.123-.701.515-.841 1.191-.102.514.057.971.293 1.39z" fill="#F5E50D"/><path fill-rule="evenodd" clip-rule="evenodd" d="M7.26 38.934c.409-.344.71-.797.871-1.307.18-.518.165-.945-.112-1.284-.413.091-.759.466-.951 1.152-.147.517-.012.988.192 1.435" fill="#F5E50D"/><path fill-rule="evenodd" clip-rule="evenodd" d="M6.668 37.56c.441-.327.783-.77.987-1.279.216-.518.236-.953-.021-1.33-.438.068-.823.433-1.061 1.12-.186.516-.084 1.021.095 1.489z" fill="#F5E50D"/><path fill-rule="evenodd" clip-rule="evenodd" d="M6.232 36.138a2.99 2.99 0 001.104-1.25c.26-.527.308-.972.064-1.373-.452.038-.867.386-1.163 1.078-.23.526-.165 1.05 0 1.545m-.551-1.718a2.975 2.975 0 00.182-1.66c-.089-.581-.31-.968-.735-1.152-.352.29-.494.814-.33 1.556.116.56.473.945.886 1.26" fill="#F5E50D"/><path fill-rule="evenodd" clip-rule="evenodd" d="M3.521 32.67c.22.438 1.646 1.689 1.646 1.689-.324-.724-1.646-1.689-1.646-1.689zm2.367 1.926c.55-.578.953-2.162.953-2.162-.324.365-.953 2.162-.953 2.162zm48.748-1.966c-.218.435-1.653 1.686-1.653 1.686.332-.724 1.654-1.687 1.654-1.687zm-2.366 1.925c-.55-.576-.953-2.163-.953-2.163.325.366.953 2.163.953 2.163z" fill="#D4D4D2"/></g><path d="M72.622 11.98v9.242h-1.898V11.98h1.898zm2.844 0v1.492h-7.541V11.98h7.54zm1.085 0h3.447c.707 0 1.314.106 1.822.317.512.212.905.525 1.18.94.275.415.413.925.413 1.53 0 .495-.085.92-.254 1.276a2.39 2.39 0 01-.704.882 3.63 3.63 0 01-1.06.558l-.603.318h-2.997l-.012-1.486h2.228c.334 0 .611-.059.831-.177a1.17 1.17 0 00.495-.495c.115-.212.172-.458.172-.737a1.67 1.67 0 00-.165-.768 1.113 1.113 0 00-.502-.495c-.224-.114-.505-.171-.844-.171h-1.542v7.75H76.55V11.98zm5.167 9.242l-2.107-4.12 2.012-.012 2.133 4.043v.09h-2.038zm8.265-9.242h1.898v6.106c0 .711-.153 1.31-.457 1.797a2.82 2.82 0 01-1.25 1.098c-.53.245-1.139.368-1.829.368s-1.303-.123-1.84-.368a2.86 2.86 0 01-1.257-1.098c-.3-.487-.451-1.086-.451-1.797V11.98H86.7v6.106c0 .415.066.754.197 1.016s.32.455.565.578c.25.122.544.184.882.184.347 0 .641-.062.883-.184a1.22 1.22 0 00.558-.578c.131-.262.197-.6.197-1.016V11.98zm10.988 0v9.242h-1.905l-3.713-6.195v6.195h-1.904V11.98h1.904l3.72 6.202V11.98h1.898zm8.982 4.412v3.662c-.144.174-.366.362-.667.565-.3.199-.688.37-1.162.514-.473.144-1.047.216-1.72.216a4.39 4.39 0 01-1.631-.292 3.53 3.53 0 01-1.27-.87 3.918 3.918 0 01-.812-1.396c-.191-.554-.286-1.187-.286-1.898v-.578c0-.71.091-1.343.273-1.898a3.937 3.937 0 01.794-1.402 3.39 3.39 0 011.225-.87 4.046 4.046 0 011.58-.298c.804 0 1.465.13 1.981.393.516.258.91.618 1.18 1.08.276.456.445.981.508 1.574h-1.847a2.354 2.354 0 00-.266-.82 1.386 1.386 0 00-.565-.545c-.242-.131-.555-.197-.94-.197a1.8 1.8 0 00-.85.197 1.687 1.687 0 00-.623.565c-.169.25-.298.558-.387.927a5.495 5.495 0 00-.133 1.282v.59c0 .482.046.91.14 1.282.093.369.23.68.412.933.186.25.415.438.686.565.271.127.586.19.946.19.3 0 .55-.025.749-.075.203-.051.366-.113.488-.184.127-.077.225-.149.292-.216V17.75h-1.739v-1.358h3.644zm8.563-4.412v9.242h-1.898V11.98h1.898zm2.843 0v1.492h-7.541V11.98h7.541zm4.158 1.58l-2.514 7.662h-2.024l3.434-9.242h1.288l-.184 1.58zm2.088 7.662l-2.52-7.662-.203-1.58h1.302l3.453 9.242h-2.032zm-.114-3.44v1.491h-4.881v-1.491h4.881zm-1.644-8.278l1.917 1.765v.076h-1.453l-.997-.927-.984.927h-1.428v-.095l1.885-1.746h1.06zm5.516 2.476h1.613l2.374 6.786 2.374-6.786h1.612l-3.339 9.242h-1.295l-3.339-9.242zm-.869 0h1.606l.292 6.614v2.628h-1.898V11.98zm8.106 0h1.612v9.242h-1.904v-2.628l.292-6.614zm10.308 0v9.242h-1.898V11.98h1.898zm2.844 0v1.492h-7.541V11.98h7.541zm7.249 3.764v1.486h-4.824v-1.486h4.824zm-4.259-3.764v9.242h-1.905V11.98h1.905zm5.617 0v9.242h-1.898V11.98h1.898zm9.249 4.405v.438c0 .703-.095 1.333-.286 1.892a4.153 4.153 0 01-.806 1.428c-.347.39-.762.688-1.244.895a3.963 3.963 0 01-1.593.311 4.02 4.02 0 01-1.594-.31 3.58 3.58 0 01-1.244-.896 4.193 4.193 0 01-.819-1.428c-.19-.559-.285-1.19-.285-1.892v-.438c0-.707.095-1.337.285-1.891.191-.559.46-1.035.807-1.429a3.534 3.534 0 011.244-.9 3.989 3.989 0 011.593-.312c.584 0 1.115.104 1.593.311.483.207.897.508 1.244.901.352.394.622.87.813 1.429.195.554.292 1.184.292 1.891zm-1.923.438v-.45c0-.491-.045-.923-.134-1.295a2.82 2.82 0 00-.393-.94 1.7 1.7 0 00-.635-.571 1.815 1.815 0 00-.857-.197c-.322 0-.607.066-.857.197a1.713 1.713 0 00-.628.571 2.88 2.88 0 00-.388.94 5.666 5.666 0 00-.133 1.295v.45c0 .487.045.918.133 1.295.089.373.22.688.394.946.173.254.385.446.635.578.249.13.535.196.857.196.321 0 .607-.065.857-.196.249-.132.459-.324.628-.578a2.98 2.98 0 00.387-.946c.089-.377.134-.808.134-1.295zm-1.492-7.325l1.917 1.765v.076h-1.454l-.996-.927-.984.927h-1.428v-.095l1.885-1.746h1.06zm12.308 2.482v9.242h-1.904l-3.714-6.195v6.195h-1.904V11.98h1.904l3.72 6.202V11.98h1.898zm8.982 4.412v3.662c-.144.174-.366.362-.667.565-.3.199-.687.37-1.161.514-.474.144-1.048.216-1.72.216a4.391 4.391 0 01-1.632-.292 3.517 3.517 0 01-1.269-.87 3.92 3.92 0 01-.813-1.396c-.19-.554-.285-1.187-.285-1.898v-.578c0-.71.091-1.343.272-1.898a3.952 3.952 0 01.794-1.402 3.398 3.398 0 011.225-.87 4.048 4.048 0 011.581-.298c.804 0 1.464.13 1.98.393.516.258.91.618 1.181 1.08.275.456.444.981.508 1.574h-1.848a2.354 2.354 0 00-.266-.82 1.38 1.38 0 00-.565-.545c-.241-.131-.555-.197-.94-.197a1.8 1.8 0 00-.85.197 1.677 1.677 0 00-.622.565c-.17.25-.299.558-.387.927a5.492 5.492 0 00-.134 1.282v.59c0 .482.047.91.14 1.282.093.369.23.68.412.933.187.25.415.438.686.565.271.127.586.19.946.19.3 0 .55-.025.749-.075.203-.051.366-.113.489-.184.127-.077.224-.149.292-.216V17.75h-1.74v-1.358h3.644zm8.563-4.412v9.242h-1.898V11.98h1.898zm2.844 0v1.492h-7.541V11.98h7.541zm3.11 0v9.242h-1.898V11.98H202zm9.306 0v9.242h-1.905l-3.713-6.195v6.195h-1.904V11.98h1.904l3.72 6.202V11.98h1.898zm8.385 4.558v1.434h-3.587v-1.434h3.587zm8.664-4.558v9.242h-1.897V11.98h1.897zm2.844 0v1.492h-7.541V11.98h7.541zm7.249 3.764v1.486h-4.824v-1.486h4.824zm-4.259-3.764v9.242h-1.904V11.98h1.904zm5.618 0v9.242h-1.898V11.98h1.898zm9.902-.514h1.206c0 .622-.08 1.153-.241 1.593a1.89 1.89 0 01-.832 1.003c-.389.229-.929.343-1.618.343v-.984c.448 0 .778-.076.99-.229.211-.156.347-.38.406-.672.059-.293.089-.644.089-1.054zm-3.142.514h1.898v6.106c0 .711-.153 1.31-.457 1.797a2.82 2.82 0 01-1.251 1.098c-.529.245-1.138.368-1.828.368-.69 0-1.303-.123-1.841-.368a2.854 2.854 0 01-1.256-1.098c-.301-.487-.451-1.086-.451-1.797V11.98h1.904v6.106c0 .415.066.754.197 1.016s.319.455.565.578c.25.122.544.184.882.184.347 0 .641-.062.883-.184a1.22 1.22 0 00.558-.578c.131-.262.197-.6.197-1.016V11.98zm10.734 7.313l2.177-7.313h2.12l-3.218 9.242h-1.397l.318-1.93zm-2.006-7.313l2.171 7.313.33 1.93h-1.409l-3.2-9.243h2.108zm9.191 0v9.242h-1.898V11.98h1.898zm7.986 7.757v1.485h-4.92v-1.485h4.92zm-4.298-7.757v9.242h-1.904V11.98h1.904zm3.657 3.764v1.447h-4.279v-1.447h4.279zm.634-3.764v1.492h-4.913V11.98h4.913zm-2.456-2.501l1.917 1.765v.076h-1.454l-.996-.927-.984.927h-1.429v-.095l1.886-1.746h1.06zm-1.543 13.171c0-.245.093-.45.28-.615.186-.161.435-.241.749-.241.309 0 .556.08.742.24a.78.78 0 01.286.616.774.774 0 01-.286.61c-.186.165-.433.247-.742.247-.314 0-.563-.082-.749-.247a.781.781 0 01-.28-.61zm12.638-10.67v9.242H279.2l-3.713-6.195v6.195h-1.904V11.98h1.904l3.72 6.202V11.98h1.897zM72.407 45.222H69.93l.016-1.828h2.46c.615 0 1.133-.138 1.555-.414.422-.281.74-.69.954-1.227.218-.536.328-1.184.328-1.945v-.555c0-.583-.063-1.096-.188-1.539a3.06 3.06 0 00-.539-1.117 2.255 2.255 0 00-.883-.68 2.916 2.916 0 00-1.203-.234h-2.547v-1.836h2.547c.76 0 1.456.13 2.086.39a4.703 4.703 0 011.648 1.102c.464.48.82 1.052 1.07 1.72.256.66.384 1.398.384 2.21v.54c0 .806-.128 1.543-.383 2.21a4.924 4.924 0 01-1.07 1.719 4.751 4.751 0 01-1.649 1.101c-.635.256-1.338.383-2.11.383zm-1.149-11.375v11.375h-2.343V33.847h2.343zm1.969 4.945v1.391H67.75v-1.39h5.477zm10.547-3l-3.094 9.43h-2.492l4.227-11.375H84l-.226 1.945zm2.57 9.43l-3.101-9.43-.25-1.945h1.601l4.25 11.375h-2.5zm-.14-4.234v1.836h-6.008v-1.836h6.008zm-3.899 6.023c0-.302.115-.555.344-.758.23-.197.536-.297.922-.297.38 0 .685.1.914.297a.962.962 0 01.351.758.955.955 0 01-.351.75c-.23.203-.534.305-.914.305-.386 0-.693-.102-.922-.305a.963.963 0 01-.344-.75zm10.086-13.164v11.375h-2.336V33.847h2.336zm13.766 4.633v1.828h-5.938V38.48h5.938zm-5.242-4.633v11.375h-2.344V33.847h2.344zm6.914 0v11.375h-2.336V33.847h2.336zm11.382 5.422v.54c0 .864-.117 1.64-.351 2.327-.235.688-.565 1.274-.992 1.758a4.3 4.3 0 01-1.532 1.102c-.588.255-1.242.382-1.961.382a4.91 4.91 0 01-1.96-.382 4.4 4.4 0 01-1.532-1.102 5.16 5.16 0 01-1.008-1.758c-.234-.687-.351-1.463-.351-2.328v-.539c0-.87.117-1.646.351-2.328a5.133 5.133 0 01.993-1.758 4.343 4.343 0 011.531-1.11 4.914 4.914 0 011.961-.382 4.88 4.88 0 011.961.383 4.255 4.255 0 011.531 1.11 5.05 5.05 0 011 1.757c.24.682.359 1.458.359 2.328zm-2.367.54v-.556a6.87 6.87 0 00-.164-1.593 3.457 3.457 0 00-.484-1.157 2.096 2.096 0 00-.781-.703 2.236 2.236 0 00-1.055-.242c-.396 0-.748.08-1.055.242-.302.157-.56.39-.773.703-.209.313-.367.698-.477 1.157a6.93 6.93 0 00-.164 1.593v.555c0 .6.055 1.13.164 1.594.11.458.271.846.485 1.164.213.312.473.55.781.71.307.162.659.243 1.054.243.396 0 .748-.08 1.055-.242.307-.162.565-.399.774-.711.208-.318.367-.706.476-1.164.11-.464.164-.995.164-1.594zm-3.711 7.25c0-.303.115-.556.344-.759.229-.198.536-.297.922-.297.38 0 .685.1.914.297a.964.964 0 01.352.758.956.956 0 01-.352.75c-.229.203-.534.305-.914.305-.386 0-.693-.102-.922-.305a.964.964 0 01-.344-.75zm14.36-5.61h2.336c-.047.765-.258 1.445-.633 2.039a3.772 3.772 0 01-1.555 1.39c-.661.334-1.458.5-2.391.5-.729 0-1.382-.125-1.96-.375a4.173 4.173 0 01-1.485-1.093c-.406-.474-.716-1.047-.93-1.72-.213-.671-.32-1.424-.32-2.257v-.789c0-.833.11-1.586.328-2.258.224-.677.542-1.252.953-1.726a4.245 4.245 0 011.493-1.094c.578-.255 1.224-.383 1.937-.383.948 0 1.747.172 2.399.516a3.755 3.755 0 011.523 1.422c.365.604.583 1.291.656 2.062H127.5c-.026-.458-.117-.846-.273-1.164a1.549 1.549 0 00-.711-.727c-.312-.166-.729-.25-1.25-.25-.391 0-.732.073-1.023.22a1.9 1.9 0 00-.735.663c-.198.297-.346.672-.445 1.125a7.764 7.764 0 00-.141 1.578v.805c0 .589.045 1.107.133 1.555.089.443.224.818.406 1.125.188.302.427.531.719.687.297.151.654.227 1.07.227.49 0 .894-.078 1.211-.235a1.62 1.62 0 00.727-.695c.172-.307.273-.69.305-1.148zm10.203-7.602v11.375h-2.344V33.847h2.344zm6.812 0L140 39.464l-2.601 2.797-.422-2.219 1.758-2.406 2.898-3.789h2.875zm-2.664 11.375l-3.351-5.258 1.734-1.453 4.391 6.711h-2.774zm6.172-11.375v11.375h-2.336V33.847h2.336zm11.453 0v11.375h-2.344l-4.57-7.625v7.625h-2.344V33.847h2.344l4.578 7.633v-7.633h2.336zm9.625 4.633v1.828h-5.937V38.48h5.937zm-5.242-4.633v11.375h-2.344V33.847h2.344zm6.914 0v11.375h-2.336V33.847h2.336zm10.688 0v11.375h-2.336V33.847h2.336zm3.5 0v1.836h-9.282v-1.836h9.282zm8.968 9.547v1.828h-6.054v-1.828h6.054zm-5.289-9.547v11.375h-2.343V33.847h2.343zm4.5 4.633v1.781h-5.265V38.48h5.265zm.782-4.633v1.836h-6.047v-1.836h6.047zm-6.524-.656l2.211-1.813h1.25l2.219 1.813h-1.656l-1.188-1.008-1.187 1.008h-1.649zm5.109-1.07l1.282-2.102h1.773l-1.773 2.102H192.5zm12.954 11.414l3.078 2.437-1.477 1.281-3.031-2.437 1.43-1.281zm3.156-4.266v.54c0 .864-.117 1.64-.352 2.327a4.956 4.956 0 01-.992 1.758c-.432.48-.943.846-1.531 1.102a4.88 4.88 0 01-1.961.382 4.914 4.914 0 01-1.961-.382 4.371 4.371 0 01-1.539-1.102 5.16 5.16 0 01-1.008-1.758c-.234-.687-.351-1.463-.351-2.328v-.539c0-.87.117-1.646.351-2.328.24-.688.573-1.274 1-1.758a4.264 4.264 0 011.531-1.11 4.918 4.918 0 011.961-.382c.719 0 1.373.127 1.961.383a4.327 4.327 0 011.539 1.11c.433.483.766 1.07 1 1.757.235.682.352 1.458.352 2.328zm-2.367.54v-.556c0-.604-.058-1.135-.172-1.593-.11-.459-.271-.844-.485-1.157a2.03 2.03 0 00-.773-.703 2.233 2.233 0 00-1.055-.242c-.396 0-.747.08-1.054.242-.308.157-.566.39-.774.703a3.56 3.56 0 00-.476 1.157c-.11.458-.164.99-.164 1.593v.555c0 .6.054 1.13.164 1.594.109.458.268.846.476 1.164.214.312.474.55.781.71.313.162.667.243 1.063.243.396 0 .745-.08 1.047-.242.307-.162.565-.399.773-.711a3.55 3.55 0 00.485-1.164c.109-.464.164-.995.164-1.594zm10.343-5.962h2.336v7.516c0 .875-.187 1.612-.562 2.21a3.473 3.473 0 01-1.539 1.352c-.651.302-1.401.453-2.25.453s-1.604-.15-2.266-.453a3.52 3.52 0 01-1.547-1.351c-.37-.6-.554-1.336-.554-2.211v-7.516h2.343v7.516c0 .51.081.927.243 1.25.161.323.393.56.695.71.307.152.669.227 1.086.227.427 0 .789-.075 1.086-.226.302-.151.531-.388.687-.711.162-.323.242-.74.242-1.25v-7.516zm13.61 5.422v.54c0 .864-.117 1.64-.352 2.327a5.114 5.114 0 01-.992 1.758c-.427.48-.937.846-1.531 1.102a4.88 4.88 0 01-1.961.382 4.914 4.914 0 01-1.961-.382 4.387 4.387 0 01-1.531-1.102 5.127 5.127 0 01-1.008-1.758c-.235-.687-.352-1.463-.352-2.328v-.539c0-.87.117-1.646.352-2.328a5.115 5.115 0 01.992-1.758 4.352 4.352 0 011.531-1.11 4.918 4.918 0 011.961-.382c.719 0 1.373.127 1.961.383a4.255 4.255 0 011.531 1.11c.433.483.766 1.07 1 1.757.24.682.36 1.458.36 2.328zm-2.367.54v-.556c0-.604-.055-1.135-.164-1.593-.11-.459-.271-.844-.485-1.157a2.088 2.088 0 00-.781-.703 2.233 2.233 0 00-1.055-.242c-.396 0-.747.08-1.054.242a2.11 2.11 0 00-.774.703 3.56 3.56 0 00-.476 1.157c-.11.458-.165.99-.165 1.593v.555c0 .6.055 1.13.165 1.594.109.458.27.846.484 1.164.213.312.474.55.781.71.307.162.659.243 1.055.243.396 0 .747-.08 1.055-.242.307-.162.565-.399.773-.711a3.68 3.68 0 00.477-1.164c.109-.464.164-.995.164-1.594zm-5.336-6.595l2.211-1.812h1.25l2.218 1.812h-1.656l-1.187-1.008-1.188 1.008h-1.648zm5.109-1.07l1.281-2.101h1.774l-1.774 2.101h-1.281zm10.875 9.305h2.336c-.047.765-.258 1.445-.633 2.039a3.772 3.772 0 01-1.555 1.39c-.661.334-1.458.5-2.39.5-.729 0-1.383-.125-1.961-.375a4.169 4.169 0 01-1.484-1.093c-.407-.474-.717-1.047-.93-1.72-.214-.671-.32-1.424-.32-2.257v-.789c0-.833.109-1.586.328-2.258.224-.677.541-1.252.953-1.726a4.242 4.242 0 011.492-1.094c.578-.255 1.224-.383 1.937-.383.948 0 1.748.172 2.399.516a3.755 3.755 0 011.523 1.422c.365.604.584 1.291.657 2.062h-2.344c-.026-.458-.117-.846-.274-1.164a1.549 1.549 0 00-.711-.727c-.312-.166-.729-.25-1.25-.25-.39 0-.731.073-1.023.22a1.898 1.898 0 00-.734.663c-.198.297-.347.672-.446 1.125-.093.448-.14.974-.14 1.578v.805c0 .589.044 1.107.133 1.555.088.443.223.818.406 1.125.187.302.427.531.719.687.296.151.653.227 1.07.227.489 0 .893-.078 1.211-.235.317-.156.56-.388.726-.695.172-.307.274-.69.305-1.148zm11.352 3.773h-2.477l.016-1.828h2.461c.614 0 1.132-.138 1.554-.414.422-.281.74-.69.953-1.227.219-.536.329-1.184.329-1.945v-.555c0-.583-.063-1.096-.188-1.539a3.057 3.057 0 00-.539-1.117 2.257 2.257 0 00-.883-.68 2.916 2.916 0 00-1.203-.234h-2.547v-1.836h2.547c.76 0 1.456.13 2.086.39a4.7 4.7 0 011.648 1.102 4.92 4.92 0 011.071 1.72c.255.66.383 1.398.383 2.21v.54c0 .806-.128 1.543-.383 2.21a4.92 4.92 0 01-1.071 1.719 4.743 4.743 0 01-1.648 1.101c-.635.256-1.339.383-2.109.383zm-1.149-11.375v11.375h-2.344V33.847h2.344zm12.516 1.945l-3.094 9.43h-2.492l4.226-11.375h1.586l-.226 1.945zm2.57 9.43l-3.101-9.43-.25-1.945h1.601l4.25 11.375h-2.5zm-.141-4.234v1.836h-6.007v-1.836h6.007zM261.602 30.8l2.359 2.172v.094h-1.789l-1.226-1.14-1.211 1.14h-1.758v-.117l2.32-2.149h1.305zm14.977 3.047v11.375h-2.344l-4.57-7.625v7.625h-2.344V33.847h2.344l4.578 7.633v-7.633h2.336z" fill="#0065CA"/><defs><clipPath id="clip0_422_90807"><path fill="#fff" d="M0 0h57.998v58H0z"/></clipPath></defs></svg>