<svg width="187" height="36" fill="none" xmlns="http://www.w3.org/2000/svg"><g clip-path="url(#clip0_422_214581)"><g clip-path="url(#clip1_422_214581)"><path d="M18 .394A17.642 17.642 0 00.396 18 17.638 17.638 0 0018 35.603 17.63 17.63 0 0035.605 18 17.635 17.635 0 0018 .394z" fill="#fff"/><path d="M20.704 14.856c.88-.146 1.785-.398 2.68-.248l.017.006c-.105.09-.206.186-.3.288l.408-.096-.084-.204-.011-.033c1.195-.124 2.4.045 3.588.183a16.22 16.22 0 01-.264 1.012 27.565 27.565 0 00-.92-.239c-1.554-.373-3.175-.37-4.75-.126a2.653 2.653 0 01-.364-.543zm1.328.102l.237-.03c.053-.078.102-.155.161-.232a.351.351 0 00-.402.266l.004-.004zm.76-.239c-.143.015-.245.263-.06.297.205.056.322-.375.056-.293l.004-.004zm-13.64 3.233c1.567-.956 3.466-1.31 5.28-1.088 1.248.159 2.427.639 3.525 1.233.409-.16.793-.387 1.204-.55 0 .32 0 .639-.006.959-.251.136-.491.306-.773.37-.27.048-.546.007-.817-.014-.123.312-.228.63-.327.951-.488-.035-.728.488-1.189.534-.286.053-.573.095-.858.155.347.316.666.661.953 1.033-.012.598-.155 1.183-.23 1.774l-.164-.23c-.89.183-1.732.553-2.53.982.113.307.23.606.356.904-.133.097-.277.18-.428.245-.273-.156-.49-.393-.768-.542-.465.178-.783.613-1.187.902-.694-2.535-1.365-5.077-2.04-7.618zm12.609-1.089c.774-.024 1.559-.057 2.324.102.86.168 1.68.496 2.419.968.159.088.032.29.018.424-.667 2.327-1.285 4.67-1.965 6.993a72.16 72.16 0 00-.694-.57c-.28.169-.529.386-.81.553a.18.18 0 01-.214-.184c.02-.334.078-.664.102-.998-.71-.401-1.46-.727-2.24-.97-.215.271-.416.555-.612.841l-.46-.102a21.637 21.637 0 00-.126-.993c-.886-.15-1.788-.102-2.68-.073.145-.18.277-.384.477-.51.248-.09.536-.086.74-.27.318-.26.726-.456.887-.857l.249.04c.686-.392 1.382-.767 2.058-1.174.419-.213.519-.715.638-1.124.041-.707-.087-1.4-.111-2.096zm2.852 3.564c.146.072.385-.158.268-.3-.165-.085-.32.152-.268.3zm-.672.16c.285.072.53-.14.422-.436a1.778 1.778 0 00-.422.43v.005zm.139.74c.017.273.37.147.544.121 0-.047-.011-.144-.014-.193-.185-.057-.422-.165-.53.067v.005zm-1.359.588c.18-.023.354-.082.51-.173l-.177-.193c-.14.087-.284.189-.333.361v.005zm.856-.255c.007.114.015.23.027.344a.425.425 0 00.254-.343l-.28-.001z" fill="#fff"/><path d="M14.13 6.713c1.157-.393 2.377-.666 3.604-.633-.008.326-.01.651 0 .977-.116-.04-.224-.122-.352-.12-.306.147-.567.414-.92.46-.25.037-.499.068-.744.127l-.256-.238c-.176.161-.326.358-.534.476a4.648 4.648 0 01-.593-.212c-.251.242-.533.45-.773.701v.102c.262.25.54.482.83.698.051.307.102.613.155.92l.257.057.05.34c.354-.09.707-.18 1.067-.245l.06.53c-.205.103-.455.218-.458.488.068.351.366.588.613.827.333.341.863.409 1.152.8.204.283.51.572.44.955-3.197-.05-6.55-.852-9.003-3.007 1.321-1.852 3.268-3.235 5.405-4.003zm4.074-.662c3.478.018 6.874 1.744 8.998 4.485-1.504 1.46-3.505 2.3-5.526 2.758-.753.154-1.51.327-2.283.334-.149-.17-.314-.338-.379-.563-.136-.457-.59-.715-.805-1.123a4.636 4.636 0 01.022-.558c.273-.289.578-.581.634-.996.65-.552 1.38-1.003 2.043-1.541-.659-.135-1.372-.15-1.922-.585.165-.29.31-.592.434-.901a9.158 9.158 0 00-1.208-.009c-.008-.43-.008-.866-.008-1.3z" fill="#0087C6"/><path d="M17.29 5.59a12.018 12.018 0 019.206 3.427c2.452 2.375 3.833 5.823 3.652 9.232-.134 3.597-1.988 7.077-4.881 9.215a12.092 12.092 0 01-5.96 2.333c-2.639.274-5.374-.307-7.633-1.713-2.33-1.407-4.117-3.648-5.063-6.191A12.147 12.147 0 0117.29 5.589zm-3.16 1.123c-2.137.768-4.086 2.151-5.414 4 2.452 2.155 5.806 2.956 9.002 3.007.067-.383-.233-.672-.44-.955-.288-.392-.816-.459-1.151-.8-.243-.239-.54-.476-.613-.827 0-.27.252-.385.457-.487l-.059-.531c-.36.065-.715.155-1.067.245l-.05-.34-.257-.058c-.052-.306-.102-.613-.155-.919a9.073 9.073 0 01-.83-.698v-.102c.24-.251.522-.46.773-.702.192.085.39.156.592.213.205-.119.359-.315.535-.476l.256.238c.245-.06.494-.09.744-.128.352-.045.613-.312.92-.458.127 0 .236.078.352.12a26.11 26.11 0 010-.978c-1.218-.03-2.438.243-3.595.636zm4.074-.662c0 .435 0 .871.006 1.307a9.158 9.158 0 011.208.009c-.124.31-.27.61-.434.9.55.437 1.263.451 1.922.586-.66.538-1.391.989-2.043 1.541-.056.415-.361.707-.634.996a4.617 4.617 0 00-.022.558c.216.408.67.663.805 1.123.065.225.23.393.38.563.771-.007 1.531-.18 2.282-.334 2.02-.461 4.022-1.301 5.526-2.758-2.12-2.747-5.515-4.473-8.996-4.491zm-1.452 1.586c-.281.07-.581.088-.833.247-.176.128-.345-.058-.5-.126-.154.13-.307.258-.466.382a3.316 3.316 0 00-.535-.225c-.182.088-.307.255-.459.385.19.168.383.33.574.495.276.193.186.579.244.867.148.073.307.143.357.32a3.365 3.365 0 011.123-.148c.006.2-.008.398-.01.597.182.102.408.156.526.342-.317.083-.634.164-.946.264.15.567.715.894 1.21 1.143.428.204.648.647.91 1.021.415.56.823 1.133 1.37 1.575.158.321.167.701.325 1.03-.077.161-.187.32-.181.51-.023.77.024 1.54-.017 2.308a2.15 2.15 0 01-1.706.591c-.134.327-.199.68-.007 1a5.834 5.834 0 00-.679-.063c-.222.102-.384.296-.603.403-.194.06-.393.107-.594.137.248.205.376.52.658.689-.063.487-.17.97-.19 1.462.307-.25.552-.575.868-.817.163-.044.33-.07.498-.08.26-.192.53-.371.776-.582.173-.13.089-.466.315-.527.084.02.254.062.338.081.646-.33 1.271-.7 1.902-1.057.378-.185.468-.64.56-1.01a15.087 15.087 0 00-.13-1.93c-.138-.572-.49-1.063-.796-1.556-.494-.746-1.247-1.26-1.82-1.934-.134-.568-.63-.913-.933-1.379a2.93 2.93 0 01.079-.8c.13-.204.32-.362.46-.559.12-.191.114-.462.306-.603.46-.367.956-.685 1.405-1.063a2.816 2.816 0 01-1.484-.634c-.102-.293.204-.51.319-.745-.392 0-.782.01-1.172 0-.139-.123-.25-.307-.436-.357-.216.104-.4.255-.623.346h-.003zm3.29 6.423a2.9 2.9 0 01-.026.102c.192.254.437.461.648.697l.038-.007c.096.195.217.378.358.544l.124.216c.096.207.204.409.323.604.072.115.084.285.213.356.446.006.89-.052 1.337-.032a8.013 8.013 0 012.849.597c.367.135.69.42 1.103.396.888.012 1.777-.013 2.667-.015a11.58 11.58 0 00-2.176-6.58c-2.03 1.87-4.755 2.793-7.457 3.122zM6.35 17.527c.832.047 1.663-.03 2.495.008.528.057.943-.33 1.423-.477 2.145-.845 4.602-.732 6.707.174.243.118.494.218.751.301l.01-.408c.137.055.306.165.448.05l.043.362a6.79 6.79 0 00.937-.346 23.54 23.54 0 01-.013-.46c-.003-.155.019-.293.03-.439l-.196.006c.147-.05.18-.204.228-.336l-.144.036.236-.102a4.846 4.846 0 00-.15-.523c-.027-.168 0-.374-.157-.483-.265-.235-.493-.511-.775-.725-.009.564-.045 1.131.026 1.69l-.242.143c-.095-.06-.189-.12-.284-.178.008-.534 0-1.07.011-1.606a24.163 24.163 0 01-2.593-.222c-2.431-.372-4.86-1.248-6.718-2.903a11.59 11.59 0 00-2.073 6.438zm2.803.425a820.895 820.895 0 002.043 7.618c.409-.285.722-.724 1.187-.902.278.15.495.386.768.542.151-.066.295-.148.428-.245-.127-.298-.243-.6-.355-.904.797-.429 1.634-.799 2.529-.982.054.077.11.153.163.23.076-.591.219-1.176.231-1.774a8.008 8.008 0 00-.953-1.034c.285-.059.572-.102.858-.154.46-.046.7-.569 1.189-.534.102-.32.204-.64.327-.951.272.02.547.062.817.014.282-.067.522-.235.773-.37.006-.32.01-.639.006-.959-.408.163-.794.39-1.204.55-1.098-.595-2.277-1.075-3.526-1.233-1.815-.216-3.714.132-5.28 1.088zm12.609-1.089c.024.696.152 1.39.108 2.085-.12.408-.22.92-.638 1.123-.676.409-1.372.783-2.058 1.174l-.25-.04c-.16.402-.568.598-.885.857-.204.185-.494.181-.74.27-.205.127-.333.33-.479.51.893-.032 1.795-.076 2.68.074.05.33.091.661.126.993l.46.102c.198-.286.4-.57.614-.841a11.51 11.51 0 012.239.97c-.022.334-.081.664-.102.998a.18.18 0 00.213.184c.282-.167.531-.384.811-.554a91 91 0 01.694.571c.68-2.324 1.298-4.666 1.965-6.994.014-.134.14-.335-.018-.424a6.99 6.99 0 00-2.42-.967c-.761-.148-1.546-.115-2.32-.09zm-15.406 1.15a11.535 11.535 0 002.2 6.51 14.174 14.174 0 011.791-1.172c-.494-1.76-.926-3.537-1.437-5.297l-.065-.035c-.827-.025-1.658-.004-2.489-.007zm20.774.018c-.527 1.8-1.013 3.613-1.523 5.413.614.37 1.208.773 1.778 1.209a11.687 11.687 0 002.29-6.645c-.847.017-1.7-.033-2.544.023h-.001zm-11.07 5.524c.115.249.296.42.59.365a3.51 3.51 0 00.035-.948c-.226.175-.435.37-.625.583zm.901-.453c-.015.325-.027.65-.04.976a6.64 6.64 0 01-.769.093c-.157-.281-.333-.55-.51-.818a8.946 8.946 0 00-2.115.817c.102.307.224.602.35.898-.254.142-.478.367-.763.43-.27-.18-.52-.392-.797-.56-.55.445-1.091.919-1.52 1.485.057.218.23.387.344.58.286.472.837.659 1.269.967.825-.858 1.804-1.584 2.93-1.995a7.38 7.38 0 016.08.4c.78.4 1.43.99 2.049 1.605.384-.093.692-.368 1.027-.566.365-.214.533-.62.761-.953a11.247 11.247 0 00-1.403-1.386c-.275.171-.522.388-.804.547-.187-.013-.324-.184-.483-.267.03-.349.068-.697.123-1.043a10.345 10.345 0 00-1.9-.856c-.204.26-.378.547-.592.8-.263.029-.524-.084-.784-.124-.053-.33-.094-.662-.135-.994a9.952 9.952 0 00-2.314-.036h-.004zm-8.117 1.826a11.326 11.326 0 001.82 1.832l-.182-.394c.187-.24.58-.447.45-.806-.143-.575-.307-1.148-.463-1.718a8.7 8.7 0 00-1.621 1.086h-.004zm16.627-.96c-.167.593-.378 1.179-.481 1.789.173.247.391.46.573.702-.057.096-.115.192-.17.289.599-.52 1.185-1.06 1.663-1.697-.488-.409-.993-.82-1.581-1.084h-.004zm-8.774 2.058a6.892 6.892 0 00-3.743 2.014c-.165.118.095.33.204.204.33-.276.63-.588.994-.824a6.63 6.63 0 018.548.824c.102.224.477.011.263-.164a6.934 6.934 0 00-6.262-2.054h-.004zm-3.104 2.145a.473.473 0 00-.178.349c.153-.081.296-.18.426-.295a6.165 6.165 0 018.29.08.612.612 0 00.441.212c-.187-.296-.466-.51-.74-.723a6.317 6.317 0 00-3.651-1.321 6.395 6.395 0 00-4.583 1.693l-.005.005zm.421.455a.305.305 0 00.478.048 5.38 5.38 0 012.474-1.153c.227.168.486.29.761.356 0-.267 0-.534-.014-.8a5.737 5.737 0 00-3.696 1.545l-.003.004zm4.188-1.532c0 .264 0 .532.011.798.268-.088.504-.244.761-.356a5.34 5.34 0 012.454 1.165c.145.164.366.067.505-.051-1.028-.907-2.338-1.53-3.723-1.561l-.008.005zm-1.603.754a5.197 5.197 0 00-1.975 1.021c1 .328 2.044.497 3.095.502 0-.4 0-.801.008-1.202-.373-.098-.71-.472-1.12-.326l-.008.005zm1.622.268c-.027.42-.02.842-.009 1.263a11.2 11.2 0 002.972-.431c0-.028.013-.084.017-.113-.63-.516-1.397-.909-2.207-1.027-.246.107-.49.244-.765.303l-.008.005z" fill="#D4D4D2"/><path d="M20.043 14.06c2.7-.329 5.425-1.251 7.456-3.121a11.58 11.58 0 012.18 6.583c-.89 0-1.78.028-2.667.015-.408.024-.736-.261-1.103-.396a8.012 8.012 0 00-2.85-.595c-.446-.021-.892.037-1.337.031-.129-.07-.14-.24-.213-.355 1.83-.142 3.668.154 5.361.863a4.41 4.41 0 00.244-.905c-.51-.162-1.012-.323-1.532-.437l.228-.216c.306.074.613.154.92.24.101-.335.187-.672.264-1.013-1.19-.138-2.393-.307-3.588-.183l.01.033-.02.01-.02-.005c-.893-.15-1.798.102-2.678.248l-.038.007c-.212-.236-.456-.443-.648-.697a.352.352 0 00.03-.107zM6.35 17.527a11.59 11.59 0 012.075-6.435c1.859 1.655 4.29 2.531 6.718 2.903.859.12 1.724.193 2.59.22-.012.535 0 1.071-.01 1.605-1.934-1.123-4.244-1.34-6.436-1.283-.84.027-1.68.102-2.512.224.079.342.18.678.25 1.022.01.06.03.181.038.242a26.27 26.27 0 00-.396.133l.243.865c2.805-1.066 6.087-1.252 8.828.103l-.01.408a5.823 5.823 0 01-.752-.301c-2.104-.906-4.563-1.021-6.706-.174-.48.146-.895.534-1.423.477-.835-.039-1.666.038-2.498-.009zm.005.485c.83 0 1.661-.018 2.49.007l.065.035c.51 1.756.94 3.536 1.436 5.297-.626.345-1.225.737-1.791 1.172a11.535 11.535 0 01-2.2-6.51zm20.775.018c.845-.053 1.697-.006 2.545-.018a11.687 11.687 0 01-2.29 6.645 19.387 19.387 0 00-1.778-1.209c.51-1.805.996-3.617 1.523-5.417zM8.847 24.928a8.7 8.7 0 011.62-1.086c.161.57.32 1.143.464 1.718.13.36-.263.567-.45.806l.182.394a11.324 11.324 0 01-1.816-1.832zm7.759 2.915c.408-.146.747.229 1.123.32-.006.402-.007.802-.008 1.203a10.084 10.084 0 01-3.092-.502 5.197 5.197 0 011.977-1.021zm1.622.268c.275-.059.519-.196.773-.306.81.118 1.577.51 2.207 1.027 0 .03-.013.085-.017.113-.967.276-1.966.421-2.971.43-.016-.422-.016-.844.008-1.264zm-.149-11.431c.153-.422.627-.51.99-.681l.143-.036c-.047.128-.081.285-.228.336-.238.108-.466.238-.696.36l-.21.021z" fill="#0087C6"/><path d="M16.755 7.637c.22-.09.408-.242.622-.344.186.053.297.234.436.357.39.008.78-.006 1.172 0-.117.24-.418.452-.319.745.422.352.938.572 1.484.634-.45.379-.946.696-1.405 1.063-.193.14-.187.409-.307.604-.14.196-.33.353-.46.558a2.93 2.93 0 00-.08.797c.306.466.799.811.933 1.379.573.674 1.328 1.188 1.82 1.934.306.493.657.984.796 1.555.084.64.127 1.286.128 1.932-.092.37-.182.824-.56 1.01-.63.357-1.256.726-1.902 1.056l-.338-.082c-.226.062-.142.399-.315.528-.245.211-.511.39-.777.583a2.47 2.47 0 00-.497.078c-.316.244-.557.568-.867.818.018-.493.126-.975.189-1.462-.282-.169-.409-.485-.658-.688.202-.033.402-.081.597-.145.219-.102.381-.3.603-.402.227.008.454.029.68.063-.193-.32-.128-.673.005-1a2.153 2.153 0 001.707-.591c.041-.768-.006-1.538.017-2.308-.006-.186.102-.346.181-.51-.158-.33-.167-.71-.325-1.03-.547-.442-.955-1.015-1.37-1.575-.262-.37-.482-.811-.91-1.021-.492-.249-1.06-.576-1.21-1.143.312-.102.628-.181.946-.264-.121-.186-.344-.239-.527-.342 0-.2.018-.397.011-.597-.38-.014-.76.036-1.123.148-.045-.177-.204-.247-.357-.32-.058-.288.032-.674-.244-.867-.19-.166-.385-.327-.574-.495.148-.13.277-.297.459-.385.184.06.364.134.535.225.158-.124.311-.253.466-.382.155.068.324.254.5.125.257-.15.557-.17.838-.239zm.209 15.465c.772-.08 1.55-.07 2.319.032.04.332.082.664.135.994.26.04.52.153.784.124.214-.253.385-.54.593-.8.662.22 1.3.508 1.904.856a14.19 14.19 0 00-.124 1.043c.16.083.296.254.483.267.282-.16.53-.376.804-.547.506.419.974.881 1.4 1.382-.23.335-.397.74-.762.954-.334.198-.643.473-1.027.566-.613-.612-1.269-1.205-2.05-1.604a7.38 7.38 0 00-6.079-.398c-1.123.409-2.104 1.137-2.93 1.995-.43-.306-.982-.495-1.268-.967-.113-.193-.287-.362-.343-.58.428-.568.968-1.04 1.519-1.485.278.168.527.38.798.56.285-.063.51-.288.762-.43a14.311 14.311 0 01-.35-.898 8.947 8.947 0 012.115-.817c.176.268.352.537.51.817a6.17 6.17 0 00.768-.093c.012-.32.024-.646.04-.97z" fill="#DC2A27"/><path d="M18.222 14.162c.282.217.51.49.775.725.157.109.13.315.157.483a8.843 8.843 0 00-.906.483c-.071-.56-.035-1.127-.026-1.69zm7.252 9.805c.588.264 1.093.675 1.585 1.084-.478.636-1.064 1.178-1.664 1.697l.171-.29c-.182-.24-.4-.454-.573-.701.103-.61.315-1.196.481-1.79z" fill="#0087C6"/><path d="M8.772 14.758a22.242 22.242 0 012.512-.224c2.195-.058 4.505.155 6.435 1.283.095.058.19.118.284.178l.242-.142a8.74 8.74 0 01.906-.483c.06.171.11.346.15.523l-.236.102c-.362.17-.836.26-.99.681l.21-.02c-.176.126-.384.172-.563.026.216-.32-.19-.414-.408-.529-2.6-1.123-5.598-1.207-8.294-.377-.068-.34-.17-.676-.248-1.018z" fill="#fff"/><path d="M23.401 14.614l.022-.011.084.204-.409.096c.096-.102.197-.199.303-.289zm-1.374.348a.352.352 0 01.399-.262 12.01 12.01 0 00-.161.232l-.238.03zm.761-.239c.266-.082.149.35-.06.297-.186-.034-.084-.281.06-.297zm1.825 5.704c-.052-.143.102-.38.268-.3.117.137-.122.366-.268.3zm-.533.895c.108-.232.345-.124.53-.072 0 .05.01.146.014.193-.173.026-.527.151-.544-.121zm-1.359.588c.05-.172.193-.274.335-.366l.178.192a1.359 1.359 0 01-.513.174zm.856-.257h.281a.425.425 0 01-.254.343 8.8 8.8 0 01-.027-.343zM16.7 26.026a6.933 6.933 0 016.267 2.049c.214.175-.16.388-.263.164a6.63 6.63 0 00-8.548-.824c-.363.236-.664.548-.994.824-.11.13-.37-.08-.204-.204a6.892 6.892 0 013.742-2.01z" fill="#DC2A27"/><path d="M13.597 28.166a6.396 6.396 0 014.587-1.697 6.318 6.318 0 013.65 1.32c.275.21.554.427.741.724a.61.61 0 01-.44-.212 6.164 6.164 0 00-8.291-.08 2.19 2.19 0 01-.426.295.472.472 0 01.179-.35z" fill="#DC2A27"/><path d="M9.023 15.78c2.695-.83 5.693-.746 8.293.377.218.115.625.205.408.53-2.619-1.452-5.842-1.547-8.665-.665l-.036-.242zm12.041-.38c1.574-.244 3.195-.247 4.75.126l-.228.216a11.306 11.306 0 00-4.398-.126 5.785 5.785 0 01-.124-.216z" fill="#0087C6"/><path d="M9.06 16.022c2.822-.882 6.046-.787 8.665.664.179.146.387.102.563-.026.23-.123.458-.253.696-.36l.197-.007c-.012.146-.023.291-.03.438-.33.132-.653.281-.968.446-.143.114-.307 0-.449-.051-2.74-1.357-6.026-1.171-8.827-.103-.08-.289-.161-.576-.243-.865.13-.047.263-.093.396-.136z" fill="#fff"/><path d="M21.186 15.616a11.306 11.306 0 014.398.126c.518.114 1.022.275 1.532.437-.049.31-.13.613-.244.905a11.584 11.584 0 00-5.361-.863 6.375 6.375 0 01-.325-.605z" fill="#FFFFFD"/><path d="M18.183 17.177c.315-.165.637-.314.967-.446 0 .153.007.307.014.461a6.762 6.762 0 01-.938.346l-.043-.361z" fill="#0087C6"/><path d="M23.94 20.581c.115-.168.258-.315.423-.435.108.295-.132.508-.422.435z" fill="#C75A5E"/><path d="M16.06 23.555c.19-.213.399-.408.624-.583a3.51 3.51 0 01-.035.948c-.29.054-.471-.116-.59-.365z" fill="#FFFEFE"/><path d="M14.016 28.622a5.736 5.736 0 013.699-1.55c.011.267.014.534.014.801a2.114 2.114 0 01-.76-.356 5.38 5.38 0 00-2.475 1.153.308.308 0 01-.38.048.306.306 0 01-.098-.096zm4.194-1.533c1.383.03 2.694.654 3.721 1.559-.138.118-.359.215-.504.05a5.344 5.344 0 00-2.445-1.167c-.258.111-.494.268-.761.356a29.535 29.535 0 01-.012-.798z" fill="#DC2A27"/><path d="M18.062 8.67l.174.35.387.057-.28.272.066.386-.347-.181-.346.181.066-.386-.28-.272.388-.057.172-.35z" fill="#F5E50D"/><path d="M8.2 8.76c-.042-.313-.216-.599-.52-.85a1.348 1.348 0 00-.841-.333c-.036 0-.072 0-.103.005a1.195 1.195 0 00-.83.47 1.43 1.43 0 00-.258.474.951.951 0 00-.03.409c.015.14.057.275.122.399.1.19.24.355.409.485.23.203.524.318.83.327h.103c.197-.018.387-.089.548-.204l.5.408.484-.591-.5-.409c.082-.185.111-.389.085-.59zm-.852.457a.364.364 0 01-.29.148H7.04a.665.665 0 01-.398-.18.648.648 0 01-.263-.372.37.37 0 01.09-.306.364.364 0 01.287-.154h.015a.65.65 0 01.398.183.852.852 0 01.186.196.456.456 0 01.078.176.37.37 0 01-.085.309zm4.432-5.651l.74 1.922-1.104-.586.373-1.395-.941.525-.22.897-.327-.594-.693.379 1.221 2.194.685-.381-.366-.66.052-.195.902.532.573-.317.008.023.73-.285-.895-2.341-.739.282zM9.649 6.615l-.74.301.08.169a.494.494 0 01.068.288.252.252 0 01-.093.161.297.297 0 01-.262.072c-.102-.018-.24-.12-.381-.291-.133-.157-.205-.297-.205-.402a.327.327 0 01.122-.253.33.33 0 01.186-.077.31.31 0 01.18.07l.143.102.475-.642-.153-.102a1.035 1.035 0 00-.51-.193h-.06c-.26.004-.51.102-.704.277a1.14 1.14 0 00-.432.824c-.016.318.107.634.364.938a1.188 1.188 0 00.98.51c.267 0 .525-.098.724-.275.191-.148.327-.357.385-.591.05-.246.016-.5-.096-.725l-.071-.161zm-4.495 8.63l.745.181.185-.74-.742-.184-.188.743zm-.519-5.215l.732.426-.25.432-.732-.422-.395.676 2.17 1.256.396-.68-.819-.47.25-.435.82.47.393-.68-2.175-1.257-.39.684zm.445 6.583v-.014a1.243 1.243 0 00-.167-.37v-.006h-.005a1.162 1.162 0 00-.398-.3 1.634 1.634 0 00-.528-.13 2.289 2.289 0 00-.205-.01 1.603 1.603 0 00-.37.04 1.12 1.12 0 00-.44.21.985.985 0 00-.295.411l-.01.02-.005.033a.286.286 0 00-.023.08v.038c-.01.05-.016.111-.025.185l-.007.066-.084.97.935.076-.022.224.625.056.022-.225.937.084.088-.995.007-.126v-.115l-.007-.102-.022-.1zm-.705.443l-.012.148-.224-.02.04-.46-.622-.054-.042.458-.223-.02v-.014l.03-.246v-.011a.12.12 0 010-.028l.016-.048a.28.28 0 01.082-.114.307.307 0 01.133-.059.747.747 0 01.132-.009c.057 0 .123 0 .196.01a.957.957 0 01.409.101c.037.024.065.06.079.103a.824.824 0 01.006.263z" fill="#D4D4D2"/><path d="M4.974 14.519l.518-.061.146-.58.019.007.253-.745-2.368-.817-.257.75 1.849.636-2.11.283-.172.678 2.203 1.556.204-.817-.436-.294.151-.596zm-.78.172l-.102-.067.12-.013-.018.08zm9.805-11.899l.256.956-.842-.8-.678.18.652 2.424.732-.196-.25-.93.825.774.68-.183-.644-2.424-.731.199zm17 10.817h.051a1.73 1.73 0 00.5-.124 1.68 1.68 0 00.496-.289 1.1 1.1 0 00.294-.38.888.888 0 00.076-.464 1.53 1.53 0 00-.127-.445l-.365-.9-2.326.942.376.928.016.034a.99.99 0 00.035.078.823.823 0 00.053.102.72.72 0 00.055.09c.01.018.021.033.03.045l.01.015.008.011.009.011c.091.111.207.2.337.261.15.06.31.09.472.085zm.557-1.607l.007.02c.044.098.078.2.102.306a.214.214 0 01-.011.127.344.344 0 01-.102.125 1.095 1.095 0 01-.292.152c-.106.048-.218.08-.334.095h-.047a.243.243 0 01-.087-.013.235.235 0 01-.087-.076l-.006-.009a.074.074 0 01-.012-.015l-.006-.008-.006-.015v-.009l-.065-.142-.056-.139 1.002-.399zM29.42 7.793a1.189 1.189 0 00-.029-.29l.119.121.08-.416.171.185 1.205.102-.709-.738-.6.102.034-.173-.393-.408-.952.138.125.132a1.07 1.07 0 00-.26-.031 1.124 1.124 0 00-.408.071c-.2.08-.38.2-.53.353a1.294 1.294 0 00-.434.882 1.208 1.208 0 00.365.885 1.185 1.185 0 00.87.394 1.49 1.49 0 001.349-1.31h-.003zm-.989.313a1.065 1.065 0 01-.228.166.442.442 0 01-.184.054h-.016a.387.387 0 01-.28-.12.371.371 0 01-.111-.306v-.01c0-.118.082-.247.226-.387a.642.642 0 01.398-.216h.016a.419.419 0 01.409.427.664.664 0 01-.23.392z" fill="#D4D4D2"/><path d="M32.459 17.136l.93-.69-.06-.697-1.975.172 1.616-1.167.102.42.635-.73-.14-.545-.895-.355.097.393-2.479-.316.204.817.511.054.15.601-.43.298.144.574h-.047l.067.752.959-.082-.907.675.061.707 2.496-.213-.062-.757-.977.089zm-.57-2.554l-.101.067-.02-.079.122.012zm-1.803-3.859l-.255-.76-.175.074a.587.587 0 01-.223.052.246.246 0 01-.215-.115.298.298 0 01-.06-.258c.028-.102.14-.232.321-.364.197-.143.32-.172.39-.172h.029a.312.312 0 01.242.143.28.28 0 01.063.18.265.265 0 01-.08.171l-.124.13.62.53.113-.148c.119-.144.196-.316.225-.5.031-.28-.047-.56-.217-.784a1.138 1.138 0 00-.926-.49 1.41 1.41 0 00-.83.306 1.278 1.278 0 00-.559.805 1.188 1.188 0 00.774 1.306c.09.028.183.041.276.041a1.26 1.26 0 00.455-.093l.156-.054zm-2.224-4.945l-.645-.452-.787 1.123c-.06.092-.129.177-.204.257a.139.139 0 01-.09.042.288.288 0 01-.16-.068.307.307 0 01-.121-.146.146.146 0 01.005-.115v-.016c.015-.037.114-.178.17-.262l.773-1.102-.64-.445-.756 1.083c-.118.16-.218.33-.3.51a.798.798 0 00-.044.165l-.074-.08a1.677 1.677 0 01-.107-.131l.018-.011a1.216 1.216 0 00.337-.329c.059-.079.11-.163.152-.251.179-.35.227-.682.14-.991a1.192 1.192 0 00-.638-.715 1.328 1.328 0 00-.597-.155c-.122 0-.243.021-.358.062a1.31 1.31 0 00-.721.687c-.182.357-.226.692-.133.995a1.193 1.193 0 00.647.715c.135.07.28.118.431.141l.127.223.007.011c.047.073.105.14.17.196l.103.09.485-.346v.074a.92.92 0 00.129.369c.106.148.238.275.39.375.13.096.277.165.434.204a.817.817 0 00.396.002.791.791 0 00.337-.189c.137-.14.26-.292.366-.456l.758-1.064zm-3.182-.59a1.016 1.016 0 01-.187.252 1.676 1.676 0 00-.204-.257l-.108-.115-.334.252a.513.513 0 01-.02-.06.688.688 0 01.095-.453c.095-.18.198-.293.313-.335a.346.346 0 01.136-.029.42.42 0 01.186.048.377.377 0 01.21.248.682.682 0 01-.087.449zm-8.275-2.846l.106.844-.5.06-.102-.843-.781.097.306 2.49.781-.094-.116-.937.497-.06.117.939.78-.104-.307-2.483-.78.091zm3.971.05l-2.06-.146-.05.718.639.043-.125 1.787.784.054.128-1.788.638.044.046-.712zm1.849.3l.263.065 1.072-.574-.998-.231-.466.426-.086-.208-.55-.128-.552.491-.279-.064-.563 2.443 1.942.45.16-.7-1.174-.269.054-.229 1.051.244.167-.698-1.058-.242.028-.123 1.134.262.16-.7-.24-.056-.065-.16zM17.65 34.217a16.109 16.109 0 01-5.225-.867l-.179-.06 1.21-2.886.155.05c2.927.952 6.096.84 8.949-.318l.173-.07 1.081 2.927-.23.097a16.078 16.078 0 01-5.931 1.123l-.003.004z" fill="#D4D4D2"/><path d="M18 .394A17.641 17.641 0 00.396 18 17.638 17.638 0 0018 35.603 17.63 17.63 0 0035.605 18 17.634 17.634 0 0018 .394zM18 0a18.03 18.03 0 0117.998 17.997A18.034 18.034 0 0118 36.001a18.036 18.036 0 01-18-18A18.036 18.036 0 0118-.002V0z" fill="#D4D4D2"/><path fill-rule="evenodd" clip-rule="evenodd" d="M31.021 16.127l2.145-.187.036.423-1.35 1 1.43-.128.033.409-2.145.183-.038-.434 1.328-.986-1.402.12-.037-.4zm1.902-2.293l.496.196.093.367-.349.403-.078-.323.172-.219-.254-.102-.08-.322zm-1.236 1.107l.705-.481-.846-.087.141.568zm-.633.983l-.115-.461.429-.297-.205-.84-.517-.053-.113-.445 2.298.294.109.444-1.886 1.358zm.604-4.152l-1.328.534.121.307.066.142a.27.27 0 00.054.094.408.408 0 00.146.121c.074.03.155.04.234.029a1.38 1.38 0 00.384-.107c.12-.043.233-.104.336-.18a.52.52 0 00.148-.195.393.393 0 00.02-.227 1.876 1.876 0 00-.113-.339l-.068-.179zm.174-.537l.299.737c.057.126.096.258.114.395a.708.708 0 01-.061.376.92.92 0 01-.246.317c-.133.112-.284.2-.447.26a1.53 1.53 0 01-.451.112 1.023 1.023 0 01-.437-.072.8.8 0 01-.276-.217.546.546 0 01-.041-.063.429.429 0 01-.05-.08 1.708 1.708 0 01-.095-.2l-.307-.76 1.998-.805zm-2.103-1.04l.141.421a.855.855 0 01-1.09-.316.937.937 0 01-.176-.743 1.102 1.102 0 01.487-.693c.288-.211.567-.306.84-.267a.966.966 0 01.672.408.92.92 0 01.184.659.863.863 0 01-.19.409l-.34-.282a.441.441 0 00.127-.281.464.464 0 00-.102-.298.483.483 0 00-.369-.21c-.152-.017-.33.055-.536.204-.222.16-.35.313-.39.461a.479.479 0 00.09.409c.06.09.154.153.26.175a.67.67 0 00.387-.056h.005zm.12-2.971l-.176-.191.527-.087.32.333-.671-.055zm-1.135-.682l.526-.076.262.274-.103.52-.23-.239.037-.276-.27.038-.222-.24zm-.994.837c-.176.17-.272.34-.279.51a.543.543 0 00.159.44.565.565 0 00.687.104c.098-.053.188-.118.269-.194a.842.842 0 00.281-.5.594.594 0 00-.602-.622c-.174.003-.342.091-.52.262h.005zm-.324-.306c.134-.136.293-.242.47-.314a.948.948 0 01.352-.06.83.83 0 01.332.064c.144.067.274.16.385.275a1.009 1.009 0 01.313.754 1.103 1.103 0 01-.389.775c-.25.245-.51.365-.784.365a1.005 1.005 0 01-.742-.342 1.023 1.023 0 01-.316-.755c.02-.295.154-.57.374-.767l.005.005zM26.212 4.84l.359.248-.67.956a2.026 2.026 0 00-.193.306.322.322 0 00-.01.249.46.46 0 00.186.231c.075.062.17.098.267.103a.329.329 0 00.204-.092 2.03 2.03 0 00.224-.283l.686-.98.356.25-.65.928c-.1.153-.214.296-.34.427a.598.598 0 01-.575.15 1.073 1.073 0 01-.376-.184 1.288 1.288 0 01-.344-.327.726.726 0 01-.102-.29.655.655 0 01.04-.273c.076-.167.17-.325.28-.472l.658-.947zm-1.777.847a.613.613 0 00.219-.154 1.22 1.22 0 00.187-.263.846.846 0 00.105-.574.557.557 0 00-.307-.363.549.549 0 00-.468-.025c-.157.057-.288.204-.402.417a.839.839 0 00-.11.576.556.556 0 00.463.414 1.392 1.392 0 00-.18-.245l.222-.168c.11.114.2.244.271.385zm.204.38c.062.116.14.224.23.32l-.28.204a.755.755 0 01-.14-.16l-.171-.306a1.134 1.134 0 01-.459-.131 1.021 1.021 0 01-.56-.613c-.08-.26-.04-.545.122-.863.12-.275.344-.492.623-.602a1.146 1.146 0 011.366.692c.072.258.032.544-.128.858a1.63 1.63 0 01-.137.227 1.135 1.135 0 01-.153.177 1.454 1.454 0 01-.141.108 1.346 1.346 0 01-.18.088h.008zm-2.165-3.499l-.25-.062.397-.363.452.102-.6.323zm-1.354.02l.399-.355.372.086.204.49-.327-.075-.114-.252-.205.177-.329-.072zm-.834 2.191l.472-2.1 1.558.358-.082.356-1.134-.26-.102.466 1.055.242-.085.354-1.05-.243-.137.572 1.176.274-.08.355-1.591-.374zm-1.309-.15l.125-1.787-.64-.043.026-.366 1.7.118-.023.361-.637-.044-.128 1.787-.422-.027zm-3.39.169l-.263-2.145.432-.053.102.841.85-.102-.101-.843.43-.05.263 2.136-.43.057-.117-.936-.846.102.115.937-.435.056zm-2.075.54l-.561-2.082.409-.11 1.225 1.163-.372-1.39.392-.103.553 2.083-.415.103-1.207-1.13.367 1.358-.391.108zm-.728.346l-.777-2.014.409-.155.77 2.012-.402.157zm-1.887.987L9.849 4.783l.383-.204.46.837L11 4.152l.51-.284-.306 1.124 1.39.736-.494.273-1.013-.599-.132.488.315.568-.372.214zm-1.75.341l.409-.167a.945.945 0 01.084.613.889.889 0 01-.325.496.91.91 0 01-.729.229 1.094 1.094 0 01-.727-.436c-.23-.273-.338-.546-.324-.817a.952.952 0 01.368-.698.887.887 0 01.641-.235c.154.016.3.072.424.163l-.261.354a.487.487 0 00-.29-.102.503.503 0 00-.429.288.51.51 0 00-.05.212c0 .152.08.328.244.521.173.21.335.327.486.35a.472.472 0 00.409-.109.434.434 0 00.154-.276.664.664 0 00-.084-.39v.004zM8.101 10.1l-.322-.262.26-.32.324.263-.262.32zm-1.57-.777a.809.809 0 00.536.218.535.535 0 00.42-.214.553.553 0 00.12-.45.613.613 0 00-.101-.242 1.04 1.04 0 00-.23-.243.796.796 0 00-.526-.217.534.534 0 00-.415.217.545.545 0 00-.129.45c.025.167.134.326.325.48zm-.273.358a1.31 1.31 0 01-.364-.428.92.92 0 01-.102-.339.791.791 0 01.021-.338c.05-.149.127-.287.227-.408a1.015 1.015 0 01.71-.409c.273-.028.548.072.817.29.268.218.419.466.454.737a1.021 1.021 0 01-.248.775 1.01 1.01 0 01-.715.408 1.102 1.102 0 01-.8-.288zm-.162 2.472L4.231 11.08l.217-.373.732.422.427-.736-.733-.427.216-.378 1.87 1.08-.218.376-.818-.471-.426.74.818.47-.22.371zm-.549 1.504l-2.042-.702.14-.409 2.036.7-.134.41zm.223 1.552l-.401-.102.102-.401.4.102-.1.401zm-1.328-.806l-.845.1.707.477.138-.577zm1.022-.57l-.113.465-.519.06-.204.838.431.292-.113.445-1.893-1.338.113-.445 2.298-.318zm-2.366 3.429l.572.05.042-.458.272.023-.04.46.577.052.025-.327a.987.987 0 00-.008-.315.375.375 0 00-.144-.205 1.092 1.092 0 00-.495-.135 1.709 1.709 0 00-.377 0 .51.51 0 00-.216.096.453.453 0 00-.134.19l-.02.064a.313.313 0 00-.008.071l-.03.235-.016.199zm-.398.407l.068-.793c.012-.109.02-.188.033-.243v-.037a.223.223 0 01.017-.053l.006-.031c.005-.012.01-.029.02-.048a.816.816 0 01.226-.3.936.936 0 01.372-.174 1.62 1.62 0 01.511-.028c.162.013.321.052.47.117.13.059.246.145.339.253.063.098.111.206.14.319l.011.072.007.094v.102l-.007.12-.071.818-.937-.084-.021.225-.274-.024.021-.225-.931-.08z" fill="#0087C6"/><path d="M12.484 33.188a15.96 15.96 0 005.169.857 15.935 15.935 0 005.863-1.114l-.889-2.623c-1.58.642-3.268.971-4.973.97a13.16 13.16 0 01-4.093-.649l-1.077 2.559z" fill="#0087C6"/><path fill-rule="evenodd" clip-rule="evenodd" d="M13.233 33.012l.546.102.271-1.38 1.469 1.721.577.115.372-1.889-.532-.102-.19.97-1.02-1.209-1.12-.218-.373 1.89zm3.745.55h2.39v-.265H18.03v-.59h1.215v-.264H18.03v-.555h1.29v-.26h-2.341v1.934zm2.878-2.028l.222 1.208c.015.1.055.194.115.275.08.102.193.174.32.205.175.04.354.057.534.05.207-.003.414-.023.618-.06.948-.177 1.375-.51 1.286-.995l-.224-1.208-.524.102.204 1.124c.037.204 0 .35-.102.447-.137.098-.297.16-.464.182-.27.051-.465.032-.589-.057a.501.501 0 01-.164-.328l-.21-1.129-1.022.184z" fill="#fff"/><path fill-rule="evenodd" clip-rule="evenodd" d="M12.095 31.3l-.015-.006a2.056 2.056 0 00-.29-1.038c-.219-.383-.49-.577-.829-.593l-.11-.006-.006.012a.88.88 0 00-.636-.409l-.087-.01a.867.867 0 00-.618-.476l-.067-.012a.868.868 0 00-.584-.544l-.075-.02c-.102-.306-.28-.495-.53-.585l-.096-.034c-.078-.306-.235-.51-.476-.613l-.102-.045-.01.01c-.054-.307-.191-.52-.42-.647l-.096-.052-.032.021c-.03-.312-.148-.536-.362-.68l-.093-.062-.054.032c0-.315-.102-.548-.314-.707l-.086-.067-.064.03a.863.863 0 00-.259-.734l-.081-.074-.078.03a.863.863 0 00-.204-.752l-.075-.081-.08.024a.863.863 0 00-.153-.767l-.068-.084-.058.013a.902.902 0 00-.102-.78l-.063-.093h-.016a.909.909 0 00-.061-.794l-.058-.093-.108.01c-.251.02-.601.169-.858.749l-.005-.01c.127-.337.163-.703.102-1.06-.067-.436-.25-.715-.56-.852l-.102-.044-.084.069c-.198.162-.403.492-.267 1.138.033.152.094.296.18.426a.919.919 0 00-.699-.188l-.11.018-.03.102c-.065.219-.062.554.275.955h-.007l-.025.108c-.05.22-.024.553.345.931h-.008l-.017.109c-.05.306.102.627.42.9l-.022.009-.008.11c-.024.306.15.613.49.858l-.03.013v.11c0 .312.196.6.558.818l-.048.027.01.11c.017.221.143.528.625.764l-.056.038.017.11c.036.217.184.51.68.706l-.072.06.026.103c.074.295.335.521.736.642l-.079.078.035.102c.07.205.261.466.774.582l-.005.007-.07.081.041.102c.117.284.409.467.812.525l-.012.016-.064.089.05.097c.103.19.328.419.84.463l-.006.009-.059.094.06.094c.112.181.354.396.86.408l-.05.096.065.09c.118.162.36.355.832.355h.05l-.033.072.071.085a.943.943 0 00.76.313c.126 0 .252-.014.375-.04.442-.087.721-.389.893-.612l.145-.184-.225-.075zm21.611-9.258l-.026-.107h-.008c.34-.404.34-.738.274-.956l-.032-.103-.102-.018a.842.842 0 00-.151-.013.906.906 0 00-.547.195c.082-.129.14-.27.171-.419.135-.644-.071-.976-.268-1.139l-.084-.071-.103.045c-.306.14-.487.418-.557.854-.052.301-.035.61.049.905h-.03c-.251-.447-.558-.57-.782-.588l-.11-.01-.057.096a.92.92 0 00-.06.79h-.01l-.063.093a.902.902 0 00-.109.78l-.055-.011-.069.084a.87.87 0 00-.156.767l-.077-.024-.076.082a.868.868 0 00-.204.752l-.079-.031-.08.074a.857.857 0 00-.255.737l-.07-.033-.085.067a.838.838 0 00-.307.703l-.049-.028-.093.061a.85.85 0 00-.366.681l-.031-.022-.097.053a.849.849 0 00-.42.647l-.011-.009-.102.044c-.238.103-.395.307-.474.613l-.093.033c-.254.089-.43.28-.533.584l-.08.02a.886.886 0 00-.58.545l-.07.012a.874.874 0 00-.612.475l-.088.012a.89.89 0 00-.635.408l-.007-.013-.11.006c-.338.016-.612.21-.826.592-.188.314-.29.673-.292 1.04l-.014.005-.213.088.132.18c.214.308.533.526.896.614.12.023.242.036.365.037.42 0 .65-.172.768-.316l.07-.085-.033-.072h.05c.475 0 .716-.194.831-.357l.065-.089-.051-.095c.51-.01.753-.223.864-.408l.057-.093-.057-.092-.01-.015c.517-.043.744-.272.842-.465l.05-.095-.063-.087c0-.005-.007-.008-.01-.013.51-.077.725-.325.81-.527l.043-.103-.07-.082h-.006c.51-.117.704-.38.773-.586l.037-.102-.079-.074c.511-.152.677-.43.73-.643l.027-.102-.071-.06c.5-.195.648-.49.684-.707l.017-.11-.057-.04c.482-.235.606-.543.621-.762l.008-.108-.046-.028c.361-.215.56-.5.56-.817v-.111l-.03-.015c.34-.247.51-.55.488-.859l-.01-.107-.024-.01c.409-.346.46-.679.427-.902l-.016-.112h-.006c.362-.38.388-.707.338-.93z" fill="#D4D4D2"/><path fill-rule="evenodd" clip-rule="evenodd" d="M24.06 31.464a1.877 1.877 0 011.032-.12c.36.054.602.187.721.45-.179.22-.504.307-.964.218-.35-.073-.592-.293-.789-.548z" fill="#F5E50D"/><path fill-rule="evenodd" clip-rule="evenodd" d="M25.008 31.083c.306-.153.65-.217.99-.183.351.027.593.14.726.391-.158.22-.468.326-.92.268-.338-.047-.585-.245-.796-.476z" fill="#F5E50D"/><path fill-rule="evenodd" clip-rule="evenodd" d="M25.92 30.622c.287-.165.614-.248.945-.24.34 0 .585.102.73.332-.137.223-.427.344-.87.318-.337-.02-.587-.198-.805-.409m.865-.525c.266-.183.579-.29.902-.306.333-.019.58.054.735.27-.118.23-.393.37-.826.377-.325 0-.583-.152-.811-.34m.817-.581c.246-.2.544-.327.859-.367.325-.046.57.007.738.204-.102.235-.355.396-.777.435-.32.026-.582-.102-.817-.272m.772-.644c.226-.217.51-.366.817-.428.32-.071.56-.036.747.143-.081.237-.321.409-.73.487-.307.053-.58-.055-.831-.205m.722-.681a1.66 1.66 0 01.776-.493c.307-.094.548-.081.743.085-.06.24-.28.434-.683.538-.307.077-.578-.005-.836-.13zm.673-.739c.186-.249.439-.44.73-.55.298-.12.544-.127.752.02-.04.248-.246.459-.639.596-.294.102-.574.04-.843-.066zm.619-.77c.167-.264.404-.477.686-.613.29-.145.538-.173.758-.041-.019.25-.205.48-.589.65-.29.128-.578.091-.855.007" fill="#F5E50D"/><path fill-rule="evenodd" clip-rule="evenodd" d="M30.955 25.868c.146-.281.368-.515.642-.676.282-.172.529-.215.761-.102 0 .253-.17.503-.544.7-.279.154-.573.142-.859.08" fill="#F5E50D"/><path fill-rule="evenodd" clip-rule="evenodd" d="M31.451 25.023c.13-.296.337-.552.602-.739.269-.194.517-.262.764-.161.022.256-.134.524-.497.756-.274.178-.573.185-.869.144z" fill="#F5E50D"/><path fill-rule="evenodd" clip-rule="evenodd" d="M31.884 24.14c.107-.315.3-.593.557-.803.263-.218.511-.306.771-.228.04.265-.102.549-.455.817-.264.205-.57.237-.873.218" fill="#F5E50D"/><path fill-rule="evenodd" clip-rule="evenodd" d="M32.245 23.23c.087-.328.264-.625.51-.858.257-.248.501-.355.778-.29.061.266-.065.569-.408.868-.259.225-.572.28-.884.28" fill="#F5E50D"/><path fill-rule="evenodd" clip-rule="evenodd" d="M32.527 22.3c.069-.345.233-.664.473-.92.244-.272.492-.397.777-.347.082.266-.023.585-.358.919-.25.251-.57.327-.892.351m-8.343 9.041a1.861 1.861 0 01.268-1c.178-.314.395-.491.684-.505.137.245.102.579-.153.975-.191.295-.488.44-.8.53z" fill="#F5E50D"/><path fill-rule="evenodd" clip-rule="evenodd" d="M25.078 30.958c-.03-.34.035-.681.19-.985.158-.316.352-.501.63-.535.151.23.135.556-.085.953-.168.3-.443.459-.735.567z" fill="#F5E50D"/><path fill-rule="evenodd" clip-rule="evenodd" d="M25.92 30.479a1.783 1.783 0 01.117-.966c.132-.321.306-.511.576-.562.158.212.168.525-.018.93-.143.3-.397.47-.675.598z" fill="#F5E50D"/><path fill-rule="evenodd" clip-rule="evenodd" d="M26.715 29.926a1.77 1.77 0 01.043-.952c.107-.317.263-.517.519-.586.17.195.204.5.05.904-.116.306-.353.491-.613.634" fill="#F5E50D"/><path fill-rule="evenodd" clip-rule="evenodd" d="M27.469 29.329a1.68 1.68 0 01-.03-.936c.074-.315.213-.524.463-.613.18.178.237.476.114.883-.09.306-.306.505-.547.665" fill="#F5E50D"/><path fill-rule="evenodd" clip-rule="evenodd" d="M28.179 28.684c-.12-.29-.156-.61-.102-.919.05-.319.168-.535.408-.64.195.161.27.451.19.86-.068.307-.267.518-.493.695" fill="#F5E50D"/><path fill-rule="evenodd" clip-rule="evenodd" d="M28.85 28.007a1.64 1.64 0 01-.173-.897c.025-.323.123-.545.35-.67.204.144.306.428.25.838-.034.306-.215.535-.427.73z" fill="#F5E50D"/><path fill-rule="evenodd" clip-rule="evenodd" d="M29.485 27.298a1.695 1.695 0 01-.246-.881c0-.323.08-.553.294-.696.213.128.338.4.32.812-.012.313-.17.554-.368.765z" fill="#F5E50D"/><path fill-rule="evenodd" clip-rule="evenodd" d="M30.08 26.556a1.659 1.659 0 01-.32-.866c-.03-.322.033-.557.238-.715.225.103.37.368.388.788.011.315-.127.568-.306.794m.554-.769a1.671 1.671 0 01-.395-.846c-.058-.325-.011-.568.18-.745.237.092.403.343.457.764.037.316-.083.586-.242.828zm.499-.794a1.777 1.777 0 01-.468-.83c-.084-.322-.053-.577.13-.773.246.077.439.32.525.74.061.318-.04.602-.187.863z" fill="#F5E50D"/><path fill-rule="evenodd" clip-rule="evenodd" d="M31.578 24.166a1.752 1.752 0 01-.54-.81c-.108-.322-.102-.587.072-.797.259.056.471.29.59.715.09.32.008.613-.122.89" fill="#F5E50D"/><path fill-rule="evenodd" clip-rule="evenodd" d="M31.948 23.314a1.878 1.878 0 01-.613-.794c-.136-.322-.143-.591.017-.826.269.042.506.27.656.695.118.32.053.634-.06.925z" fill="#F5E50D"/><path fill-rule="evenodd" clip-rule="evenodd" d="M32.223 22.431a1.847 1.847 0 01-.688-.775c-.165-.328-.19-.604-.044-.853.283.023.54.24.73.669.138.327.102.65 0 .959m.336-1.066a1.868 1.868 0 01-.114-1.031c.059-.358.195-.6.457-.715.218.183.306.51.204.968-.073.348-.293.587-.551.783M12.03 31.464a1.879 1.879 0 00-1.031-.12c-.362.054-.603.187-.723.45.18.22.503.307.965.214.345-.07.587-.289.789-.544z" fill="#F5E50D"/><path fill-rule="evenodd" clip-rule="evenodd" d="M11.078 31.083a1.806 1.806 0 00-.99-.183c-.352.027-.594.14-.726.391.161.22.468.326.919.269.342-.048.586-.245.797-.477z" fill="#F5E50D"/><path fill-rule="evenodd" clip-rule="evenodd" d="M10.168 30.622a1.817 1.817 0 00-.941-.24c-.344 0-.587.102-.734.328.141.227.431.348.869.322.335-.02.589-.198.806-.409m-.867-.525a1.726 1.726 0 00-.902-.306c-.329-.023-.575.054-.733.27.12.23.392.369.825.377.324 0 .585-.152.81-.34m-.82-.581a1.68 1.68 0 00-.856-.367c-.326-.046-.57 0-.738.204.102.235.355.396.774.431.318.03.584-.102.817-.268m-.768-.644a1.634 1.634 0 00-.816-.428c-.317-.071-.558-.037-.743.145.08.235.32.409.732.485.306.054.58-.055.828-.205m-.727-.681a1.652 1.652 0 00-.772-.493c-.306-.094-.55-.081-.748.085.06.24.285.434.683.538.285.06.583.014.837-.13zm-.67-.739a1.66 1.66 0 00-.73-.55c-.301-.12-.542-.126-.752.02.041.248.245.459.638.596.294.102.576.04.844-.066zm-.621-.77a1.664 1.664 0 00-.684-.613c-.294-.144-.536-.172-.76-.04.02.25.21.48.592.65.288.128.576.091.852.007" fill="#F5E50D"/><path fill-rule="evenodd" clip-rule="evenodd" d="M5.13 25.868a1.648 1.648 0 00-.646-.676c-.277-.172-.524-.215-.758-.102 0 .253.173.503.543.7.28.154.574.142.86.08" fill="#F5E50D"/><path fill-rule="evenodd" clip-rule="evenodd" d="M4.633 25.023a1.715 1.715 0 00-.6-.74c-.27-.193-.51-.259-.763-.16-.02.256.135.523.498.756.275.178.57.185.865.144z" fill="#F5E50D"/><path fill-rule="evenodd" clip-rule="evenodd" d="M4.204 24.14a1.789 1.789 0 00-.56-.803c-.26-.22-.51-.306-.767-.225-.041.262.103.546.45.81.267.205.574.235.877.218z" fill="#F5E50D"/><path fill-rule="evenodd" clip-rule="evenodd" d="M3.843 23.23a1.793 1.793 0 00-.511-.858c-.253-.248-.502-.355-.772-.29-.06.266.063.569.403.868.263.225.57.278.884.28" fill="#F5E50D"/><path fill-rule="evenodd" clip-rule="evenodd" d="M3.56 22.3a1.849 1.849 0 00-.474-.92c-.243-.268-.488-.394-.776-.347-.08.266.023.585.357.919.252.251.571.327.894.351m8.343 9.041a1.868 1.868 0 00-.267-1c-.18-.314-.395-.491-.685-.505-.137.245-.102.579.155.975.192.295.485.44.797.53z" fill="#F5E50D"/><path fill-rule="evenodd" clip-rule="evenodd" d="M11.007 30.958a1.774 1.774 0 00-.19-.985c-.152-.316-.35-.501-.629-.535-.147.23-.134.556.088.953.164.3.442.459.731.567z" fill="#F5E50D"/><path fill-rule="evenodd" clip-rule="evenodd" d="M10.169 30.479a1.747 1.747 0 00-.12-.966c-.128-.321-.306-.511-.577-.562-.155.211-.165.525.022.93.141.3.398.47.675.598z" fill="#F5E50D"/><path fill-rule="evenodd" clip-rule="evenodd" d="M9.375 29.926a1.736 1.736 0 00-.048-.955c-.102-.314-.26-.51-.518-.583-.169.195-.204.5-.049.904.116.306.355.491.613.634" fill="#F5E50D"/><path fill-rule="evenodd" clip-rule="evenodd" d="M8.62 29.329c.097-.303.108-.627.03-.936-.077-.318-.217-.524-.462-.613-.18.178-.235.476-.115.883.086.306.306.505.547.665" fill="#F5E50D"/><path fill-rule="evenodd" clip-rule="evenodd" d="M7.911 28.684c.118-.29.153-.609.102-.919-.05-.319-.171-.535-.408-.64-.192.161-.268.451-.187.86.072.285.248.533.493.695" fill="#F5E50D"/><path fill-rule="evenodd" clip-rule="evenodd" d="M7.238 28.007c.14-.277.2-.588.173-.897-.024-.323-.125-.545-.35-.67-.204.144-.306.428-.254.838.04.306.215.535.431.73z" fill="#F5E50D"/><path fill-rule="evenodd" clip-rule="evenodd" d="M6.6 27.298c.164-.265.25-.57.25-.881 0-.323-.08-.553-.293-.696-.217.128-.338.4-.323.812.013.313.171.554.367.765z" fill="#F5E50D"/><path fill-rule="evenodd" clip-rule="evenodd" d="M6.01 26.556c.184-.254.294-.553.317-.866.028-.322-.037-.56-.24-.715-.224.103-.369.368-.384.788-.017.306.127.568.306.794" fill="#F5E50D"/><path fill-rule="evenodd" clip-rule="evenodd" d="M5.457 25.788c.208-.24.345-.533.395-.846.055-.325.007-.568-.185-.745-.234.092-.403.343-.457.764-.022.297.065.592.247.828zm-.504-.794c.23-.228.392-.516.468-.83.083-.322.056-.577-.128-.773-.248.077-.435.32-.522.74-.063.318.036.602.182.863z" fill="#F5E50D"/><path fill-rule="evenodd" clip-rule="evenodd" d="M4.507 24.166c.253-.213.44-.494.54-.81.111-.322.102-.587-.07-.797-.256.056-.47.289-.59.715-.09.32-.007.613.12.89" fill="#F5E50D"/><path fill-rule="evenodd" clip-rule="evenodd" d="M4.139 23.314a1.84 1.84 0 00.613-.794c.134-.322.146-.591-.013-.825-.272.041-.511.268-.66.694-.115.32-.051.634.06.925z" fill="#F5E50D"/><path fill-rule="evenodd" clip-rule="evenodd" d="M3.868 22.431c.298-.188.535-.457.686-.775.161-.328.19-.604.04-.853-.281.023-.539.24-.723.669-.143.327-.102.651 0 .959m-.341-1.066c.134-.326.174-.684.112-1.031-.055-.36-.193-.6-.456-.715-.219.18-.307.506-.204.966.071.348.293.587.55.783" fill="#F5E50D"/><path fill-rule="evenodd" clip-rule="evenodd" d="M2.186 20.279c.136.271 1.021 1.048 1.021 1.048-.2-.45-1.021-1.048-1.021-1.048zm1.469 1.195c.34-.359.591-1.342.591-1.342-.201.226-.591 1.342-.591 1.342zm30.258-1.221c-.136.271-1.026 1.047-1.026 1.047.206-.45 1.026-1.047 1.026-1.047zm-1.469 1.195c-.34-.357-.591-1.342-.591-1.342.201.227.591 1.342.591 1.342z" fill="#D4D4D2"/></g><path d="M46.195 6.18V14h-1.606V6.18h1.606zm2.406 0v1.262h-6.38V6.18h6.38zm.919 0h2.916c.598 0 1.112.09 1.541.268.434.18.767.444 1 .795.232.351.349.782.349 1.294 0 .42-.072.78-.215 1.08a2.02 2.02 0 01-.596.747 3.092 3.092 0 01-.897.472l-.51.269h-2.536l-.01-1.257h1.885c.283 0 .517-.05.703-.15.187-.1.326-.24.42-.42.096-.178.144-.386.144-.622a1.4 1.4 0 00-.14-.65.942.942 0 00-.424-.42c-.19-.096-.428-.144-.714-.144h-1.305V14H49.52V6.18zM53.892 14l-1.784-3.486 1.703-.01 1.805 3.42V14h-1.724zm6.993-7.82h1.606v5.167c0 .601-.13 1.108-.387 1.52a2.386 2.386 0 01-1.058.929c-.448.208-.963.311-1.547.311s-1.103-.103-1.558-.311a2.419 2.419 0 01-1.063-.93c-.254-.411-.381-.918-.381-1.52V6.18h1.61v5.167c0 .35.056.637.167.859.111.222.27.385.478.489.212.104.46.155.747.155.294 0 .542-.051.747-.155.207-.104.365-.267.472-.49.111-.221.167-.508.167-.858V6.18zm9.297 0V14h-1.611l-3.142-5.242V14h-1.612V6.18h1.612l3.147 5.247V6.18h1.606zm7.6 3.732v3.1c-.121.146-.31.306-.564.478a3.774 3.774 0 01-.983.435c-.4.121-.886.182-1.455.182-.505 0-.965-.082-1.38-.247a2.982 2.982 0 01-1.075-.736 3.318 3.318 0 01-.687-1.181c-.161-.47-.242-1.005-.242-1.606v-.489c0-.602.077-1.137.231-1.606.157-.469.381-.865.671-1.187.29-.322.636-.567 1.037-.736a3.424 3.424 0 011.337-.252c.68 0 1.24.11 1.676.333.437.218.77.523 1 .913.232.387.375.83.429 1.332h-1.563a1.998 1.998 0 00-.226-.693 1.166 1.166 0 00-.478-.462c-.204-.11-.469-.166-.795-.166-.268 0-.508.055-.72.166a1.424 1.424 0 00-.526.478 2.385 2.385 0 00-.327.784 4.655 4.655 0 00-.113 1.085v.5c0 .408.04.77.118 1.085.079.311.195.574.35.79.157.21.35.37.58.477.228.108.495.162.8.162.254 0 .465-.022.633-.065a1.59 1.59 0 00.414-.156c.107-.064.19-.125.247-.182v-1.386h-1.472v-1.15h3.083zm7.246-3.732V14h-1.606V6.18h1.606zm2.406 0v1.262h-6.38V6.18h6.38zm3.518 1.337L88.825 14h-1.713l2.906-7.82h1.09l-.156 1.337zM92.72 14l-2.132-6.483-.172-1.337h1.101L94.438 14h-1.719zm-.096-2.911v1.262h-4.13v-1.262h4.13zM91.23 4.085l1.623 1.493v.064h-1.23l-.844-.784-.832.784h-1.209v-.08l1.596-1.477h.896zM95.9 6.18h1.364l2.009 5.741 2.009-5.741h1.364L99.82 14h-1.096L95.9 6.18zm-.736 0h1.359l.247 5.596V14h-1.606V6.18zm6.859 0h1.364V14h-1.611v-2.224l.247-5.596zm8.723 0V14h-1.606V6.18h1.606zm2.406 0v1.262h-6.381V6.18h6.381zm6.134 3.185v1.256h-4.082V9.365h4.082zm-3.604-3.185V14h-1.612V6.18h1.612zm4.753 0V14h-1.606V6.18h1.606zm8.379-.435h1.02c0 .526-.068.975-.204 1.348a1.6 1.6 0 01-.703.848c-.33.194-.786.29-1.37.29V7.4c.38 0 .659-.065.838-.194a.9.9 0 00.344-.569 4.56 4.56 0 00.075-.891zm-2.659.435h1.606v5.167c0 .601-.129 1.108-.386 1.52a2.388 2.388 0 01-1.059.929c-.447.208-.963.311-1.546.311-.584 0-1.103-.103-1.558-.311a2.422 2.422 0 01-1.064-.93c-.254-.411-.381-.918-.381-1.52V6.18h1.611v5.167c0 .35.056.637.167.859.111.222.27.385.478.489.211.104.46.155.747.155.293 0 .542-.051.746-.155a1.03 1.03 0 00.473-.49c.111-.221.166-.508.166-.858V6.18zm9.083 6.187l1.842-6.187h1.794L136.15 14h-1.182l.269-1.633zM133.54 6.18l1.836 6.187.28 1.633h-1.193l-2.707-7.82h1.784zm7.777 0V14h-1.606V6.18h1.606zm6.757 6.563V14h-4.163v-1.257h4.163zm-3.636-6.563V14h-1.612V6.18h1.612zm3.093 3.185v1.224h-3.62V9.365h3.62zm.537-3.185v1.262h-4.157V6.18h4.157zm-2.078-2.117l1.622 1.494v.064h-1.23l-.843-.784-.833.784h-1.208v-.08l1.595-1.478h.897zm-1.305 11.145c0-.207.078-.381.236-.52.157-.137.369-.205.634-.205.261 0 .471.068.628.204.161.14.242.314.242.521a.657.657 0 01-.242.516c-.157.14-.367.21-.628.21-.265 0-.477-.07-.634-.21a.66.66 0 01-.236-.516zm10.693-9.028V14h-1.611l-3.142-5.242V14h-1.611V6.18h1.611l3.147 5.247V6.18h1.606zM45.26 29h-1.702l.01-1.257h1.692c.423 0 .78-.095 1.07-.285.29-.193.508-.474.654-.843.15-.369.226-.814.226-1.337v-.382a3.91 3.91 0 00-.129-1.058 2.104 2.104 0 00-.37-.768 1.55 1.55 0 00-.608-.467 2.006 2.006 0 00-.827-.161h-1.75V21.18h1.75c.523 0 1.001.09 1.434.268a3.25 3.25 0 011.134.757c.318.33.564.724.736 1.182.175.455.263.962.263 1.52v.37c0 .556-.088 1.062-.263 1.52a3.388 3.388 0 01-.736 1.182 3.267 3.267 0 01-1.134.758c-.436.175-.92.263-1.45.263zm-.79-7.82V29h-1.61v-7.82h1.61zm1.354 3.4v.956H42.06v-.957h3.765zm7.251-2.063L50.948 29h-1.713l2.906-7.82h1.09l-.156 1.337zM54.842 29l-2.132-6.483-.172-1.337h1.101L56.561 29h-1.719zm-.096-2.911v1.262h-4.13v-1.262h4.13zm-2.68 4.14c0-.207.078-.38.236-.52.157-.136.369-.204.633-.204.262 0 .471.068.629.204.161.14.242.313.242.52 0 .205-.08.377-.242.517-.158.14-.367.209-.629.209-.264 0-.476-.07-.633-.21a.662.662 0 01-.237-.515zm6.933-9.05V29h-1.605v-7.82h1.605zm9.464 3.186v1.257h-4.082v-1.257h4.082zM64.86 21.18V29h-1.611v-7.82h1.611zm4.754 0V29h-1.606v-7.82h1.606zm7.826 3.727v.37c0 .595-.081 1.129-.242 1.601a3.52 3.52 0 01-.682 1.209 2.95 2.95 0 01-1.053.757 3.353 3.353 0 01-1.348.263c-.49 0-.94-.087-1.348-.263a3.021 3.021 0 01-1.053-.757 3.539 3.539 0 01-.693-1.209 4.945 4.945 0 01-.242-1.6v-.37c0-.599.08-1.132.242-1.602.161-.472.389-.875.682-1.208a2.992 2.992 0 011.053-.763 3.38 3.38 0 011.348-.263c.494 0 .944.088 1.348.263.408.176.76.43 1.053.763.297.333.526.736.687 1.209.165.469.248 1.002.248 1.6zm-1.628.37v-.38a4.76 4.76 0 00-.113-1.096 2.376 2.376 0 00-.333-.795 1.438 1.438 0 00-.537-.484 1.535 1.535 0 00-.725-.166c-.272 0-.514.055-.725.166a1.452 1.452 0 00-.532.484 2.45 2.45 0 00-.327.795c-.076.315-.113.68-.113 1.095v.382c0 .412.037.777.113 1.095.075.316.186.582.333.8.146.216.325.379.537.49.21.11.453.166.725.166.272 0 .514-.056.725-.166.211-.111.388-.274.532-.49a2.5 2.5 0 00.327-.8 4.8 4.8 0 00.113-1.095zm-2.551 4.985c0-.208.078-.381.236-.52.158-.137.369-.205.634-.205.261 0 .47.068.628.204.161.14.242.313.242.521 0 .204-.08.376-.242.516-.157.14-.367.21-.628.21-.265 0-.476-.07-.634-.21a.662.662 0 01-.236-.516zm9.872-3.856h1.606a2.913 2.913 0 01-.435 1.402c-.254.408-.61.726-1.07.956-.454.229-1.002.343-1.643.343-.501 0-.95-.086-1.348-.258a2.869 2.869 0 01-1.02-.752 3.349 3.349 0 01-.64-1.181 5.112 5.112 0 01-.22-1.552v-.543c0-.573.076-1.09.226-1.552.154-.466.372-.861.655-1.187a2.92 2.92 0 011.026-.752 3.263 3.263 0 011.332-.263c.652 0 1.201.118 1.649.354.451.237.8.562 1.047.978.251.415.401.888.452 1.418h-1.612a2.074 2.074 0 00-.188-.8 1.066 1.066 0 00-.489-.5c-.214-.115-.5-.172-.859-.172-.269 0-.503.05-.704.15-.2.1-.368.253-.504.457a2.253 2.253 0 00-.307.773c-.064.308-.096.67-.096 1.085v.554c0 .404.03.76.091 1.069.06.304.154.562.28.773a1.3 1.3 0 00.493.473c.205.103.45.155.736.155.337 0 .614-.053.833-.16a1.12 1.12 0 00.5-.479c.117-.211.187-.474.209-.79zm7.014-5.226V29h-1.61v-7.82h1.61zm4.684 0l-3.099 3.861-1.789 1.923-.29-1.525 1.209-1.654 1.992-2.605h1.977zM93 29l-2.305-3.615 1.193-.999L94.905 29H93zm4.243-7.82V29h-1.606v-7.82h1.606zm7.874 0V29h-1.612l-3.142-5.242V29h-1.611v-7.82h1.611l3.148 5.247V21.18h1.606zm6.617 3.185v1.257h-4.082v-1.257h4.082zm-3.604-3.185V29h-1.611v-7.82h1.611zm4.753 0V29h-1.606v-7.82h1.606zm7.348 0V29h-1.606v-7.82h1.606zm2.406 0v1.262h-6.381V21.18h6.381zm6.166 6.563V29h-4.162v-1.257h4.162zm-3.636-6.563V29h-1.611v-7.82h1.611zm3.094 3.185v1.224h-3.62v-1.224h3.62zm.537-3.185v1.262h-4.157V21.18h4.157zm-4.485-.452l1.52-1.246h.859l1.526 1.246h-1.139l-.816-.693-.817.693h-1.133zm3.513-.735l.881-1.445h1.219l-1.219 1.445h-.881zm8.905 7.847l2.116 1.675-1.015.881-2.084-1.675.983-.881zm2.17-2.933v.37c0 .595-.081 1.129-.242 1.601a3.4 3.4 0 01-.682 1.209c-.297.33-.648.582-1.053.757a3.35 3.35 0 01-1.348.263c-.49 0-.94-.087-1.348-.263a3.008 3.008 0 01-1.058-.757 3.547 3.547 0 01-.693-1.209 4.948 4.948 0 01-.242-1.6v-.37c0-.599.081-1.132.242-1.602.165-.472.394-.875.688-1.208a2.923 2.923 0 011.052-.763 3.384 3.384 0 011.348-.263c.495 0 .944.088 1.349.263.408.176.761.43 1.058.763.297.333.526.736.687 1.209.161.469.242 1.002.242 1.6zm-1.628.37v-.38c0-.416-.039-.781-.118-1.096a2.368 2.368 0 00-.333-.795 1.396 1.396 0 00-.531-.484 1.539 1.539 0 00-.726-.166c-.272 0-.513.055-.725.166a1.396 1.396 0 00-.531.484 2.43 2.43 0 00-.328.795c-.075.315-.113.68-.113 1.095v.382c0 .412.038.777.113 1.095.075.316.184.582.328.8.146.216.325.379.537.49.215.11.458.166.73.166.272 0 .512-.056.72-.166.211-.111.388-.274.532-.49.146-.218.257-.484.333-.8a4.81 4.81 0 00.112-1.095zm7.112-4.097h1.606v5.167c0 .601-.129 1.108-.387 1.52a2.386 2.386 0 01-1.058.929c-.448.207-.963.311-1.547.311s-1.103-.104-1.558-.311a2.42 2.42 0 01-1.063-.93c-.254-.411-.381-.918-.381-1.52V21.18h1.611v5.167c0 .35.055.637.166.859.111.222.271.385.478.489.212.104.461.155.747.155.294 0 .543-.052.747-.155.207-.104.365-.267.472-.49.111-.221.167-.507.167-.858V21.18zm9.356 3.727v.37c0 .595-.08 1.129-.241 1.601a3.529 3.529 0 01-.683 1.209 2.95 2.95 0 01-1.052.757 3.354 3.354 0 01-1.348.263c-.491 0-.94-.087-1.349-.263a3.022 3.022 0 01-1.052-.757 3.515 3.515 0 01-.693-1.209 4.948 4.948 0 01-.242-1.6v-.37c0-.599.081-1.132.242-1.602.161-.472.388-.875.682-1.208a2.987 2.987 0 011.053-.763 3.377 3.377 0 011.348-.263c.494 0 .943.088 1.348.263.408.176.759.43 1.053.763.297.333.526.736.687 1.209.165.469.247 1.002.247 1.6zm-1.627.37v-.38a4.76 4.76 0 00-.113-1.096 2.368 2.368 0 00-.333-.795 1.442 1.442 0 00-.537-.484 1.535 1.535 0 00-.725-.166c-.272 0-.514.055-.725.166a1.452 1.452 0 00-.532.484c-.143.215-.252.48-.328.795a4.76 4.76 0 00-.112 1.095v.382c0 .412.037.777.112 1.095.076.316.187.582.333.8.147.216.326.379.537.49.212.11.453.166.726.166.272 0 .513-.056.725-.166a1.44 1.44 0 00.531-.49c.144-.218.253-.484.328-.8a4.8 4.8 0 00.113-1.095zm-3.669-4.533l1.52-1.246h.86l1.525 1.246h-1.139l-.816-.692-.816.692h-1.134zm3.513-.735l.881-1.445h1.219l-1.219 1.445h-.881zm7.477 6.397h1.606a2.92 2.92 0 01-.436 1.402c-.254.408-.61.726-1.068.956-.455.229-1.003.343-1.644.343-.501 0-.951-.086-1.348-.258a2.867 2.867 0 01-1.021-.752 3.357 3.357 0 01-.639-1.181 5.106 5.106 0 01-.22-1.552v-.543c0-.573.075-1.09.226-1.552.154-.466.372-.861.655-1.187a2.911 2.911 0 011.026-.752 3.26 3.26 0 011.332-.263c.652 0 1.201.118 1.649.354.451.237.8.562 1.047.978a3.3 3.3 0 01.451 1.418h-1.611a2.083 2.083 0 00-.188-.8 1.062 1.062 0 00-.489-.5c-.215-.115-.501-.172-.859-.172-.269 0-.503.05-.704.15-.2.1-.369.253-.505.457a2.253 2.253 0 00-.306.773c-.064.308-.096.67-.096 1.085v.554c0 .404.03.76.091 1.069.061.304.154.562.279.773.129.208.294.365.494.473.204.103.45.155.736.155.337 0 .614-.053.833-.16a1.11 1.11 0 00.499-.479c.118-.211.188-.474.21-.79zM167.238 29h-1.703l.011-1.257h1.692c.422 0 .779-.095 1.069-.285.29-.193.508-.474.655-.843.15-.369.226-.814.226-1.337v-.382c0-.4-.043-.753-.129-1.058a2.11 2.11 0 00-.371-.768 1.551 1.551 0 00-.607-.467 2.007 2.007 0 00-.827-.161h-1.751V21.18h1.751c.523 0 1.001.09 1.434.268.437.176.815.428 1.133.757.319.33.564.724.736 1.182.176.455.263.962.263 1.52v.37c0 .556-.087 1.062-.263 1.52a3.384 3.384 0 01-.736 1.182 3.268 3.268 0 01-1.133.758c-.437.175-.92.263-1.45.263zm-.79-7.82V29h-1.611v-7.82h1.611zm8.605 1.337L172.926 29h-1.714l2.906-7.82h1.09l-.155 1.337zM176.82 29l-2.132-6.483-.172-1.337h1.101l2.922 7.82h-1.719zm-.097-2.911v1.262h-4.13v-1.262h4.13zm-1.391-7.004l1.622 1.493v.064h-1.23l-.843-.784-.833.784h-1.208v-.08l1.595-1.477h.897zm10.296 2.095V29h-1.611l-3.142-5.242V29h-1.611v-7.82h1.611l3.147 5.247V21.18h1.606z" fill="#0065CA"/></g><defs><clipPath id="clip0_422_214581"><path fill="#fff" d="M0 0h187v36.001H0z"/></clipPath><clipPath id="clip1_422_214581"><path fill="#fff" d="M0 0h36v36.001H0z"/></clipPath></defs></svg>