<svg width="17" height="16" fill="none" xmlns="http://www.w3.org/2000/svg"><path d="M16.464 6.084c-.058-.184-.231-.3-.52-.347L11.118 5 8.954.413C8.819.138 8.662 0 8.483 0c-.186 0-.343.138-.471.413L5.848 5.001l-4.827.736c-.289.047-.462.163-.52.347-.057.185.016.385.222.6l3.5 3.57-.827 5.04c-.032.222-.013.395.058.52A.35.35 0 003.78 16c.109 0 .237-.04.384-.121l4.318-2.38 4.317 2.38a.83.83 0 00.385.121.35.35 0 00.327-.187c.07-.124.09-.297.058-.519l-.827-5.04 3.49-3.57c.212-.215.289-.415.23-.6z" fill="#F39F00"/></svg>