<svg width="16" height="16" fill="none" xmlns="http://www.w3.org/2000/svg"><path d="M3.917 3.667a2.25 2.25 0 00-2.25 2.25v4.5a2.25 2.25 0 002.25 2.25h1.968a.285.285 0 00.282-.281v-.563c0-.14-.141-.281-.282-.281H3.917a1.11 1.11 0 01-1.125-1.125v-4.5c0-.61.492-1.125 1.125-1.125h1.968a.285.285 0 00.282-.281v-.563c0-.14-.141-.281-.282-.281H3.917zm5.414.469l-.47.468c-.116.094-.116.282 0 .399l2.65 2.554H5.697a.285.285 0 00-.281.282v.656a.27.27 0 00.28.281h5.813l-2.648 2.578c-.117.117-.117.305 0 .399l.469.468c.093.118.28.118.398 0l3.844-3.843a.27.27 0 000-.399L9.729 4.136c-.117-.118-.305-.118-.398 0z" fill="#828282"/></svg>