<svg width="16" height="16" fill="none" xmlns="http://www.w3.org/2000/svg"><path d="M2.667 8.887a2.8 2.8 0 012.48-2.781l2.533-.291a2.8 2.8 0 01.64 0l2.533.29a2.8 2.8 0 012.48 2.782v2.502a2.8 2.8 0 01-2.324 2.759l-2.533.437a2.8 2.8 0 01-.952 0l-2.533-.437a2.8 2.8 0 01-2.324-2.76v-2.5z" stroke="#828282" stroke-width="1.3"/><circle cx="8" cy="9.481" r=".741" fill="#828282" stroke="#828282" stroke-width="1.3"/><path d="M5.333 6V4A2.667 2.667 0 018 1.333v0A2.667 2.667 0 0110.667 4v2M8 10.222v1.482" stroke="#828282" stroke-width="1.3" stroke-linecap="round"/></svg>