<svg width="16" height="17" fill="none" xmlns="http://www.w3.org/2000/svg"><path fill-rule="evenodd" clip-rule="evenodd" d="M7.333 3.519A3.333 3.333 0 004 6.852v5.333H2a1.333 1.333 0 01-1.333-1.333V8.186c0-.737.597-1.334 1.333-1.334h.667a4.667 4.667 0 014.666-4.666h1.334a4.667 4.667 0 014.666 4.666H14c.736 0 1.333.597 1.333 1.334v2.666c0 .737-.597 1.333-1.333 1.333h-.75c-.297 1.15-1.34 2-2.583 2h-.845a1.333 1.333 0 110-1.333h.845c.736 0 1.333-.597 1.333-1.333V6.852A3.333 3.333 0 008.667 3.52H7.333zM2.667 8.186H2v2.666h.667V8.186zm4.666.166a.833.833 0 11-1.666 0 .833.833 0 011.666 0zm2.167.834a.833.833 0 100-1.667.833.833 0 000 1.667zm3.833-1H14v2.666h-.667V8.186z" fill="#828282"/></svg>