<svg width="16" height="16" fill="none" xmlns="http://www.w3.org/2000/svg"><path fill-rule="evenodd" clip-rule="evenodd" d="M.667 2c0-.368.298-.667.666-.667h4a3.333 3.333 0 013.334 3.334V14a.667.667 0 01-1.334 0A1.333 1.333 0 006 12.667H1.333A.667.667 0 01.667 12V2zm6.666 9.69V4.668a2 2 0 00-2-2H2v8.666h4c.472 0 .931.126 1.333.358z" fill="#828282"/><path fill-rule="evenodd" clip-rule="evenodd" d="M8.31 2.31a3.333 3.333 0 012.357-.977h4c.368 0 .666.299.666.667v10a.667.667 0 01-.666.667H10A1.333 1.333 0 008.667 14a.667.667 0 01-1.334 0V4.667c0-.884.352-1.732.977-2.357zm.357 9.38A2.666 2.666 0 0110 11.335h4V2.667h-3.333a2 2 0 00-2 2v7.024z" fill="#828282"/></svg>