<svg width="16" height="16" fill="none" xmlns="http://www.w3.org/2000/svg"><path d="M8 14.667a6.6 6.6 0 01-3.86-1.23l-.09-.067a6.725 6.725 0 01-1.977-2.314A6.594 6.594 0 011.333 8a6.667 6.667 0 0113.334 0 6.594 6.594 0 01-.74 3.055 6.727 6.727 0 01-1.973 2.313 6.72 6.72 0 01-.988.6l-.053.027A6.6 6.6 0 018 14.667zm0-3.334a2.66 2.66 0 00-2.371 1.445c1.494.74 3.248.74 4.742 0v-.003A2.658 2.658 0 008 11.333zM8 10a4.01 4.01 0 013.486 2.037l.01-.008.01-.008-.012.01-.007.005a5.333 5.333 0 10-6.973 0A4.01 4.01 0 018 10zm0-.667A2.667 2.667 0 118 4a2.667 2.667 0 010 5.333zm0-4A1.333 1.333 0 108 8a1.333 1.333 0 000-2.667z" fill="#828282"/></svg>