<svg width="24" height="25" fill="none" xmlns="http://www.w3.org/2000/svg"><path d="M19.875 8.121h-4.5l-1.29-1.266a.763.763 0 00-.538-.234h-3.422C9.492 6.621 9 7.137 9 7.746v1.875H7.125c-.633 0-1.125.516-1.125 1.125v6.75a1.11 1.11 0 001.125 1.125h9.75c.61 0 1.125-.492 1.125-1.125v-1.875h1.875c.61 0 1.125-.492 1.125-1.125v-5.25a1.14 1.14 0 00-1.125-1.125zm-3 9.375h-9.75v-6.75H9v3.75a1.11 1.11 0 001.125 1.125h6.75v1.875zm3-3h-9.75v-6.75h3.281l1.266 1.29c.14.14.328.21.539.21h4.664v5.25z" fill="#323232"/></svg>