<svg width="17" height="17" fill="none" xmlns="http://www.w3.org/2000/svg"><g clip-path="url(#clip0_657_44805)"><path d="M7.697 6.342c-.29.027-.58.053-.843.132.131.211.184.475.21.712 0 .817-.685 1.477-1.476 1.477-.264 0-.527-.053-.712-.185a2.795 2.795 0 00-.132.817 2.948 2.948 0 002.953 2.953 2.948 2.948 0 002.953-2.953c0-1.608-1.318-2.926-2.953-2.926v-.027zm7.488 2.584c-1.424-2.795-4.271-4.693-7.488-4.693-3.243 0-6.09 1.898-7.514 4.693a.842.842 0 00-.079.37c0 .157.026.29.08.395 1.423 2.794 4.27 4.666 7.513 4.666 3.217 0 6.064-1.871 7.488-4.666a.841.841 0 00.08-.37.88.88 0 00-.08-.395zm-7.488 4.166c-2.61 0-5.01-1.45-6.275-3.797C2.688 6.95 5.087 5.5 7.697 5.5c2.584 0 4.983 1.45 6.249 3.796-1.266 2.347-3.665 3.797-6.249 3.797z" fill="#fff"/></g><defs><clipPath id="clip0_657_44805"><path fill="#fff" transform="translate(.769 .786)" d="M0 0h15.428v15.428H0z"/></clipPath></defs></svg>