<svg width="13" height="14" fill="none" xmlns="http://www.w3.org/2000/svg"><g clip-path="url(#clip0_590_44360)"><path d="M11.39 10.45V1.112a.437.437 0 00-.406-.406H2.053a2.02 2.02 0 00-2.03 2.03v8.932c0 1.142.888 2.03 2.03 2.03h8.931a.417.417 0 00.406-.406v-.406a.405.405 0 00-.33-.38c-.126-.33-.126-1.32 0-1.65.178-.025.33-.203.33-.406zm-1.37 2.03H2.053a.802.802 0 01-.812-.812c0-.431.355-.812.812-.812h7.967a5.803 5.803 0 000 1.624zm.152-2.842h-8.12a2 2 0 00-.811.178v-7.08c0-.431.355-.812.812-.812h8.12v7.714zM6.24 7.481l.685 1.345.66-1.345 1.37-.685-1.37-.66-.66-1.37-.685 1.37-1.344.66 1.344.685zm-2.156-1.7l.456-.939.965-.482-.965-.456-.456-.965-.482.965-.94.456.94.482.482.94z" fill="#323232"/></g><defs><clipPath id="clip0_590_44360"><path fill="#fff" transform="translate(0 .909)" d="M0 0h12.992v12.992H0z"/></clipPath></defs></svg>