<svg width="16" height="16" fill="none" xmlns="http://www.w3.org/2000/svg"><path d="M14.466 13.276l-1.922-1.922a2.914 2.914 0 00.516-1.664c0-1.664-1.336-3-3-3-1.641 0-3 1.336-3 3 0 1.64 1.359 3 3 3 .632 0 1.218-.21 1.687-.539l1.922 1.922c.07.07.164.117.258.117a.39.39 0 00.281-.117l.258-.281c.07-.047.117-.14.117-.258a.376.376 0 00-.117-.258zm-4.383-1.734a1.851 1.851 0 01-1.875-1.875c0-1.031.82-1.875 1.875-1.875a1.88 1.88 0 011.875 1.875c-.023 1.054-.844 1.875-1.875 1.875zm-7.875 1.5V3.315h3.75v2.438a.55.55 0 00.54.562h1.968a3.728 3.728 0 011.617-.375v-.68a1.247 1.247 0 00-.352-.796L7.786 2.518a1.247 1.247 0 00-.797-.351H2.208a1.145 1.145 0 00-1.125 1.148v9.727a1.11 1.11 0 001.125 1.125h6.75c.469 0 .89-.305 1.055-.75-.563 0-1.078-.14-1.547-.375H2.208zm4.875-9.656L8.864 5.19H7.083V3.385z" fill="#fff"/></svg>