<svg width="25" height="25" fill="none" xmlns="http://www.w3.org/2000/svg"><path fill-rule="evenodd" clip-rule="evenodd" d="M12.5.404c-6.627 0-12 5.373-12 12 0 6.628 5.373 12 12 12s12-5.372 12-12c0-6.627-5.373-12-12-12zm-.334 10.17l-.025-.416c-.076-1.076.587-2.06 1.636-2.44.387-.136 1.041-.153 1.47-.034.167.05.486.22.713.372l.411.28.453-.144c.252-.076.588-.203.739-.288.143-.076.269-.119.269-.093 0 .144-.311.635-.571.906-.353.382-.252.416.461.161.428-.144.437-.144.353.017-.05.085-.31.382-.588.653-.47.466-.495.517-.495.907 0 .601-.285 1.855-.57 2.542-.53 1.288-1.663 2.618-2.796 3.288-1.595.94-3.718 1.178-5.506.627-.596-.187-1.62-.661-1.62-.746 0-.025.31-.06.688-.068a4.725 4.725 0 002.25-.627l.453-.27-.52-.179c-.739-.254-1.402-.839-1.57-1.39-.05-.178-.034-.186.437-.186l.486-.008-.41-.195c-.488-.246-.933-.661-1.15-1.085-.16-.305-.362-1.076-.303-1.136.017-.025.193.026.394.094.58.212.655.16.32-.195-.63-.644-.823-1.602-.521-2.509l.143-.406.554.55c1.133 1.11 2.467 1.772 3.995 1.966l.42.051z" fill="#333"/></svg>