<svg width="17" height="16" fill="none" xmlns="http://www.w3.org/2000/svg"><path d="M14.5 11.63c0 .275-.115.539-.32.733a1.12 1.12 0 01-.77.304H3.59a1.12 1.12 0 01-.77-.304 1.012 1.012 0 01-.32-.733V5.926c0-.275.115-.539.32-.733a1.12 1.12 0 01.77-.304h2.183l1.09-1.556h3.273l1.091 1.556h2.182c.29 0 .567.11.771.304.205.194.32.458.32.733v5.704z" stroke="#097BE4" stroke-linecap="round" stroke-linejoin="round"/><path d="M8.5 10.667a2 2 0 100-4 2 2 0 000 4z" stroke="#097BE4" stroke-linecap="round" stroke-linejoin="round"/></svg>