<svg width="15" height="14" fill="none" xmlns="http://www.w3.org/2000/svg"><path fill-rule="evenodd" clip-rule="evenodd" d="M4.31 10.5a.875.875 0 00-.876.875.583.583 0 11-1.166 0 2.042 2.042 0 012.041-2.042h7.875a.583.583 0 110 1.167H4.31z" fill="#39B54A"/><path fill-rule="evenodd" clip-rule="evenodd" d="M4.31 1.75a.875.875 0 00-.876.875v8.75a.875.875 0 00.875.875h7.292V1.75H4.309zm0-1.167h7.874c.322 0 .584.262.584.584v11.666a.583.583 0 01-.584.584H4.31a2.042 2.042 0 01-2.041-2.042v-8.75A2.042 2.042 0 014.309.583z" fill="#39B54A"/></svg>