<svg width="17" height="16" fill="none" xmlns="http://www.w3.org/2000/svg"><path d="M13.885 2.354h-.656c-.164 0-.281.14-.281.305l.047 2.297a5.732 5.732 0 00-4.852-2.578c-3.21 0-5.812 2.625-5.789 5.812 0 3.211 2.602 5.79 5.812 5.79a5.89 5.89 0 003.891-1.477.297.297 0 000-.422l-.469-.469c-.093-.094-.257-.094-.375 0a4.546 4.546 0 01-3.046 1.149 4.571 4.571 0 01-4.594-4.594 4.586 4.586 0 014.593-4.594c1.852 0 3.446 1.125 4.172 2.719l-2.953-.07a.27.27 0 00-.281.28v.634a.27.27 0 00.281.28h4.5c.14 0 .281-.116.281-.28v-4.5c0-.141-.14-.282-.28-.282z" fill="#4F4F4F"/></svg>