<svg width="13" height="14" fill="none" xmlns="http://www.w3.org/2000/svg"><g clip-path="url(#clip0_590_44540)"><path d="M11.816 4.934h-.05c-1.244.05-3.553.33-5.1 1.193-1.574-.863-3.883-1.142-5.126-1.193h-.051c-.533 0-1.32.355-1.32 1.269v4.516c0 .66.533 1.218 1.218 1.269.863.05 3.045.228 4.492.939a.834.834 0 00.431.101h.685a.834.834 0 00.431-.101c1.447-.71 3.629-.888 4.492-.939.685-.05 1.243-.609 1.243-1.269V6.203c0-.914-.812-1.269-1.345-1.269zm-5.76 6.75c-1.548-.66-3.527-.863-4.618-.914a.055.055 0 01-.05-.05l-.026-4.543a.192.192 0 00.102-.05c.913.076 3.171.279 4.592 1.065v4.492zm5.887-.965c0 .026-.05.051-.076.051-1.091.05-3.07.254-4.593.914V7.192c1.396-.786 3.654-.99 4.542-1.04.05 0 .102.025.127.05v4.517zM6.665 4.91a2.42 2.42 0 002.436-2.436A2.437 2.437 0 006.665.037 2.42 2.42 0 004.23 2.473a2.42 2.42 0 002.436 2.436zm0-3.654c.66 0 1.218.558 1.218 1.218 0 .685-.558 1.218-1.218 1.218a1.202 1.202 0 01-1.218-1.218c0-.66.533-1.218 1.218-1.218z" fill="#323232"/></g><defs><clipPath id="clip0_590_44540"><path fill="#fff" transform="translate(0 .24)" d="M0 0h12.992v12.992H0z"/></clipPath></defs></svg>