<svg width="16" height="16" fill="none" xmlns="http://www.w3.org/2000/svg"><path d="M6 9H2.5a.5.5 0 01-.5-.5v-6a.5.5 0 01.5-.5h9a.5.5 0 01.5.5V5h-1V3H3v5h3v1zm4.5 1c-1.476 0-2.702-.32-3.5-.856V10c0 .829 1.567 1.5 3.5 1.5S14 10.829 14 10v-.856c-.799.537-2.024.856-3.5.856zm0 2.5c-1.476 0-2.702-.32-3.5-.856v.856c0 .829 1.567 1.5 3.5 1.5s3.5-.671 3.5-1.5v-.856c-.799.537-2.024.856-3.5.856z" fill="#828282"/><path d="M6.455 6.336c.343-.4.867-.728 1.532-.958a.998.998 0 10-1.532.958zM10.5 9c1.933 0 3.5-.672 3.5-1.5S12.433 6 10.5 6 7 6.672 7 7.5 8.567 9 10.5 9z" fill="#828282"/></svg>