<svg width="15" height="14" fill="none" xmlns="http://www.w3.org/2000/svg"><path fill-rule="evenodd" clip-rule="evenodd" d="M7.018 2.333A4.667 4.667 0 002.35 7v3.5a.583.583 0 01-1.166 0V7A5.833 5.833 0 1112.85 7v3.5a.583.583 0 11-1.166 0V7a4.667 4.667 0 00-4.667-4.667z" fill="#007BFF"/><path fill-rule="evenodd" clip-rule="evenodd" d="M1.185 8.167c0-.323.26-.584.583-.584h1.75a1.75 1.75 0 011.75 1.75v1.75a1.75 1.75 0 01-1.75 1.75h-.583a1.75 1.75 0 01-1.75-1.75V8.167zm1.166.583v2.333a.583.583 0 00.584.584h.583a.583.583 0 00.583-.584v-1.75a.583.583 0 00-.583-.583H2.35zm8.167 0a.583.583 0 00-.583.583v1.75a.583.583 0 00.583.584h.583a.583.583 0 00.584-.584V8.75h-1.167zM9.28 8.096a1.75 1.75 0 011.238-.513h1.75c.322 0 .583.261.583.584v2.916a1.75 1.75 0 01-1.75 1.75h-.583a1.75 1.75 0 01-1.75-1.75v-1.75c0-.464.184-.909.512-1.237z" fill="#007BFF"/></svg>