<svg width="16" height="16" fill="none" xmlns="http://www.w3.org/2000/svg"><path d="M8 1.333A6.665 6.665 0 001.333 8 6.665 6.665 0 008 14.667 6.665 6.665 0 0014.667 8 6.665 6.665 0 008 1.333zm-.667 11.954A5.328 5.328 0 012.667 8c0-.41.05-.81.14-1.193L6 10v.667C6 11.403 6.597 12 7.333 12v1.287zm4.597-1.69c-.17-.54-.67-.93-1.263-.93H10v-2C10 8.3 9.7 8 9.333 8h-4V6.667h1.334c.366 0 .666-.3.666-.667V4.667h1.334C9.403 4.667 10 4.07 10 3.334v-.277A5.33 5.33 0 0113.333 8a5.307 5.307 0 01-1.403 3.597z" fill="#828282"/></svg>