<svg width="25" height="25" fill="none" xmlns="http://www.w3.org/2000/svg"><path fill-rule="evenodd" clip-rule="evenodd" d="M12.5.404c-6.627 0-12 5.373-12 12 0 6.628 5.373 12 12 12s12-5.372 12-12c0-6.627-5.373-12-12-12zM9.862 6.043c.682-.031.9-.039 2.639-.039h-.002c1.738 0 1.956.008 2.638.039.682.031 1.147.139 1.555.297.421.164.777.382 1.133.738s.575.713.739 1.134c.157.407.265.872.297 1.553.031.683.039.901.039 2.64 0 1.738-.008 1.955-.039 2.638-.032.68-.14 1.146-.297 1.553-.164.42-.383.778-.739 1.134a3.13 3.13 0 01-1.133.738c-.407.159-.872.267-1.554.298-.682.03-.9.038-2.638.038s-1.956-.007-2.639-.038c-.681-.031-1.146-.14-1.554-.298a3.133 3.133 0 01-1.133-.738 3.137 3.137 0 01-.738-1.134c-.158-.407-.266-.872-.297-1.553-.031-.683-.039-.9-.039-2.639 0-1.738.008-1.956.039-2.639.03-.68.138-1.146.297-1.553.164-.42.383-.778.739-1.134a3.134 3.134 0 011.133-.738c.407-.158.872-.266 1.554-.297zm2.065 1.115h.574c1.708 0 1.911.006 2.586.036.624.029.962.133 1.188.22.299.117.512.256.736.48.224.224.362.437.479.736.087.225.192.564.22 1.188.03.674.037.877.037 2.585s-.006 1.91-.037 2.585c-.029.624-.133.963-.22 1.188a1.981 1.981 0 01-.48.736 1.98 1.98 0 01-.735.478c-.225.088-.564.192-1.188.22-.675.031-.878.038-2.586.038-1.71 0-1.912-.007-2.587-.037-.624-.03-.962-.133-1.188-.221a1.982 1.982 0 01-.736-.479 1.984 1.984 0 01-.479-.735c-.088-.226-.192-.564-.22-1.188-.031-.675-.037-.878-.037-2.587s.006-1.91.037-2.585c.028-.624.132-.963.22-1.188a1.98 1.98 0 01.479-.736c.224-.224.437-.363.736-.48.226-.087.564-.191 1.188-.22.59-.027.82-.035 2.013-.036v.002zm3.99 1.062a.768.768 0 100 1.537.768.768 0 000-1.537zm-6.703 4.184a3.287 3.287 0 116.574 0 3.287 3.287 0 01-6.574 0zm3.287-2.133a2.133 2.133 0 110 4.267 2.133 2.133 0 010-4.267z" fill="#333"/></svg>