<svg width="25" height="25" fill="none" xmlns="http://www.w3.org/2000/svg"><path d="M0 12.125C0 5.43 5.429 0 12.125 0 18.822 0 24.25 5.429 24.25 12.125c0 6.697-5.428 12.125-12.125 12.125C5.43 24.25 0 18.822 0 12.125z" fill="#fff"/><mask id="a" style="mask-type:alpha" maskUnits="userSpaceOnUse" x="3" y="3" width="18" height="18"><path fill="#fff" d="M3.464 3.844h17.322v16.563H3.464z"/></mask><g mask="url(#a)"><path d="M20.61 12.177c0-.578-.052-1.134-.15-1.667h-7.823v3.152h4.47a3.746 3.746 0 01-1.657 2.46v2.044h2.684c1.57-1.42 2.477-3.508 2.477-5.99z" fill="#4285F4"/><path d="M12.636 20.14c2.243 0 4.123-.73 5.498-1.974l-2.685-2.044c-.744.488-1.695.777-2.813.777-2.163 0-3.994-1.433-4.647-3.359H5.213v2.111c1.367 2.663 4.176 4.489 7.423 4.489z" fill="#34A853"/><path d="M7.989 13.54a4.813 4.813 0 01-.26-1.548c0-.537.094-1.06.26-1.548V8.333H5.213a8.02 8.02 0 000 7.318L7.99 13.54z" fill="#FBBC05"/><path d="M12.636 7.084c1.22 0 2.315.411 3.176 1.219l2.382-2.337c-1.439-1.315-3.319-2.122-5.558-2.122-3.247 0-6.056 1.826-7.423 4.488l2.776 2.112c.653-1.926 2.484-3.36 4.647-3.36z" fill="#EA4335"/></g></svg>