<svg width="25" height="25" fill="none" xmlns="http://www.w3.org/2000/svg"><path fill-rule="evenodd" clip-rule="evenodd" d="M12.5.404c-6.627 0-12 5.373-12 12 0 6.628 5.373 12 12 12s12-5.372 12-12c0-6.627-5.373-12-12-12zm5 7.875c.552.151.985.596 1.133 1.162.267 1.025.267 3.163.267 3.163s0 2.139-.267 3.164A1.625 1.625 0 0117.5 16.93c-.998.274-5.001.274-5.001.274s-4.003 0-5-.274a1.625 1.625 0 01-1.133-1.162C6.1 14.743 6.1 12.604 6.1 12.604s0-2.138.267-3.163a1.627 1.627 0 011.132-1.162c.998-.275 5.001-.275 5.001-.275s4.003 0 5 .275z" fill="#333"/><path fill-rule="evenodd" clip-rule="evenodd" d="M11.3 14.804v-4l3.2 2-3.2 2z" fill="#333"/></svg>