<svg width="16" height="16" fill="none" xmlns="http://www.w3.org/2000/svg"><path d="M13.333 5.333v7.094a1 1 0 01-1 1H3.667a1 1 0 01-1-1V3a1 1 0 011-1H10" stroke="#828282" stroke-width="1.3" stroke-linecap="round"/><path d="M13.729 4.5l-2.896-2.895-.92.92L12.81 5.42l.92-.92zM9.35 2.22v2.896h1.3V2.219h-1.3zm.869 3.764h2.895v-1.3h-2.896v1.3zm-.869-.868c0 .48.389.868.869.868v-1.3c.238 0 .431.194.431.432h-1.3zm1.483-3.51c-.547-.547-1.483-.16-1.483.614h1.3a.431.431 0 01-.737.305l.92-.92zm1.976 3.815a.431.431 0 01.305-.737v1.3c.774 0 1.162-.935.614-1.482l-.919.919z" fill="#828282"/><path stroke="#828282" stroke-width="1.3" stroke-linecap="round" d="M6.65 10.017h2.7m-3.367-2h4.034"/></svg>