<svg width="22" height="22" fill="none" xmlns="http://www.w3.org/2000/svg"><path fill-rule="evenodd" clip-rule="evenodd" d="M20.22 3.176H1.78c-.505 0-.84-.446-.84-1.116 0-.67.335-1.118.838-1.118H20.22c.503 0 .838.447.838 1.118 0 .67-.335 1.117-.838 1.117zm0 8.942H1.78c-.505 0-.84-.448-.84-1.118 0-.67.335-1.118.838-1.118H20.22c.503 0 .838.447.838 1.118 0 .67-.335 1.118-.838 1.118zM1.78 21.059h18.44c.504 0 .839-.447.839-1.118 0-.67-.335-1.117-.838-1.117H1.779c-.503 0-.838.447-.838 1.117 0 .671.335 1.118.838 1.118z" fill="#0065CA"/></svg>