<svg width="13" height="14" fill="none" xmlns="http://www.w3.org/2000/svg"><path d="M3.79 2.413v-.541a.541.541 0 01.54-.542h4.33a.541.541 0 01.542.542v.54h1.624c0 1.354-1.353 1.896-1.624 1.896V5.66h1.624c0 1.353-1.353 1.894-1.624 1.894V8.91h1.624c0 1.353-1.353 1.894-1.624 1.894v.812a.541.541 0 01-.541.541H4.33a.541.541 0 01-.542-.54v-.813c-.27 0-1.624-.541-1.624-1.894H3.79V7.555c-.27 0-1.624-.54-1.624-1.894H3.79V4.308c-.27 0-1.624-.542-1.624-1.895H3.79zm2.706 8.66a1.082 1.082 0 100-2.164 1.082 1.082 0 000 2.165zm0-3.247a1.083 1.083 0 100-2.165 1.083 1.083 0 000 2.165zm0-3.248a1.083 1.083 0 100-2.165 1.083 1.083 0 000 2.165z" fill="#09121F"/></svg>