<svg width="16" height="16" fill="none" xmlns="http://www.w3.org/2000/svg"><rect x=".5" y=".5" width="15" height="15" rx="7.5" fill="#828282"/><path d="M11.5 10.117a.59.59 0 01-.186.428.654.654 0 01-.45.177H5.136a.654.654 0 01-.45-.177.59.59 0 01-.186-.428V6.79a.59.59 0 01.186-.428.654.654 0 01.45-.177H6.41l.636-.907h1.91l.636.907h1.273c.168 0 .33.064.45.177a.59.59 0 01.186.428v3.327z" fill="#fff" stroke="#fff" stroke-linecap="round" stroke-linejoin="round"/><path d="M8 9.556a1.167 1.167 0 100-2.334 1.167 1.167 0 000 2.333z" fill="#828282" stroke="#828282" stroke-linecap="round" stroke-linejoin="round"/><rect x=".5" y=".5" width="15" height="15" rx="7.5" stroke="#fff"/></svg>