<svg width="20" height="20" fill="none" xmlns="http://www.w3.org/2000/svg"><mask id="a" style="mask-type:alpha" maskUnits="userSpaceOnUse" x="0" y="0" width="20" height="20"><path fill="#fff" d="M0 .438h20v19.124H0z"/></mask><g mask="url(#a)"><path d="M18.796 10.06c0-.667-.061-1.31-.174-1.925H9.589v3.64h5.161c-.222 1.175-.898 2.171-1.913 2.839v2.36h3.1c1.813-1.638 2.859-4.05 2.859-6.915z" fill="#4285F4"/><path d="M9.589 19.254c2.59 0 4.76-.843 6.347-2.28l-3.1-2.36c-.858.564-1.957.898-3.247.898-2.498 0-4.612-1.655-5.367-3.879H1.018v2.438c1.578 3.075 4.821 5.183 8.57 5.183z" fill="#34A853"/><path d="M4.222 11.633a5.558 5.558 0 01-.3-1.787c0-.62.109-1.223.3-1.788V5.621H1.018a9.261 9.261 0 000 8.45l3.204-2.438z" fill="#FBBC05"/><path d="M9.589 4.18c1.408 0 2.672.474 3.666 1.406l2.75-2.698C14.346 1.37 12.175.438 9.59.438c-3.75 0-6.993 2.108-8.57 5.183l3.203 2.437C4.977 5.835 7.091 4.18 9.59 4.18z" fill="#EA4335"/></g></svg>