<svg width="16" height="16" fill="none" xmlns="http://www.w3.org/2000/svg"><path d="M13.98 12.813l-2.438-9.23c-.042-.166-.23-.27-.417-.229l-.313.084c-.166.041-.25.187-.25.354-.229.146-1.333.437-1.624.437a.324.324 0 00-.376-.187l-.229.062V4c0-.354-.312-.667-.833-.667h-5c-.208 0-.5.313-.5.667v9.333c0 .375.292.667.5.667h5c.52 0 .833-.292.833-.667V5.75l2.104 8.02c.042.168.23.272.417.23l.313-.083c.166-.042.25-.188.25-.354.229-.146 1.333-.438 1.625-.438.062.146.229.23.375.188l.333-.084a.356.356 0 00.23-.416zM4.666 13H3v-1h1.667v1zm0-2H3V6.333h1.667V11zm0-5.667H3v-1h1.667v1zM7.333 13H5.667v-1h1.666v1zm0-2H5.667V6.333h1.666V11zm0-5.667H5.667v-1h1.666v1zm3.854 7.417l-2.02-7.708c.354-.042 1.27-.271 1.625-.438l2.02 7.709c-.354.041-1.27.27-1.624.437z" fill="#fff"/></svg>